<?xml version="1.0" encoding="utf-8"?>
<!-- Generator: Adobe Illustrator 20.0.0, SVG Export Plug-In . SVG Version: 6.00 Build 0)  -->
<svg version="1.1" id="Layer_1" xmlns="http://www.w3.org/2000/svg" xmlns:xlink="http://www.w3.org/1999/xlink" x="0px" y="0px"
	 viewBox="0 0 1920 149" style="enable-background:new 0 0 1920 149;" xml:space="preserve">
<style type="text/css">
	.st0{filter:url(#AI_GaussianBlur_4);}
	.st1{fill:#37474F;}
	.st2{fill:#2196F3;}
	.st3{fill:#FF9800;}
	.st4{fill:#808083;}
	.st5{fill:#59595C;}
	.st6{fill:#DEAC9C;}
	.st7{fill:#F3CCC1;}
	.st8{fill:#C39280;}
	.st9{fill:#724D35;}
	.st10{fill:#AB8074;}
	.st11{fill:#56392E;}
	.st12{fill:#FAE2DF;}
	.st13{fill:#FCDACE;}
	.st14{fill:#8B6553;}
	.st15{fill:#BCA4A0;}
	.st16{fill:#3E2B20;}
	.st17{fill:#33221A;}
	.st18{fill:#35241B;}
	.st19{fill:#F0CFC7;}
	.st20{fill:#6D6F70;}
	.st21{fill:#87664E;}
	.st22{fill:#765744;}
	.st23{fill:#5C4536;}
	.st24{fill:#4C382E;}
	.st25{fill:#4A3426;}
	.st26{fill:#745643;}
</style>
<filter  id="AI_GaussianBlur_4">
	<feGaussianBlur  stdDeviation="4"></feGaussianBlur>
</filter>
<g id="XMLID_2_" class="st0">
	<path class="st1" d="M1920,1.3H0v64c115,0,320,76,320,76s192.3-76,1600-76V1.3z"/>
</g>
<path id="XMLID_43_" class="st2" d="M1920,1.2H0v64c115,0,320,76,320,76s192.3-76,1600-76V1.2z"/>
<g id="XMLID_244_" onclick="alert('click!')">
	<g id="XMLID_506_">
		<path id="XMLID_507_" class="st3" d="M356.1,21.5c0,27.6,0,46.6,0,66.8c0,10.8-24.4,27.4-36.1,31.6V21.5H356.1z"/>
	</g>
	<g id="XMLID_504_">
		<path id="XMLID_505_" class="st2" d="M283.9,21.5c0,27.6,0,46.6,0,66.8c0,10.8,24.4,27.4,36.1,31.6V21.5H283.9z"/>
	</g>
	<g id="XMLID_102_">
		<path id="XMLID_503_" class="st4" d="M348.8,90.8c-8-3.9-11.3-4.8-11.3-4.8L298,85.8c0,0-9.1,2.2-13.1,6.4
			c4.5,10.5,24.8,24,35.2,27.6l0,0c9.6-3.4,27.7-15.2,33.9-25.3C352.8,93.3,351.2,92,348.8,90.8z"/>
		<path id="XMLID_502_" class="st5" d="M290.3,96.9c0,0,5.4,0.1,9-1.6c0,0-0.1,2,1.6,2.9l3.1,3.4l12.8,1.3l-20.4-13.5L290.3,96.9z"
			/>
		<path id="XMLID_466_" class="st5" d="M344.7,95.6l2,2.3c0,0-3.3,0.8-4.9-0.5c-0.1-0.1-0.2-0.1-0.2-0.2c0,0-0.2,1.4-1.6,1.7
			c-0.7,0.1-2.2,1.5-5,1.6c-2.8,0.1-6.9,2.7-6.9,2.7l12.7-10.5L344.7,95.6z"/>
		<g id="XMLID_469_">
			<path id="XMLID_501_" class="st6" d="M314.2,47.3c-2,1.7-4.1,3.4-6,5.2c-1.6,1.4-1.8,2.8-2.2,5c-0.6,2.9-1.1,5.8-1.6,8.7
				c-0.5,2.6-1.2,5.3-0.8,7.9c0.6,4.8,3.2,9.6,6.3,13.1c3.4,3.8,6.6,7.3,12,7.5c5.1,0.2,9.7-2.5,13.3-6c3.4-3.3,4.6-8.8,5.6-13.3
				c0.5-2.3,1.4-4.9,1.3-7.3c-0.1-2.7-1-5.4-1.2-8.1c-0.2-2,0-4-0.7-5.9c-0.8-2.1-2.3-4.3-3.6-6.2c-3.2-4.4-7.4-5.3-12.4-6.2
				c-2.1-0.4-4.7-1.5-6.5,0.1C316.1,43.2,315.3,45.5,314.2,47.3C312.4,48.8,315.2,45.5,314.2,47.3z"/>
			<path id="XMLID_500_" class="st7" d="M319.2,71.2c0,1.1-1.8,1.2-0.4,1.9C320.4,73.9,321,72.1,319.2,71.2z"/>
			<g id="XMLID_495_">
				<path id="XMLID_499_" class="st8" d="M332.2,44.4c0,0,0.1,0.1,0.2,0.1C332.8,44.6,332.2,44.4,332.2,44.4z"/>
				<path id="XMLID_496_" class="st8" d="M340.6,66.5c-0.2-3.4-0.4-6.8-0.5-10.3c-0.1-3.1-1.1-5.2-3-7.5c-3.4-4-8.5-6.9-13.7-7.1
					c-3.9-0.2-8.6-0.3-11.8,2.4c-1.6,1.4-1.9,3.1-2.4,5.2c-0.6,2.6-2.6,4.5-3.8,6.9c-2.9,5.5-2.4,11.6-1.5,17.6
					c0.5,2.9,1,5.9,1.5,8.8c0.5,3,0.4,6.3,1.1,9.3c0.6,2.5,2.4,4.6,4.1,6.4c1.9,2.2,3.2,3.1,6,3.2c2.2,0.1,3.7,1.9,5.8,2.2
					c2.1,0.3,4.2-0.4,5.6-2.1c0.8-1,1-2.3,1.5-3.5c0.6-1.5,1.3-3,2-4.5c1.4-3,3-5.6,4.8-8.4c1.7-2.7,3.3-5.6,4.2-8.7
					C341.2,73.3,340.8,69.8,340.6,66.5z M334.8,73c-0.8,0.4-2.2-1.3-3-0.7c-0.5,0.3,0.4,1.4-0.8,1.5c-0.9,0.1-1.2-1.1-1.7-1.5
					c-1.8-1.6-2.7,0.5-4.4,0.3c-1-0.1-1.3-0.6-2.2-1c-1.1-0.5-3-0.8-4.2-0.7c0.3,1,2.3,1.8,1.7,2.9c-0.3,0.6-2.4,1-3,0.7
					c-1.6-0.7,0.1-2.2-0.8-2.9c-0.6-0.5-3.9,1.9-4.3,2.5c-1.1,1.9,2.8,4.8,3.1,3.5c2,1.2,3.4,1.7,5.8,1.9c1.3,0.1,2.6,0.3,3.8,0.7
					c0.7,0.2,1.5,0.9,2.2,1c0.6,0.1,3.2-0.9,1.6,0.3c-1.4,1.1-3.8,0.5-5.3,0.6c-1,0-2.3,0.4-2,1.7c0.3,1.2,1.9,1,1.9,2.5
					c0,1.9-1.9,1.5-3.1,1.7c-1.8,0.3-3.3,0.3-4.5-1.3c-0.7,0.8-0.5,1.1-1.5,0.7c-0.6-0.3-1.3-1.3-1.7-1.9c-0.7-0.8-1.5-1.8-1.8-2.9
					c-0.2-0.5-0.2-0.8-0.1-1.3c0-0.2,0.5-0.2,0.5-0.2c-0.2-1.1-2-1.3-2.5-2.5c-0.6-1.3-0.8-2.9-0.5-4.2c0.5-1.9-0.7-2.9-0.8-4.8
					c-0.1-2.1,1-4,2.4-5.4c0.5-0.5,1.2-1.3,1.8-1.6c0.8-0.4,1.2,0.1,1.7,0c0.7-0.2,0.5-0.8,0.8-1c0.7-0.5,1.8-0.3,2.5,0.5
					c-0.9,0-2,0.3-2.6,0.9c0.5-0.1,1.4-0.3,1.8,0.3c-0.9,0.3-2.1-0.1-2.8,0.6c1.8,0.8,4-0.1,5.8-0.6c1.2-0.3,2.9-1,3.3-2.4
					c0.3-1-0.2-1-0.4-1.8c-0.2-1.1,0-1.1,0.3-2.1c0.5-1.6,0.2-2.1-1.4-3c-1.5-0.9-7.1-2.6-2.7-3.6c3.3-0.8,6.3-2.5,9.7-1.6
					c1.5,0.4,3,1.1,4.2,2c0.7,0.5,3.2,2.7,2.6,3.9c-0.4,0.9-1.6,0.4-2.5,0.5c-1.5,0.3-2,1.2-2.5,2.5c-1.2,2.9-2.1,5.9,1.3,7.7
					c1.9,1,5.5,1.3,6,3.9C336.5,69.3,337.1,72,334.8,73z"/>
			</g>
			<path id="XMLID_494_" class="st6" d="M321.1,75.6c-0.5,0-0.8,0-1.3-0.2c-0.4-0.2-0.6-0.6-1.1-0.7c-0.2,0-0.4,0.2-0.6,0.2
				c-0.5,0-1,0-1.5-0.2c0.1,0.2,0.1,0.4,0.2,0.6c0.9,1.3,4,1.4,5.1,1.5c2.7,0.2,4.6,1.2,7.1-0.5C326.3,75.8,323.7,75.8,321.1,75.6z"
				/>
			<path id="XMLID_493_" class="st7" d="M316.4,77.6c-0.3,0.8-1.1,1.6-1.4,2.4c-0.2,0.7-0.2,1.6-0.5,2.4c-0.5,1.6,0.2,3.2,1.6,4.4
				c1.2,1,7.2,1.2,5.8-1.3c-0.6-1-3.2-1.6-2.7-3.4c0.5-2.1,3.6-0.6,4.7-1.6C325.6,78.8,318.4,75.8,316.4,77.6
				C316.1,78.2,317.4,76.7,316.4,77.6z"/>
			<path id="XMLID_492_" class="st9" d="M320.7,72.3C320.7,72.3,320.7,72.2,320.7,72.3c0.2-0.1,0.7-0.1,0.9-0.1
				c1,0.2,2.2,0.8,2.7,1.7c0,0,1.1,3.3-0.9,2.2c0,0-1.4-0.1-1.6-1.8c0,0-0.3,1.3-1.1,1.2s-1.6,0.1-2.8-0.5c0,0-0.6,0.7-1.8,0.3
				c0,0-0.4-0.1-1,0.4c0,0-1.6,0.5-2.2-0.5c-0.2-0.2,0-0.8,0.1-1c0.2-0.4,0.5-1,1-1c0.3,0,0.6,0.3,0.6,0.6c0.2-0.2,0.4-0.4,0.6-0.5
				c0.2-0.1,0.5-0.2,0.7-0.1c0.2,0.1,0.3,0.3,0.3,0.5c0.2-0.2,0.6-0.4,0.8-0.3c0.2,0.1,0.3,0.3,0.5,0.4c0.6,0.3,1.1-0.4,1.5-0.7
				c0,0.1-0.1,0.4,0,0.4c0.2,0.3,0.4,0.2,0.6,0c0.3-0.2,0.5-0.4,0.6-0.7C320.4,72.9,320.5,72.4,320.7,72.3z"/>
			<path id="XMLID_488_" class="st10" d="M342.4,65c-0.4-3.1-1.2-6.2-2.1-9.2c-0.8-2.7-1.4-6-3.3-8.2c-2.7-3.3-8-4.3-12-4.6
				c-2.5-0.2-5.3,0.8-7.8,1.2c-3,0.5-5,1.5-7.1,3.9c-1.9,2.1-2.7,4.6-3.7,7.2c-1.2,3.2-2,6.3-2.3,9.7c-0.3,3.2-0.7,6.5-0.8,9.7
				c-0.1,3.3,0.7,6.6,0.9,9.9c0.3,5.6,1.2,11.4,5.5,15.4c1.5,1.4,3.3,1.7,5.2,2.4c2,0.8,4,2.3,6.1,3.1c1.7,0.6,3.2,1.9,4.7,0.6
				c0.8-0.6,1.5-2.6,2.2-3.4c0.8-0.9,1-1.5,1.3-2.9c0.3-1.5,0.3-2.7,1-4.1c0.7-1.4,1.5-2.9,2.2-4.3c0.6-1.3,1.2-1.8,2.5-2.3
				c1.4-0.6,2-1.7,2.7-3c1.7-3.1,3.4-5.9,4-9.5C342.1,72.7,342.8,68.7,342.4,65z M334.7,79.7c-0.5,1.2-0.1,2.9-1.1,3.7
				c-0.3,0.2-1,0.2-1.3,0.5c0,0.1,0,0.3,0,0.4c-0.1,0.4-0.3,0.6-0.7,0.6c-0.3,0.2-0.7,0-1,0.3c-0.6,0.5-0.5,1.3-0.9,1.8
				c-0.8,1-2.1,0.3-2.7,1.3c-1.2-1.9-2.5,0.2-3.8,0.7c-1.3,0.5-2.7-0.2-4.1-0.3c-1.8-0.2-4.8-0.5-3.1,2.1c0.7,1.1,1.3,1.9,2.6,2
				c2,0.1,4.1-0.1,6.1,0.4c0.5,0.2,1,0.3,1.5,0.4c0.6,0.3,0.9,0.2,0.9-0.4c0.6-0.2,0.8-0.9,1.5-0.4c1.2,0.7-0.6,3.3-1,4.1
				c-0.4,0.9-0.8,1.6-0.7,2.6c0,0.4,0.5,1,0.3,1.4c-0.2,0.5-2,1.7-2.5,2c-1.5,1.1-2.7,0.4-4.2-0.4c-1.5-0.7-2.9-0.8-4.5-1.3
				c-1-0.3-1.3-0.7-1.9-1.5c-0.5-0.6-1.4-1.1-1.9-1.7c-0.6-0.9-0.5-1.5-1.5-2.2c-0.5-0.3-1.4-0.6-1.8-1c-0.7-0.7-0.2-0.6-0.2-1.7
				c0-0.7-0.5-1-0.6-1.6c0.1-0.3,0.2-0.6,0.2-0.9c-0.1-0.4-0.2-0.8-0.4-1.2c0.6,0.5,1.4,1,2.3,1.1c-0.6-0.5-1.5-1.1-1.4-2
				c0.7,0.4,1.7,1.2,2.5,0.7c-0.2-0.3-0.5-0.5-0.8-0.8c0.4,0,0.7-0.1,1.1-0.1c-1.6-1-2.6-2.8-3.5-4.4c0.6,0.8,1.5,1.4,2.4,1.6
				c-4.1-3.5-3.2-9.5-3.5-14.3c-0.3-4.4,1.3-9.1,6.2-9.7c-0.5-0.4-1-0.7-1.5-0.9c0.8-0.7,1.8-0.6,2.7-0.6c-0.6-1.1-2-0.7-2.9-1.3
				c-0.7-0.4-2-1.4-2-2.3c0-2.1,3.7-1.3,4.9-1c1.5,0.3,4.8,2.3,6.1,1.2c1.6-1.4-4.5-3.7-5.3-3.9c-1.1-0.3-2.6,0.1-2.5-1.6
				c0.1-1.5,1.8-2.4,2.9-2.9c1.3-0.6,2.8-1.1,4.2-1.5c2.4-0.7,4.5,0.1,6.9,0.2c3.2,0.1,4.8,1,6.7,3.5c1.1,1.4,3.5,4.8,0.6,5.5
				c-0.8,0.2-4.1-0.1-3.4,1.8c0.4,1.1,2.3,0.8,3.2,0.7c0.8-0.1,2.5-0.5,2.3,0.8c-0.1,0.7-1.2,1-1.5,1.4c-0.7,0.8-0.1,1.3-1.5,0.5
				c0.9-1.4,0.3-1.3-1.1-1.1c-0.9,0.2-2.4,0.3-2.4,1.6c0,1.1,1,1.2,1.9,1.5c1.2,0.4,1.6,0.6,2.4,1.7c-0.5,0.6-2-0.2-2.6-0.3
				c2,1.9,5.2,2.3,6.3,5.1C338.9,73.3,336,76.5,334.7,79.7z"/>
			<path id="XMLID_491_" class="st9" d="M322.4,81.6l-0.9,0.2l-0.9,0.5l-0.3,0.9l0.1,0.5l0.8,0.2l0.9-0.1l0.7-0.2l0,0.5l-0.5,0.7
				l-0.9,0.3l0.3,0.5V86l-0.6,0.1l-0.4,0.7l-1.1,0.1l0.1-0.7l-1,0.6l-0.2,0.5c0,0-0.2-0.1-0.3-0.2c-0.2-0.1-0.4-0.5-0.4-0.5
				l-0.3,0.2c0,0,0,0.3-0.2,0.2c-0.2-0.1-0.7-0.5-0.7-0.5h-0.3l-0.7-0.2l-0.3,0.8l-0.2,1l0.1,0.5l0.5,1.2l0.3,0.8l0.5,0.5l0.7,0.9
				l0.5,0.2l1,0.1l1.1,0.4h0.7l1.1,0.1l0.3,0.2c0,0,0.3,0.1,0.5,0.1s0.3-0.1,0.5-0.1s0.6-0.2,0.6-0.2s0.6,0,0.8-0.1
				c0.2-0.1,0.6-0.2,0.6-0.2s0.3-0.1,0.5-0.1s0.6,0.1,0.8,0c0.2-0.1,0.9-0.2,0.9-0.2h0.6l0.4-0.1l0.6-0.2l0.4-0.2l1-0.7
				c0,0,0.4-0.2,0.6-0.5c0.2-0.2,0.4-0.5,0.4-0.8c0-0.2,0.3-1.1,0.3-1.1s0.3-0.4,0.3-0.6s0.3-0.4,0.2-0.6c-0.1-0.2-0.4-0.8-0.4-0.8
				l-0.1-0.8l-0.1-1l-0.4-0.2l-0.2,0.4l-0.4-0.1c0,0,0.1,0.3-0.2,0.3s-0.6,0.1-0.8,0.1c-0.2,0-0.8-0.3-0.8-0.3l-0.2-0.3
				c0,0,0.4-0.9,0.7-1.1c0.2-0.1,0.6-0.1,0.6-0.1s0-0.1-0.2-0.4c-0.2-0.3-0.4-0.5-0.4-0.5l-0.9-0.9l-1.1,0.1l-1.3,0.1h-1.2
				C324.4,82,323.1,82.2,322.4,81.6z"/>
			<path id="XMLID_486_" class="st6" d="M316.2,56c0.8,0.3,3.1,0.7,3.5,1.6c0.9,1.9-2.5,1-3.4,0.7c-1.5-0.6-4.6-0.3-4.9-2.3
				C311.4,56,311.2,53.8,316.2,56z"/>
			<path id="XMLID_485_" class="st11" d="M323.4,82.6c1,0,2.4-0.6,3.3-0.1c0.8,0.4,0.9,1.2-0.1,1.5c0.3,0.2,0.7,0.4,1.1,0.3
				c-0.2,1.3-0.6,1.1-1.5,0.9c-1.1-0.2-1-0.4-2.1,0c-3.1,0.9-1-1.6,0.1-1.4C323.9,83.5,322.9,83.1,323.4,82.6
				C324.4,82.6,322.9,83.1,323.4,82.6z"/>
			<path id="XMLID_484_" class="st11" d="M315.6,73.7c-0.6,0.5-3.6,0.7-1.8,1.4C314.6,75.4,316.8,74.2,315.6,73.7z"/>
			<path id="XMLID_483_" class="st7" d="M310.4,63.5c-3,1.7-5,8-0.1,8.7c3.3,0.5,6.2-3.6,9.4-3.7c-3.1,2.6,0.1,3.8,1.7,2.4
				c0.9-0.8,3.6,2.2,5.8,0.3c1.7-1.5,0-3.6-0.4-5.2c-0.3-1.1-0.1-2.3-0.1-3.5c-0.1-1,0-2.6-1.1-3c-1.8-0.6-2.4,1.7-3.4,2.6
				c-1.4,1.2-3.9,1.4-5.6,1.8C316.5,63.9,312.6,64.4,310.4,63.5z"/>
			<path id="XMLID_482_" class="st12" d="M324.9,61.2c0.3,0.1,0.7,0.6,0.8,0.9c0.2,0.7,0.2,1.4,0.3,2.1c0.1,0.9,0.2,1.9,0.2,2.8
				c0,1.7-0.5,2.3-2.1,2.5c-1.2,0.1-3.2,0.6-4.3,0.2c0.4-0.3,0.6-0.9,1-1.2c0.3-0.2,0.8,0.1,1.1-0.1c0.7-0.5,0.8-1.1,1.2-1.8
				c0.5-1,0.9-1.5,1-2.6c0-0.6-0.1-1.2,0-1.8"/>
			<path id="XMLID_481_" class="st13" d="M313.6,64.9c-1.4-0.1-2.7-0.3-3.8,0.7c-0.9,0.9-1.5,2.4-0.2,3.2c0.9,0.6,2.3-0.1,2.9,1.1
				c0.7-0.6,1.4-1.3,2.2-1.7c0.7-0.4,1.6-0.4,2.2-0.8c1.2-0.7,0.8-1.2,0-2.3C316.3,64.7,313.6,64.9,313.6,64.9z"/>
			<path id="XMLID_480_" class="st12" d="M316.7,84.7c1.5,0,2.8,1,4.4,1C321.2,87.5,315.4,85.2,316.7,84.7
				C318.2,84.7,315.2,85.3,316.7,84.7z"/>
			<path id="XMLID_479_" class="st8" d="M314.8,76.6c0,0,6.2-0.3,7.3,0.2c1.1,0.5,2.6,0.3,3.2,0c0.7-0.2,2.7,0.3,6.1-0.3
				c0,0-2.4,4.4-4.4,5.1c-2,0.7-3.2,0.2-4.4,0.5C321.4,82.4,319.3,81.7,314.8,76.6z"/>
			<path id="XMLID_478_" class="st6" d="M316.8,77.3c-0.1,0.2-0.6,0.7-0.4,0.3c-0.1,0.2-0.2,0.3-0.2,0.5c1.5,1.5,2.6,2.5,3.6,3.2
				c1.1-0.8,4.4,0.8,5.3-0.7C326.3,78.7,319.1,77.9,316.8,77.3z"/>
			<path id="XMLID_477_" class="st11" d="M324.3,75.1c0.1-1-0.6-1.9-1.7-2.1c-0.6-0.1-1.7-0.1-1.6,0.5c0.1,0.1,0.1,0.2,0.1,0.3
				c0,0.1,0,0.1,0,0.2C321.2,75,324.1,77.1,324.3,75.1z"/>
			<path id="XMLID_476_" class="st9" d="M319.3,77.7c-1.3-0.6-2.6-1.6-4.1-1.5c-0.1,0-0.1,0-0.2,0c-0.2,0-0.3,0.2-0.2,0.3
				c0.2,0.9,2.4,2,2.8,2.2c1.8,0.8,3.9,1,5.9,0.9C322.1,78.9,320.8,78.4,319.3,77.7z"/>
			<path id="XMLID_475_" class="st9" d="M334,74.7c-0.6-1.1-2.4-0.2-3.3-0.4c-1.5-0.4-2.2-1.6-3.8-1c-1.4,0.5-2.5,1.9-0.7,2.7
				c1.7,0.8,3.8-0.4,5.6,0c-2.3,1-4.2,3.1-6.7,3.4c1.3,0.6,2.6,0.6,3.9-0.1c1-0.6,1.6-1.8,2.7-2.3c1-0.5,1.5,0.5,2.4,0.1
				C334.6,76.7,334.5,75.3,334,74.7C333.4,73.5,334.6,75.4,334,74.7z"/>
			<path id="XMLID_474_" class="st11" d="M315.3,76.8c0,0,0.8-0.1,1.2,0c0.4,0.1,2.1,0.7,2.1,0.7s6.6,2.9,11.2-0.5
				c0,0,2.3-1.1,0.9,0.2s-4.9,3.8-10.6,2C314.5,77.5,315.3,76.8,315.3,76.8z"/>
			<path id="XMLID_473_" class="st11" d="M325.5,73.7l-0.3,0.7c0,0-0.6,1.1-0.1,1.5l1,0.1L327,76l0.7-0.1l0.9-0.1l0.3,0.3l0.6-0.1
				l0.4-0.3l0.9-0.1l0.6,0.1l0.6,0.2c0,0,0.6,0.6,0.5,1.4c0,0,1.1,1.3,1.7-0.5c0,0,0.8-1.8-0.8-2.5l-0.2,0.6l-0.6-0.7l-0.3,0.4
				c0,0-0.4-0.8-1.2-1.2c0,0,0.8,2.3,0.1,1.8c-0.7-0.5,0.1-1.5-1.5-1.7l-0.8-0.1l-0.8-0.2l-0.7-0.2l-0.8,0.1l-0.3,0.5L325.5,73.7z"
				/>
			<g id="XMLID_470_">
				<path id="XMLID_472_" class="st13" d="M321.8,78.2c-0.6-0.4-1.6-0.3-1.6-0.3c-0.6-0.5-1.4-0.4-1.4-0.4c-0.4-0.3-1.1-0.3-1.1-0.3
					c-0.3,0.3-0.2,1.1-0.2,1.1c0.3,0.2,0.6,0.2,1,0.4c0.2-0.1,0.3-0.2,0.3-0.4c0,0,0.1,0.3,0.2,0.6c0.3,0.1,0.7,0.2,1.1,0.3
					c0.1-0.1,0.3-0.3,0.3-0.5c0,0,0,0.3,0.1,0.7c0.3,0.1,0.6,0.1,1,0.2c0.1-0.1,0.3-0.3,0.3-0.5c0,0,0,0.3,0.1,0.6
					c0.4,0.1,0.9,0.1,1.3,0.2c0.3,0,0.7,0,1,0l0-1.2C322.8,78.5,321.8,78.2,321.8,78.2z"/>
				<path id="XMLID_471_" class="st13" d="M324.5,78.5l0,1.2c0.6,0,1.3-0.1,1.8-0.2c0.1-0.2,0.2-0.4,0.2-0.6c0,0,0.1,0.2,0.2,0.5
					c0.2-0.1,0.5-0.1,0.7-0.2c0.2-0.2,0.2-0.5,0.2-0.5c0,0,0.1,0.2,0.2,0.4C327.8,79,328,79,328,79l0.2-1
					C326.8,78.4,325.5,78.6,324.5,78.5z"/>
			</g>
			<path id="XMLID_386_" class="st11" d="M339.8,63C339.5,61.2,340.1,64.6,339.8,63L339.8,63z"/>
			<path id="XMLID_463_" class="st11" d="M337.3,79.2c-1,2.5-2.4,5-4.4,6.7c-0.9,0.8-2,1.2-2.9,2.1c-0.9,0.8-1.5,1.5-2.7,1.7
				c-1,0.1-1.9-0.4-2.8-0.2c-1.2,0.3-0.7,1-1.3,1.4c-0.8,0.6-3.4-0.6-4.2-1.3c0.1,1.5-2.2-0.1-2.8-0.2c-0.1,0.9,0.3,1.4,0.8,1.9
				c0.2,0.1,0.5,0.2,0.7,0.3c0.1,0.3,0.3,0.5,0.4,0.8c1,0.7,2.9,0.8,4.1,0.8c1.5,0,3.3,0,4.8-0.4c0.8-0.2,1.6-0.5,2.4-0.7
				c1.2-0.3,1.8-2.3,1.9-2.3c1.8,0.4-3.8,9.1-2.4,10.9c1.8-6.4,6-11.7,8.1-18c1.1-3.2,2.3-6.3,3.1-9.6c0.2-1,0.5-2,0.6-3.1l-0.6,0.3
				C339.5,73.6,337.7,78.4,337.3,79.2z"/>
			<path id="XMLID_487_" class="st14" d="M339.8,63C340.1,64.6,339.5,61.2,339.8,63c-0.6-3.5-0.7-8.1-2.5-11.2
				c-1.5-2.7-4.4-5.3-6.9-7c-2.8-2-6.3-2.4-9.7-2.3c-3,0.1-6.4,0.1-9.1,1.7c-2.7,1.6-4.1,4.7-5.2,7.6c-1.4,3.8-2.3,7.8-2.6,11.8
				c-0.3,3.9-0.1,7.9,0.4,11.7c0.3,1.8,0.6,6.9,3.2,6.9c-3.7-6.4-0.7-14.1-0.7-20.9c0.9,0,1,1.2,2,1.3c0.2,0,2.2-1,2.3-1.1
				c0.6-0.8,0-2-0.9-2.5c-0.2-0.1-1-0.3-1.2-0.3c-0.2,0-0.8,0.4-0.8,0.4c-0.2,0-0.4,0.4-0.7-0.2c-0.2-0.4,0-1,0.1-1.4
				c0.9-3.2,4.4-3.6,7.1-2.7c-0.6-2.3-4-0.9-3.6-3.6c0.3-2.1,1.6-3.8,3.5-4.8c1.8-1,4.7-2,6.8-1.6c1.1,0.2,2.2,0.9,3.2,1.3
				c1.5,0.5,3,0.9,4.4,1.4c2.3,0.8,4.9,1.9,6.4,3.9c1,1.3,1.8,4.8-0.3,5.2c-0.7,0.1-1.6-1-2.1-0.2c-1,1.4,0.6,1.2,1.4,1.2
				c2.9-0.2,1.5,2.3,1.1,4c0,0-2-1.6-1.6,0c0.9,1.2,0.4,2.8,1.3,4c0.3,0.4,1.5,1.4,1.9,1.6c0.9,0.5,1.5-0.3,2.2,0.1
				c0.6,0.3,0.7,1.5,0.5,2.9l0.6-0.3c0.1-0.7,0.2-1.5,0.2-2.2C340.6,66.2,340.1,64.6,339.8,63z"/>
			<g id="XMLID_412_">
				<g id="XMLID_780_">
					<path id="XMLID_779_" class="st11" d="M307.9,56c0,0,1.6-1.9,4.5-0.7c2.9,1.2,8,2.3,8,2.3s1.8-2.1-1.5-2.9S308.7,51.2,307.9,56
						z"/>
					<path id="XMLID_778_" class="st11" d="M328.8,58.5c0,0-0.2-2.7,2.4-2.5c2.6,0.2,2.7,0.9,5.8,0.2l0.8,2.3c0,0-2.2-1.3-4.5-0.2
						C331,59.4,328.8,58.5,328.8,58.5z"/>
					<g id="XMLID_744_">
						<path id="XMLID_777_" class="st14" d="M310.1,59.3c0,0,1.1-1.6,4.3-1.2s3.9,0.9,5.3,2.4c0,0-0.7-2.1-4.5-2.5
							C312,57.6,310.7,58,310.1,59.3z"/>
						<g id="XMLID_775_">
							<path class="st8" d="M314.5,62.2c-1.3,0-2.6-0.6-3.4-1.6l-0.1-0.2l0.1-0.2c0-0.1,1.2-1.4,3.2-1.4c0.2,0,0.3,0,0.5,0
								c1.3,0.1,1.9,0.6,2.6,1.1c0.5,0.4,1,0.7,1.9,1l0.1,0l0.1,0.3l-0.1,0.2c0,0.1-0.1,0.1-0.3,0.1c-0.1,0-0.2,0-0.3-0.1
								c-0.1,0-0.4-0.1-0.8-0.1c-0.4,0-1,0-1.7,0.4C315.8,62.1,315.1,62.2,314.5,62.2z"/>
							<g>
								<path class="st14" d="M314.3,59.2c0.2,0,0.3,0,0.5,0c2.2,0.3,2.4,1.5,4.4,2.1c0,0,0,0.1-0.1,0.1c-0.1,0-0.1,0-0.2-0.1
									c-0.2-0.1-0.5-0.1-0.9-0.1c-0.5,0-1.2,0.1-1.8,0.4c-0.4,0.2-1,0.4-1.7,0.4c-1.1,0-2.3-0.4-3.2-1.5
									C311.2,60.5,312.3,59.2,314.3,59.2 M314.3,58.7c-2.1,0-3.4,1.4-3.4,1.5l-0.3,0.3l0.3,0.3c0.9,1.1,2.2,1.7,3.6,1.7
									c0.7,0,1.4-0.1,1.9-0.4c0.6-0.3,1.2-0.3,1.6-0.3c0.4,0,0.6,0.1,0.7,0.1c0.2,0.1,0.3,0.1,0.4,0.1c0.3,0,0.4-0.1,0.5-0.2
									c0.1-0.1,0.1-0.3,0.1-0.5l-0.1-0.3l-0.3-0.1c-0.8-0.2-1.3-0.6-1.8-0.9c-0.7-0.5-1.3-1-2.7-1.1
									C314.6,58.7,314.5,58.7,314.3,58.7L314.3,58.7z"/>
							</g>
						</g>
						<path id="XMLID_758_" class="st13" d="M314.8,59.2c-2.2-0.3-3.5,1.3-3.5,1.3c1.6,1.9,3.9,1.6,5,1.1c0.6-0.3,1.2-0.4,1.7-0.4
							c0-0.2,0-0.3,0-0.5C316.9,60.1,316.4,59.4,314.8,59.2z"/>
						<path id="XMLID_757_" class="st15" d="M314.8,59.6c1.6,0.2,2.2,0.9,3.1,1.5c0-0.1,0-0.2,0-0.3c-1-0.6-1.5-1.3-3.1-1.5
							c-2.2-0.3-3.5,1.3-3.5,1.3c0.1,0.1,0.1,0.1,0.2,0.2C311.8,60.3,313,59.4,314.8,59.6z"/>
						<path id="XMLID_756_" class="st16" d="M315.6,59.4c-0.2-0.1-0.5-0.1-0.8-0.2c-0.4,0-0.8,0-1.2,0c-0.5,0.3-0.8,0.8-0.8,1.4
							c0,0.4,0.2,0.9,0.5,1.2c0.9,0.3,1.8,0.2,2.5,0c0.3-0.3,0.4-0.7,0.4-1.1C316.2,60.1,316,59.7,315.6,59.4z"/>
						<ellipse id="XMLID_755_" class="st17" cx="314.6" cy="60.5" rx="0.7" ry="0.6"/>
						<path id="XMLID_754_" class="st18" d="M315.5,59.3c0,0-0.1,0-0.1,0c0,0-0.1,0-0.1,0c0,0-0.1,0-0.1,0c0,0-0.1,0-0.1,0
							c-0.1,0-0.2,0-0.3,0c-0.1,0-0.2,0-0.3,0c0,0,0,0-0.1,0c-0.1,0-0.2,0-0.3,0c0,0,0,0,0,0c-0.1,0-0.2,0-0.3,0c0,0,0,0-0.1,0
							c-0.1,0-0.2,0-0.2,0l0,0c-0.2,0.1-0.3,0.3-0.5,0.4c0.5-0.1,1-0.2,1.6-0.1c0.5,0.1,0.9,0.2,1.2,0.3c-0.1-0.2-0.2-0.3-0.4-0.5
							C315.6,59.4,315.5,59.4,315.5,59.3z"/>
						<g id="XMLID_751_">
							<path id="XMLID_753_" class="st19" d="M315.8,60.2c-0.1-0.4-0.3-0.6-0.5-0.3c-0.1,0.1,0.1,0.3,0.2,0.5L315.8,60.2z"/>
							<path id="XMLID_752_" class="st19" d="M315.6,60.8c0,0.4-0.4,0.3-0.2,0.5c0.2,0.2,0.5-0.3,0.5-0.7L315.6,60.8z"/>
						</g>
						<path id="XMLID_398_" class="st14" d="M329.4,61.1c0,0,2.3-1.7,5.2-0.7c2.9,0.9,2,2.6,2,2.6s1.4-1.7-1.5-2.7
							C332.3,59.2,330,60.3,329.4,61.1z"/>
						<g id="XMLID_397_">
							<path class="st8" d="M334.1,63.8c-0.8,0-1.8-0.2-2.2-0.5c-0.7-0.6-1.9-0.9-2.4-0.9l-0.2,0c-0.2,0-0.4-0.1-0.5-0.2l-0.1-0.1
								l0-0.2l0-0.1l0.1,0c0.6-0.2,0.9-0.3,1.3-0.5c0.7-0.3,1.3-0.6,2.6-0.6l0.1,0c2.3,0,3.2,1.7,3.2,1.8c0.1,0.3,0,0.5-0.2,0.7
								C335.6,63.7,334.6,63.8,334.1,63.8L334.1,63.8z"/>
							<g>
								<path class="st14" d="M332.9,60.9c0,0,0.1,0,0.1,0c2.2,0,3,1.7,3,1.7c0.1,0.7-0.9,1-1.9,1c-0.8,0-1.7-0.2-2-0.4
									c-0.8-0.7-2.1-0.9-2.6-0.9c0,0-0.1,0-0.1,0c0,0-0.1,0-0.1,0c-0.4,0-0.3-0.2-0.3-0.2C330.6,61.6,330.8,60.9,332.9,60.9
									 M332.9,60.4c-1.4,0-2.1,0.3-2.7,0.6c-0.4,0.2-0.7,0.3-1.3,0.5l-0.3,0.1l-0.1,0.3c-0.1,0.2,0,0.4,0.1,0.5
									c0.1,0.2,0.4,0.3,0.7,0.3c0,0,0.1,0,0.1,0c0,0,0,0,0,0c0.5,0,1.7,0.2,2.3,0.8c0.5,0.4,1.6,0.6,2.3,0.6
									c0.6,0,1.7-0.1,2.2-0.7c0.2-0.2,0.3-0.5,0.2-0.9l0-0.1l0-0.1c0-0.1-1-1.9-3.4-1.9L332.9,60.4L332.9,60.4z"/>
							</g>
						</g>
						<path id="XMLID_540_" class="st13" d="M335.1,63.5c0.2-0.6,0.2-1.3,0.2-1.7c-0.2-0.2-0.5-0.3-0.8-0.5c0,0,0,0,0,0
							c0,0-0.1,0-0.1-0.1c0,0,0,0,0,0c0,0-0.1,0-0.1,0c0,0,0,0,0,0c0,0-0.1,0-0.1,0c0,0,0,0-0.1,0c0,0-0.1,0-0.1,0c0,0,0,0-0.1,0
							c0,0-0.1,0-0.1,0c0,0-0.1,0-0.1,0c0,0-0.1,0-0.1,0c0,0-0.1,0-0.1,0c0,0-0.1,0-0.1,0c0,0-0.1,0-0.1,0c0,0,0,0-0.1,0
							c-0.1,0-0.1,0-0.2,0c0,0,0,0,0,0c-0.1,0-0.2,0-0.3,0c0,0,0,0-0.1,0c-0.1,0-0.1,0-0.2,0c-0.1,0-0.1,0-0.2,0c0,0,0,0-0.1,0
							c-1.1,0.1-1.6,0.4-2.4,0.7c0,0.3,0,0.4,0,0.5c0.6,0.1,1.4,0.3,2,0.8c0,0,0.1,0.1,0.1,0.1c0,0,0.1,0,0.1,0.1c0,0,0,0,0,0
							c0,0,0,0,0.1,0c0,0,0,0,0,0c0,0,0.1,0,0.1,0c0,0,0,0,0,0c0,0,0.1,0,0.1,0c0,0,0,0,0,0c0,0,0.1,0,0.1,0c0,0,0,0,0,0
							c0,0,0.1,0,0.1,0c0,0,0,0,0,0c0.1,0,0.1,0,0.2,0c0,0,0,0,0,0c0.1,0,0.1,0,0.2,0c0,0,0,0,0,0c0.1,0,0.1,0,0.2,0c0,0,0,0,0,0
							c0.1,0,0.1,0,0.2,0c0,0,0,0,0,0c0.2,0,0.4,0,0.7,0c0,0,0,0,0,0C334.7,63.5,334.9,63.5,335.1,63.5z"/>
						<path id="XMLID_186_" class="st16" d="M334.1,62c0-0.4-0.1-0.7-0.3-1c-0.2-0.1-0.5-0.1-0.8-0.1c-0.9,0-1.5,0.1-2,0.3
							c-0.1,0.2-0.2,0.5-0.2,0.8c0,0.2,0,0.3,0.1,0.4c0.4,0.1,0.9,0.4,1.2,0.6c0.2,0.2,0.7,0.3,1.2,0.4
							C333.8,63.2,334.1,62.7,334.1,62z"/>
						<path id="XMLID_415_" class="st15" d="M329.9,62C329.9,62,329.9,62,329.9,62c0.8-0.4,1.5-0.8,3.1-0.8c1.1,0,1.8,0.4,2.3,0.8
							c0,0,0,0,0,0c0-0.1,0-0.3,0-0.4c-0.2-0.2-0.5-0.3-0.8-0.5c0,0,0,0,0,0c0,0-0.1,0-0.1-0.1c0,0,0,0,0,0c0,0-0.1,0-0.1,0
							c0,0,0,0,0,0c0,0-0.1,0-0.1,0c0,0,0,0-0.1,0c0,0-0.1,0-0.1,0c0,0,0,0-0.1,0c0,0-0.1,0-0.1,0c0,0-0.1,0-0.1,0c0,0-0.1,0-0.1,0
							c0,0-0.1,0-0.1,0c0,0-0.1,0-0.1,0c0,0-0.1,0-0.1,0c0,0,0,0-0.1,0c-0.1,0-0.1,0-0.2,0c0,0,0,0,0,0c-0.1,0-0.2,0-0.3,0
							c0,0,0,0-0.1,0c-0.1,0-0.1,0-0.2,0c-0.1,0-0.1,0-0.2,0c0,0,0,0-0.1,0c-1.1,0.1-1.6,0.4-2.4,0.7C329.9,61.8,329.9,62,329.9,62z
							"/>
						<ellipse id="XMLID_394_" class="st17" cx="332.4" cy="62" rx="0.6" ry="0.6"/>
						<path id="XMLID_181_" class="st18" d="M334,61.4c-0.1-0.1-0.1-0.3-0.2-0.4c-0.2-0.1-0.5-0.1-0.8-0.1c-0.9,0-1.5,0.1-2,0.3
							c-0.1,0.1-0.1,0.3-0.2,0.4c0.5-0.2,1.1-0.4,2.2-0.3C333.4,61.3,333.7,61.3,334,61.4z"/>
						<g id="XMLID_391_">
							<path id="XMLID_392_" class="st19" d="M333.3,62.3c-0.1,0.3-0.4,0.3-0.2,0.4c0.1,0.2,0.4-0.2,0.5-0.6L333.3,62.3z"/>
							<path id="XMLID_393_" class="st19" d="M333.6,61.8c0-0.4-0.2-0.6-0.4-0.4c-0.1,0.1,0,0.3,0.1,0.5L333.6,61.8z"/>
						</g>
					</g>
				</g>
				<path id="XMLID_411_" class="st10" d="M320.3,68.1c0,0-2.6,1.5-1.3,3.2c1.3,1.6,2.1,0.4,2.1,0.4s1.5-0.5,2.2,0.7
					c0,0-0.3,0.3-1.3-0.1c-1-0.3-2.3,0.6-3.3-0.6C317.5,70.1,318.8,68.5,320.3,68.1z"/>
				<path id="XMLID_384_" class="st8" d="M326.5,72.5c0,0,0.8-1,1.7-0.3c0,0,1.4,0.5,1.8-0.8c0.3-1.3-1.3-2.4-1.9-3.2
					c0,0,1,1,1.4,1.3c0.4,0.3,1.7,2.3,0.2,2.8C328.1,72.8,327.5,72.5,326.5,72.5z"/>
				<path id="XMLID_1_" class="st6" d="M329.6,72c-0.7-0.6-1.3-0.4-1.9,0c0.1,0,0.3,0.1,0.4,0.2C328.1,72.2,329.1,72.6,329.6,72z"/>
			</g>
		</g>
		<path id="XMLID_462_" class="st20" d="M340.6,87.1c-2-1.8-3.3-1.9-3.3-1.9l-1.7,0.8l-2.1,4.8l-3.1,4.5c-2.6,6.2-7,11.1-7,11.1l0,0
			l0,0l0,0l0.2,2.1c0.3,2.8,1.7,6.3,1.5,9.1c0.5-0.2,1-0.5,1.5-0.7c0.3-0.2,0.6-0.3,0.9-0.5c-1.3-3.5-1-6.8-2.1-9.6
			c0.6-1.8,2.9-4,8.7-7.3c1-0.5,2.5-0.2,3.3-0.7c2.2-1.3,3.5-0.9,3.6-3.2c0,0,4.2,1.9,5.7,0.9C346.7,96.5,341.6,88,340.6,87.1z"/>
		<path id="XMLID_510_" class="st20" d="M322.7,107.5c0.4,0.4,0.8,0.7,0.9,1l-1.9-3.4l-12.4-7.7l-1.5-1.4c0,0-3.6-5.2-4-13.1l0.1,0
			l-2.7-3.1C299.7,82,290,95.3,289,96.3c0,0,7.9-0.3,11.3-3.1c0,0-0.1,3.5,1.8,4.7l2.3,2.5l7.5,2c1.8,0.5,3.6,1.2,5.2,1.9
			c1.3,0.7,4.6,3.6,5.1,14.6l2-0.9C324.2,118.1,324.8,111.4,322.7,107.5z"/>
		<g id="XMLID_421_">
			<path id="XMLID_460_" class="st21" d="M301.9,43.7c2.3-4,4.5-8.6,7.7-11.8c2.9-2.9,6.8-5.2,10.6-6.5c4.7-1.6,7.1,1.2,10,4.6
				c1.6,1.9,3.3,3.8,4.9,5.8c1.4,1.7,3.4,3.4,4.1,5.5C326.8,39.8,314,40.4,301.9,43.7C303.7,40.4,313.8,40.4,301.9,43.7z"/>
			<path id="XMLID_459_" class="st22" d="M302.9,43.2c0.1-0.7,0.5-0.9,0.6-1.3c0.1-0.2,0.1-0.7,0.2-1c0.5-1.2,1.5-2.3,2.3-3.3
				c1.3-1.7,3.6-3.8,6-3.5c-0.7-1.6,1.2-2.3,2.4-2.8c1.5-0.6,3.8-0.2,5.4,0.3c1.8,0.5,3.1,1.4,4.9,1.1c0.8-0.1,1-0.4,1.8,0
				c0.5,0.2,1.2,1.5,1.8,0.8c-0.2-0.2-1.3-0.9-1.1-1.3c0.3-0.9,1.6,0.1,2,0.4c1.6,1.1,2.6,2.6,4.1,3.8c0.4,0.4,1.1,0.3,1.2,0.3
				c0.5,0.2,0.6,0.6,1.1,1.1c1,1,3,1.6,2.7,3.4c-1.4-0.7-2.2-1.2-3.2-2.4c-0.7-0.8-0.6-0.8-1.6-1.1c-0.7-0.2-1.4-0.7-2.2-0.9
				c-2.2-0.8-4.2-0.7-6.4-1.6c0.1,0.6,0.2,1.4,0.8,1.8c0.6-1.6,1.7,0.4,2.5,0.4c-0.2-1.3,7.1,0.9,6.3,2.7c-0.3,0.8-7.1-0.2-7.9-0.2
				C318.6,39.8,310.6,40.8,302.9,43.2C302.9,42.9,312.2,40.3,302.9,43.2z"/>
			<path id="XMLID_458_" class="st23" d="M304.4,42.5c0-1.6,0.9-1.7,2.1-2.2c1.2-0.5,1.8-1.5,2.9-2c1-0.4,1.5-0.8,2.5-1.3
				c0.3-0.2,0.7-0.4,1-0.5c0.4,0.2,0.6,0.1,0.7-0.4c0.5-0.2,0.7-0.3,1.3-0.3c0.8-0.1,2,0.2,1.3,1.2c-0.4,0.5-1.9,0.4-2.5,0.6
				C310.6,38.8,307.9,42.1,304.4,42.5C304.4,40.6,306.6,42.2,304.4,42.5z"/>
			<path id="XMLID_457_" class="st24" d="M308,42.1c3-3.5,8.2-4.4,12.5-4.9c5.1-0.6,10.7,0,15,3.2C326.3,41,317.2,41.5,308,42.1
				C311,38.7,317.2,41.5,308,42.1z"/>
			<path id="XMLID_456_" class="st23" d="M308,43.1c3-3.5,8.2-4.4,12.5-4.9c5.1-0.6,10.7,0,15,3.2C326.3,42,317.2,42.6,308,43.1
				C311,39.7,317.2,42.6,308,43.1z"/>
			<path id="XMLID_455_" class="st21" d="M307.8,56.8c1.3-4.9,2.9-10.6,7.6-13.1c5.3-2.8,10.6-0.4,15.5,1.9c1.9,0.9,4.7,1.5,5.9,3.3
				c0.6,0.8,0.6,1.9,1.3,2.6c0.9,1,1.7,0.5,2.9,0.2c2-0.5,3.9-0.8,5.9-1.1c2.1-0.3,3.2-0.4,2.2-2.8c-4-10.1-20.5-9-29-8.3
				c-8.4,0.7-22.1,1.4-27,9.8c-1.8,3-3,13.4,2.7,12c3.2-0.8,6.5-1.3,9.8-2c2.5-0.5,1.9-1.4,2.5-3.6C308,55.9,307.7,57,307.8,56.8
				C309,52.2,307.5,57.7,307.8,56.8z"/>
			<path id="XMLID_454_" class="st24" d="M349,47.7c-0.4-0.8-1-1.7-1.9-2.2c-0.6-0.4-1.4-0.3-1.3-1.1c-0.6,0.4-0.9,0.1-0.7-0.6
				c-0.3,0.4-0.8,0.6-0.9-0.1c-0.7,0.6-1.3-0.1-1.6-0.7c-0.3,0.4-0.7,0.6-0.8-0.1c-0.5,0.7-0.9,0-0.8-0.6c-0.3,0.4-1,1.2-1.2,0.2
				c-0.7,1-0.9-0.1-0.7-0.7c-0.3,1.2-0.3,0.4-0.9,0.5c-0.6,0.1-1.5,0.3-1.8-0.5c-0.8,0.9-1.3,0.1-2.1-0.1c-0.5-0.1-0.9,0.1-1.4,0
				c-0.3,0-0.6-0.4-0.9-0.4c-0.4-0.1-2.2,0-1.8,0.1c-0.6-0.2-1.2-1.1-1.6-0.1c-0.4-1.4-0.4-0.2-1-0.2c-0.4,0-0.4-0.6-0.8-0.4
				c-0.4,0.2,0.1,0.9-0.5,0.8c-0.3-0.1-0.2-0.8-0.4-0.8c-0.3-0.1-0.5,0.3-0.6,0.3c0.2,0-1.6,0.1-0.9-0.8c-0.6,0.8-1.9,0.9-2.9,0.9
				c0.2-0.1,0.3-0.2,0.4-0.3c0-0.1-4.2,0.7-4.4,0.8c0-0.3-0.1-0.5-0.3-0.7c-0.4-0.1-1.9,0.8-2.3,0.9c-0.2-0.4-0.4-0.5-0.5-0.3
				c-0.1,0.1-0.2,0.2-0.3,0.2c-0.5,0.1-1,0.3-1.5,0.3c-0.7,0.1-1.6,0-2.1,0.2c-0.4,0.1-0.7,0.6-1.1,0.7c-0.7,0.2-1.3-0.1-2.1-0.1
				c0.3,0.9-0.7,1.1-0.8,0.1c-0.1,0.3-0.4,0.5-0.7,0.5c-0.5-0.1-0.6,0-0.4,0.5c-0.2-0.2-0.3-0.3-0.5-0.4c-0.2,0.1-0.4,0.2-0.6,0.3
				c-0.7,0.1-1.6,0.5-2.1,0.6c-0.5,0.2-1.1,0.5-1.6,0.6c0.2-0.1-1,0.3-0.8,0.1c-0.1,0.1-0.9,0.7-0.6,0.5c-0.6,0.2-1.7-0.2-1.5,1
				c-0.9-0.5-0.5,0.4-0.9,0.7c-0.1,0.1-0.6,0-0.5-0.1c-0.3,0.3-0.5,0.7-0.7,1c-0.2,0.2-0.5,0.3-0.8,0.6c-0.9,1.1-1.6,2.7-2,4
				c-0.2,0.8-0.4,1.6-0.5,2.4c0,0.6,0,1.2,0.1,1.8c-0.1,0.9,0.2,1.1,0.8,0.7c0,0-0.2,1.3-0.2,1.3c0,0.5,0.3,1.1,0.5,1.5
				c0.8,1.5,1.6,1.4,3.1,1.2c3.7-0.4,7.4-0.5,11.1-0.7c-0.7-3.7,1.1-7.3,2.8-10.5c1.6-3,3.4-5,6.6-6.2c3.5-1.3,6.6-1.1,9.9,0.6
				c1.8,0.9,3.7,2,5.5,3c1.3,0.7,2.9,1.3,3.9,2.3c2,1.9,2.7,5.4,3.4,7.9c0.3,1.2,0.5,1.3,1.8,1.3c1,0,2.4,0,3.4-0.3
				c1.8-0.4,2.6-4.1,3.2-5.8c0.9-2.3,1.5-4.4,0.4-6.7c0.2,0.5,0.5,1,0.7,1.5C349.2,48.2,349.1,47.9,349,47.7
				C348.4,46.4,350.2,50.2,349,47.7z"/>
			<g id="XMLID_437_">
				<g id="XMLID_438_">
					<path id="XMLID_453_" class="st16" d="M299,79.4C299,79.4,299,79.4,299,79.4L299,79.4z"/>
					<path id="XMLID_452_" class="st16" d="M298.9,79.4C298.9,79.4,298.9,79.4,298.9,79.4C298.9,79.4,298.9,79.4,298.9,79.4z"/>
					<path id="XMLID_451_" class="st16" d="M298.9,79.4C299,79.4,299,79.4,298.9,79.4C299,79.4,299,79.4,298.9,79.4z"/>
					<path id="XMLID_450_" class="st16" d="M296.4,78.1C296.4,78,296.4,78,296.4,78.1L296.4,78.1z"/>
					<path id="XMLID_449_" class="st16" d="M298.3,82.9C298.3,82.8,298.3,82.8,298.3,82.9C298.2,82.9,297.6,83.2,298.3,82.9z"/>
					<path id="XMLID_439_" class="st16" d="M306.1,84.6c1.2,1.3,2.9,2,4.1,3.3c-0.2-0.8-0.5-1.6-1-2.2c0.3,0.2,0.7,0.5,1,0.7
						c-1.4-2.1-3.5-3.9-3.8-6.6c0.5,0.8,1.1,1.6,1.9,2c-2-2.3-2-6.5-1.8-9.4c0.1-1.8,0.4-3.6,0.7-5.3c0.4-1.9,0.4-2.9,0.6-4.7
						c0.4-3.4,1.2-6.5,2.9-9.5c1.5-2.7,1.7-5.3,4.4-7c2.1-1.4,5.1-2.3,7.6-1.8c3.2,0.7,6.2,3.6,9.1,5.1c0.7,0.4,1.4,0.7,2.2,0.8
						c0.6,0.1,1.4-0.1,1.9,0.2c1.1,0.5,1.4,2,1.9,3.1c1.7,3.4,2.7,6.7,3.6,10.4c0.3,1.5,0.9,3,0.6,4.6c-0.3,1.6-1.3,3.1-1.8,4.7
						c-1.3,3.8-1.7,7.8-2,11.8c0.9-0.7,1.7-1.4,2.8-1.7c0,1.6-0.9,3.2-2.2,4.1c1.1,1,2.3-0.7,2.7-1.5c0.6-1.2,0.7-2.5,0.1-3.8
						c2-0.5,6.1-4.4,4.9-6.9l0-0.1c0-0.1,0.1-0.2,0.1-0.3c0.5-2.1-0.8-4-0.2-6.3c-0.6,0.2-1.1-8.1-1-8.9c0.2-1.8,0.7-3.7,0.5-5.6
						c-0.2-1.7-1.3-2.5-2.4-3.7c-5.5-5.8-12.2-6.5-19.7-6.8c-4-0.2-7.4,0.6-11.1,2.2c-3.4,1.5-7,2.4-10.4,4c-2.6,1.2-6,3.4-7.2,6.1
						c-0.6,1.3-1.1,3.2-1.4,4.6c-0.1,0.6-0.2,1.3-0.2,1.8c-0.1,0.8-0.5,1,0.1,1.8c-0.5,0.2-1-0.1-1-0.7c-1.5,1.3,0.8,1.2,1.4,1.7
						c0.8,0.7,0.2,1.5-0.1,2.5c-0.4,1.4-0.5,1.8,0.4,2.8c0.3,0.3,1.5,1,0.2,0.8c0.2,1.1,0.3,1.6,0.2,2.7c0,1,0,2.6,0.3,3.6
						c0.5,1.8,2.6,3.4,4.4,2.4c-0.4,1.1-3.1,0.8-3.8,0.4c0.6,0.4-0.2,2.8-0.3,3.6c0,0.2,0.1,0.5,0,0.7c0,0.1-0.4,0.5-0.4,0.5
						c-0.1,0.7-0.5,1.2,0.7,1.7c-0.2-0.4-0.9-1.1-0.1-1.3c0.2,0.5,0.5,1,0.8,1.4c0.1-0.7-0.2-1.3,0.1-1.9c0.4-0.7,1.5-0.9,2.2-1.2
						c-0.8,1.7-0.7,3.4,0.3,4.9c0.7,1.1,1.8,2.9,3.2,3.1c-0.8-0.3-1.5-1-1.6-1.9c0.8,0,1.3,1,2.1,0.2c0.3-0.3,0.4-1.5,0.4-1.9
						c0,0,0.2-4.1,2.6-0.5C305.5,87.5,304.7,84.8,306.1,84.6z M298.7,79.5c0.1,0,0.1,0,0.2,0C298.8,79.4,298.8,79.4,298.7,79.5
						c-1,0.1-3.4-1.3-2-2.5c0.1,0.2,3,2.4,2.7,2.5C299.1,79.4,298.9,79.4,298.7,79.5z M298.5,79.5C298.5,79.5,298.5,79.5,298.5,79.5
						L298.5,79.5z M298.6,79.5C298.6,79.5,298.6,79.5,298.6,79.5C298.6,79.5,298.6,79.5,298.6,79.5z M298.3,82.8
						C298.4,82.8,298.4,82.8,298.3,82.8c-0.9,0.5-1.7,0.9-2.5,1.4c0-0.9,0-1.6,0.7-2c0,0,0.6,0.1,0.7,0.1c0.5-0.2,1-0.5,1.5-0.6
						C298.9,82.1,298.7,82.5,298.3,82.8z M298.8,84c0,0,0-0.2,0.3-0.8c1.1,0.1,0.2,1.8,0.2,2.6c0,1.1,0.1,2.2,0.4,3.2
						C298.3,87.7,298.3,85.7,298.8,84z M302.1,85.3c-0.7,0.5-0.5,4.3-1.9,3.6c-0.9-0.5-0.7-3-0.7-3.9c0.1-0.9,0.5-3.3,1.9-2.2
						c0.2,0.1,0.4,0.9,0.4,1.2C302,84.8,302.5,84.1,302.1,85.3z M339.8,87c0,0,1.2-1.4,1.8-3C341.6,84,342,85.9,339.8,87z
						 M345.6,71.7c0.5,0.9,0.8,1.9,0.8,3C345.5,73.2,345.6,71.7,345.6,71.7z"/>
				</g>
			</g>
			<path id="XMLID_436_" class="st18" d="M323.7,43.3c1.1,1.1,2.5,2.2,3.8,3c1.4,0.9,2.2,0.1,3.7,0.5c1.6,0.4,1.3,1.4,1.8,2.6
				c0.4,1,1.5,1.5,2.3,2.2c0.8,0.8,1.4,2,1.5,3.2c0.1,1.4,0.1,1.5,0.7,2.9c1,2.2-1.3,3.7-0.8,5.9c0.3,1.4,1.5,2.5,1.9,3.9
				c0.6,1.7,0.2,3.4-0.2,5.1c-0.8,3.4-1.3,7-3.3,9.9c-0.7,1-1.6,1.9-2.2,3c-0.6,0.9-0.3,0.9-0.2,1.8c0.1,1.2,0.1,3.2-0.1,4.4
				c-0.3,1.4-2.1,2.3-2,3.8c0.7-0.9,1.9-1.9,2.7-2.7c0.1,0.3,0.3,0.5,0.4,0.8c0.9-0.7-0.4-1.7,0.7-2.5c0.4,1.8,3.5,0.6,2.3-1.2
				c0.8-0.5,1.1,1,1.6,1.3c1.6,0.8,0-2.3,0-3c0.3,0.1,0.6,0.2,0.9,0.3c0-0.8,0.9-0.6,0.6-1.4c-0.1-0.3-0.7-0.3-0.7-0.6
				c-0.1-0.5,0.3-0.4,0.4-0.9c0.4-1.2,0.3-2.3,0.4-3.5c0.1-1.2,0.7-2.3,0.9-3.4c0.8,0.9-0.7,4.1,0.2,4.4c0.8,0.3,1.6-2.9,1.6-3.2
				c0.1-0.6-0.4-2.4-0.2-2.9c0.3-0.6,0.1,0,0.6-0.3c0.6-0.3,0.9-0.1,1.5-0.8c0.2-0.2,0.1-0.7,0.3-1c0.1-0.2,0.5,0,0.5-0.1
				c0.6-1.5-0.2-3.4-0.5-4.9c-0.3-2,0.1-4-0.6-5.9c-0.7-1.9-1.4-3.5-1.8-5.5c-0.4-2-0.6-4-1.7-5.7c-0.1,0.4-0.3,0.7-0.4,1.1
				c-1.3-1.5-1.7-3.6-2.8-5.3c-0.4-0.6-0.7-1.3-1-1.8c-0.3-0.5-1.2-0.9-1.3-1.6c2.6,1.4,5.2,3.3,6.9,5.8c1.3,1.9,2.8,5.1,2.7,7.4
				c-0.2-0.2-0.5-0.5-0.8-0.7c-0.8,1.6,3.2,6.7,1,7.8c0.5,0.6,1,1.2,0.9,2c0.5-1-0.1-2.1,0-3.1c0-0.6,0.2-1.2,0.3-1.8
				c0.3-1.7,1-2.9,1.7-4.4c1.7-3.3,2.7-6.9,1.1-10.4c-0.5,0.4-1.2,0.6-1.3-0.3c-0.4,1.5-2.4-0.8-3.1-1.2c-1.9-1.1-4.1-1.9-6.3-2.2
				c-2.2-0.4-4.5-0.4-6.8-0.8C328.9,42.9,326.2,42.6,323.7,43.3C324.7,44.3,327.9,42.1,323.7,43.3z"/>
			<path id="XMLID_431_" class="st16" d="M302.5,71.4c0.5,0.3,1,3.6,0.6,3.6C302.2,75.1,302.3,72,302.5,71.4z"/>
			<g id="XMLID_497_">
				<path id="XMLID_435_" class="st25" d="M306.3,56.4C305.5,57.1,307.4,56.6,306.3,56.4c-0.7,0.7-0.6,1.5-0.8,2.4
					c-0.2-1-0.9-2.6-1.1-0.7c-0.2,1.9,0.6,3.7-0.2,5.5c-0.8,1.8-0.8,2.7-0.3,4.6c0.3,1.2-0.1,1.2-0.3,2.2c-0.3,1.2,0.3,2.5,0.3,3.8
					c0.9-0.4,0.9-1.7,0.8-2.6c0.9,1.2-0.1,3.1,0,4.5c0.1,1.3,0.6,3,1.7,3.7c-0.6-2.1-1-4.3-0.9-6.5c0.1-0.9,0.6-1.8,0.7-2.6
					c0.1-1.7-0.6-0.8-1.2-0.2c0.3-1,0.8-1.7,0.8-2.8c0-0.6-0.7-1.4,0.6-1.1c-0.4-0.6,0.3-1.5,0.5-2.2c0.2-0.9,0.2-2.1,0.2-3.1
					C307,60.5,307.4,56.6,306.3,56.4z"/>
				<path id="XMLID_434_" class="st25" d="M296.1,60.2c1.6,0.2,1.7,1.3,1.4,2.6c-0.1,0.2-0.2,1.2-0.2,1.3c-0.1,0.3,0.2,0.9-0.6,0.8
					C295.8,64.9,295.8,60.3,296.1,60.2C297.3,60.4,295.8,60.3,296.1,60.2z"/>
				<path id="XMLID_433_" class="st25" d="M296.8,66c1.2,0.7,0.2,1.6,0.1,2.6c-0.1,0.8,0.6,2-0.3,2.6
					C295.9,69.4,295.9,67.7,296.8,66C298,66.7,295.9,67.8,296.8,66z"/>
				<path id="XMLID_432_" class="st25" d="M298,68.9c1.2,0.5,0.6,2.1,1,3.2C297.4,72.4,297.7,69.7,298,68.9z"/>
				<path id="XMLID_430_" class="st25" d="M299.4,79.9c0.6,0.3,1.8,1.6,0.8,2.1C299,82.6,299.2,80,299.4,79.9z"/>
				<path id="XMLID_429_" class="st25" d="M299.9,76.6c1,0.6,2.2,2.6,2.4,3.8c0.1,0.5-0.2,1,0.1,1.5c0.3,0.5,1,0.8,1,0
					c0.7,0.3,1.1,1.7,1.6,2.3c0.9,1.1,1.7,2.4,0.6,3.7c-0.6-0.4-0.9-1.4-1.7-1.2c-0.3,0.1-0.4,1.6-1.1,1.1c-0.6-0.4,0.3-2.8,0-3.6
					c-0.3-0.9-1.1-1.5-1.4-2.4c-0.2-0.8-0.1-1.3-0.4-1.9C300.9,79.5,299.3,76.8,299.9,76.6C300.8,77.2,299.4,76.7,299.9,76.6z"/>
				<path id="XMLID_428_" class="st25" d="M303.7,58.6c0.2,0.7,0.1,1.7-0.7,1.7C303,60,303.4,57.9,303.7,58.6z"/>
			</g>
			<path id="XMLID_427_" class="st26" d="M333.7,44.8c2,1.6,3.8,3.6,4.8,6c1,2.3,1.5,4.7,2.7,6.8c0.5,1,1.1,1.9,1.3,3
				c0.3,1.4,0,2.8,0.2,4.2c0.4,2.6,1.6,5.1,0.1,7.6c2.4-1.3,1.5-4.9,0.9-7c-0.8-2.9-0.4-6.1-1.8-8.8
				C339.7,52.1,339.4,45.7,333.7,44.8C335,45.9,337.1,45.3,333.7,44.8z"/>
			<path id="XMLID_426_" class="st26" d="M313.9,45.3c-1.3,5.5-2.7,11.2-4.8,16.5c-1,2.4-2.1,4.7-2.6,7.3c-0.6,2.9-0.5,6-0.1,8.9
				c-2.6-4.9-0.5-11.2,1.3-16c1.1-2.9,2.2-5.7,3.2-8.7C311.6,50.9,311.8,47.1,313.9,45.3C312.6,50.5,312.7,46.3,313.9,45.3z"/>
			<path id="XMLID_425_" class="st18" d="M315.3,44.6c-5.3,0.3-10.7,2.1-15.1,5.2c-1.5,1.1-3.3,2.3-3.9,4.2
				c-0.1,0.5-0.4,1.7,0.3,1.9c0.7,0.2,1-0.9,1.5-1.1c0.9-0.2,0.6,0.3,0.2,0.9c-0.7,1-1.7,0.4-2.5,0.8c-0.8,0.3-1.7,1.8-1.8,2.7
				c-0.1,1.4,0.9,3.6,2,1.8c0.5-0.8,0.6-1.5,1.1-2.3c0.9-1.1,1.8-2.3,2.6-3.4c0.8,1.1-0.1,2.2-0.2,3.3c0,0.7,0.2,1.2,0,1.9
				c-0.1,0.3-0.6,0.5-0.7,0.9c-0.3,0.8-0.1,1.9,1,1.2c0.5-0.3,1-1.9,1-2.4c0-1-0.7-1.4-0.3-2.5c0.1-0.4,0.7-0.7,0.9-1.2
				c0.2-0.3,0.1-0.9,0.3-1.2c0.5-0.7,1-0.2,1.6-0.5c0.7-0.4,0.2-1.3,0.9-1.5c0.6,1.9,1,2.4,2.7,1.7c0.5-0.2,0.4,0.4,0.8-0.6
				c0.4-0.9,0.2-1.9,0.9-2.7c0.1,0.4,0.1,0.7,0.2,1.1c0.7-0.5,0.8-1.4,1-2.1c0.7,0.9,1.5-2.1,1.7-2.5
				C312.4,46.6,313.8,45.6,315.3,44.6C312.4,44.8,314.2,45.4,315.3,44.6z"/>
			<path id="XMLID_424_" class="st26" d="M302.3,53.1c0,0-4.7,5.7-1.9,15.4C300.4,68.5,299.4,59.6,302.3,53.1z"/>
			<path id="XMLID_423_" class="st26" d="M302.4,58c0,0-2.3,8.4,0.6,18.4C303,76.5,301.6,65.6,302.4,58z"/>
			<path id="XMLID_422_" class="st22" d="M313.8,30.5c2-0.5,3.4-0.1,5.4,0.2c0.9,0.1,1.7,0.3,2.6,0.5c1.6,0.4,2.4,0.2,1.9-1.9
				c-0.8-2.9-3.1-3.8-5.5-2c-0.9,0.7-1.8,1.5-2.9,1.9C315.1,29.2,311.9,30.5,313.8,30.5z"/>
		</g>
		<path id="XMLID_420_" class="st5" d="M303.9,85.6c-1.3,0.1-0.9,2.6-0.9,2.6c1.1-1.4,2,0.5,0.6,1.4c0.3,0.4,1.2,0.6,1.4,1
			c0.2,0.6-0.6,0.6-0.4,1.2c0.2,1,1.4,1.2,1.5,2.2c0.1,1.2-0.5,1.4,0.8,2.2c0.7,0.5,2.5,1.8,3.4,1.7c-1.6-2-3.3-4.1-3.9-6.5
			c-0.3-1-0.8-3.1-0.8-4.8C305.2,86.1,304.6,85.5,303.9,85.6z"/>
		<path id="XMLID_389_" class="st10" d="M320.3,68.1c0,0-2.6,1.5-1.3,3.2c1.3,1.6,2.1,0.4,2.1,0.4s1.5-0.5,2.2,0.7
			c0,0-0.3,0.3-1.3-0.1c-1-0.3-2.3,0.6-3.3-0.6C317.5,70.1,318.8,68.5,320.3,68.1z"/>
		<path id="XMLID_387_" class="st8" d="M326.5,72.5c0,0,0.8-1,1.7-0.3c0,0,1.4,0.5,1.8-0.8c0.3-1.3-1.3-2.4-1.9-3.2c0,0,1,1,1.4,1.3
			c0.4,0.3,1.7,2.3,0.2,2.8C328.1,72.8,327.5,72.5,326.5,72.5z"/>
		<path id="XMLID_383_" class="st6" d="M329.6,72c-0.7-0.6-1.3-0.4-1.9,0c0.1,0,0.3,0.1,0.4,0.2C328.1,72.2,329.1,72.6,329.6,72z"/>
		<path id="XMLID_513_" class="st5" d="M323.6,108.5l-0.2-2.1c-0.6-0.4-1.1-0.9-1.8-1.3l-0.7-0.5l0,0c1,2.4,3,7.9,2.9,13.6
			c0.4-0.2,0.9-0.4,1.4-0.7C325.3,114.8,323.9,111.2,323.6,108.5z"/>
	</g>
	<g id="XMLID_512_">
		<path id="XMLID_385_" class="st1" d="M320,120.4l-0.2-0.1c-6.2-2.2-15.3-7.6-22.6-13.4c-5.2-4.1-13.8-12-13.8-18.7V21h73.1v67.3
			c0,6.6-8.7,14.5-13.8,18.7c-7.3,5.8-16.3,11.2-22.6,13.4L320,120.4z M284.4,22v66.3c0,4.6,4.8,10.9,13.5,17.9
			c7.1,5.7,16,10.9,22.1,13.2c6.1-2.2,15-7.5,22.1-13.2c8.7-6.9,13.5-13.3,13.5-17.9V22H284.4z"/>
	</g>
</g>
</svg>
