<?xml version="1.0" encoding="utf-8"?>
<!-- Generator: Adobe Illustrator 20.0.0, SVG Export Plug-In . SVG Version: 6.00 Build 0)  -->
<svg version="1.1" id="Layer_1" xmlns="http://www.w3.org/2000/svg" xmlns:xlink="http://www.w3.org/1999/xlink" x="0px" y="0px"
	 viewBox="0 0 720 720" style="enable-background:new 0 0 720 720;" xml:space="preserve">
<style type="text/css">
	.st0{fill:#FF9800;}
	.st1{fill:#2196F3;}
	.st2{fill:#808285;}
	.st3{fill:#494949;}
	.st4{fill:#DFAE9E;}
	.st5{fill:#F6CDC2;}
	.st6{fill:#C69482;}
	.st7{fill:#714C36;}
	.st8{fill:#AE8174;}
	.st9{fill:#56392E;}
	.st10{fill:#FDE5E1;}
	.st11{fill:#FDDAD0;}
	.st12{fill:#8D6452;}
	.st13{fill:#6D6E70;}
	.st14{fill:#89664D;}
	.st15{fill:#755743;}
	.st16{fill:#5B4436;}
	.st17{fill:#4C382E;}
	.st18{fill:#3E2B20;}
	.st19{fill:#35241C;}
	.st20{fill:#493226;}
	.st21{fill:#735642;}
	.st22{fill:#EDCCC5;}
	.st23{fill:#51372A;}
	.st24{fill:#BDA5A0;}
	.st25{fill:#F2D1C9;}
	.st26{fill:#263238;}
</style>
<g id="XMLID_506_">
	<path id="XMLID_507_" class="st0" d="M608.4,24.5c0,188.1,0,318.2,0,455.7c0,73.5-167.9,186.9-248.4,215.2v-671L608.4,24.5
		L608.4,24.5z"/>
</g>
<g id="XMLID_504_">
	<path id="XMLID_505_" class="st1" d="M111.6,24.5c0,188.1,0,318.2,0,455.7c0,73.5,167.9,186.9,248.4,215.2v-671L111.6,24.5
		L111.6,24.5z"/>
</g>
<g id="XMLID_377_">
	<path id="XMLID_503_" class="st2" d="M558.6,497.3c-55.3-26.4-77.6-32.6-77.6-32.6l-272.8-1.6c0,0-62.4,14.8-90.3,43.8
		C149,578.6,288.7,670.4,360,695.5l0,0c66.1-23.3,190.9-103.8,233.7-172.5C586.3,514.3,575.2,505.3,558.6,497.3z"/>
	<path id="XMLID_502_" class="st3" d="M155.1,538.9c0,0,36.9,0.8,61.9-10.9c0,0-0.4,14,10.8,19.8l21.1,22.9l88,8.9l-140.2-92.4
		L155.1,538.9z"/>
	<path id="XMLID_466_" class="st3" d="M530.2,529.9l13.8,15.5c0,0-22.7,5.3-33.8-3.3c-0.6-0.4-1.1-0.9-1.6-1.4
		c0,0-1.5,9.3-10.8,11.3c-4.6,1-15.2,10.3-34.6,11.1c-19,0.8-47.4,18.7-47.4,18.7l87.5-71.4L530.2,529.9z"/>
	<g id="XMLID_469_">
		<path id="XMLID_501_" class="st4" d="M319.8,200.5c-13.8,11.8-28,23.3-41.6,35.4c-10.9,9.8-12.3,19.4-15.1,33.8
			c-3.8,19.8-7.6,39.5-11.2,59.3c-3.1,17.4-7.9,35.8-5.7,53.6c4.1,32.9,22,65.3,43.7,89.7c23.2,26,45.7,49.5,82.5,51.2
			c35.2,1.7,66.8-17,91.7-40.9c23.7-22.8,31.8-59.7,38.8-90.7c3.6-15.9,9.6-33.3,9.1-49.8c-0.6-18.6-6.7-37-8.5-55.5
			c-1.2-13.3,0.1-27.2-4.8-39.9c-5.7-14.5-15.8-29.6-24.9-42.1c-21.8-30.1-50.7-36.2-85.2-42.2c-14.5-2.6-32.1-10-44.5,0.9
			C333,172.9,327.3,188.1,319.8,200.5C307.6,210.9,327,188.6,319.8,200.5z"/>
		<path id="XMLID_500_" class="st5" d="M354.4,363.6c0,7.8-12.7,8-3,12.9C363,382.3,367,369.7,354.4,363.6z"/>
		<g id="XMLID_495_">
			<path id="XMLID_499_" class="st6" d="M444.3,180.7c0,0,0.6,0.4,1.5,1C448.1,182.3,444.3,180.7,444.3,180.7z"/>
			<path id="XMLID_496_" class="st6" d="M501.9,331.5c-1.4-23.3-2.8-46.6-3.4-70c-0.5-20.8-7.6-35.3-21-51
				c-23.4-27.4-58.5-46.8-94.6-48.4c-26.9-1.2-59.5-2.3-81.5,16.5c-11.3,9.7-13,21.4-16.4,35.2c-4.3,17.6-18,31-26.4,46.7
				c-20,37.7-16.7,78.9-10.3,119.8c3.1,20.1,6.9,40.1,10.2,60.2c3.4,20.7,2.7,43.2,7.3,63.4c4,17.3,16.7,31.1,28.2,43.9
				c13.4,15,21.8,21,41.5,22.1c15.3,0.9,25.1,13,40.3,15.3c14.1,2.2,29.2-2.6,38.3-14.1c5.6-7,7.2-15.5,10.1-23.7
				c3.8-10.5,8.8-20.6,13.6-30.7c9.7-20.7,21-38.3,33.2-57.5c11.6-18.2,22.9-38.1,28.6-59.1C505.8,377.9,503.3,354.4,501.9,331.5z
				 M462,375.8c-5.8,2.5-14.9-8.8-20.4-4.8c-3.3,2.4,2.4,9.3-5.3,10c-6.3,0.6-7.9-7.4-11.6-10.5c-12.4-10.8-18.6,3.7-30.6,2.2
				c-6.8-0.9-9-4.2-15.5-7c-7.5-3.3-21-5.7-28.8-5.1c2.1,7,15.7,12,11.5,19.8c-2.3,4.3-16.6,6.5-20.8,4.9c-11.2-4.4,0.4-15-5.3-19.8
				c-4-3.4-27,13.1-29.3,17.3c-7.3,13.1,19.2,32.6,21.4,23.9c14.1,8.4,23.3,11.7,39.9,13.3c8.6,0.8,17.7,2.2,26.1,4.4
				c5.1,1.4,10.6,6.3,15.2,7c4.3,0.6,22.3-6.4,11.1,2.1c-9.6,7.3-25.8,3.7-36.6,4.1c-6.8,0.3-15.6,2.7-13.7,11.8
				c1.8,8.4,12.9,7.2,13.2,16.9c0.3,12.8-13,10.1-21.6,11.6c-12.4,2.2-22.7,1.8-31.1-8.8c-5,5.4-3.6,7.6-10.5,4.7
				c-4.3-1.9-9-9.1-11.9-12.7c-4.7-5.8-10.3-12.5-12.6-19.7c-1-3.3-1.2-5.3-0.7-8.5c0.2-1.2,3.5-1.7,3.6-1.5
				c-1.3-7.6-13.5-9.2-17.1-16.7c-4.4-9-5.5-19.5-3.2-28.8c3.1-12.6-4.8-20.1-5.3-33c-0.5-14.3,6.7-27.1,16.8-36.5
				c3.5-3.2,8.2-8.6,12.5-10.8c5.5-2.8,8.5,0.6,11.6-0.3c4.8-1.4,3.8-5.5,5.6-6.8c4.7-3.5,12.4-2.3,17.1,3.1c-6,0.3-13.5,2-17.9,6.4
				c3.7-0.7,9.9-2.2,12.1,2.3c-6,2.3-14.5-0.7-19.6,4.1c12.6,5.7,27.3-0.5,39.8-3.8c8.5-2.3,19.6-6.8,22.8-16.3
				c2.3-7.1-1.7-7-2.9-12.5c-1.6-7.2-0.3-7.3,2-14c3.7-10.8,1.6-14.1-9.4-20.6c-10.5-6.1-48.7-17.9-18.4-24.8
				c22.5-5.1,43.4-17.2,67.1-11.2c10.3,2.6,20.3,7.2,28.9,13.5c5,3.6,21.9,18.5,18.2,26.4c-2.8,6-11.3,2.6-17.1,3.6
				c-10.3,1.8-13.8,7.9-17.4,17.1c-7.9,20-14.2,40.3,8.6,52.8c13,7.1,37.7,8.9,41.5,26.5C473.7,350.8,478,368.9,462,375.8z"/>
		</g>
		<path id="XMLID_494_" class="st4" d="M367.5,393.7c-3.7-0.2-5.7-0.2-9.1-1.5c-3-1.1-4.2-4.1-7.7-4.5c-1.6-0.2-2.6,1.5-4.4,1.5
			c-3.4,0.1-6.8-0.1-10.1-1.1c0.4,1.2,0.9,2.6,1.3,3.8c6.1,8.7,27.7,9.9,35.1,10.5c18.4,1.5,31.5,8.1,48.6-3.3
			C403.7,394.8,385.3,394.7,367.5,393.7z"/>
		<path id="XMLID_493_" class="st5" d="M335.3,407.2c-2.3,5.3-7.8,11-9.5,16.2c-1.5,4.8-1.6,10.7-3.2,16.1
			c-3.4,11.2,1.3,21.8,10.9,29.7c8,6.6,49.6,8.1,39.7-8.6c-4.2-7-21.7-10.9-18.6-23.1c3.6-14.1,24.8-4.4,32.2-11.2
			C398.8,415.6,348.8,394.9,335.3,407.2C333.4,411.6,342.1,401,335.3,407.2z"/>
		<path id="XMLID_492_" class="st7" d="M364.6,370.8C364.6,370.8,364.7,370.8,364.6,370.8c1.2-0.7,4.9-0.7,6.1-0.5
			c6.8,1.3,14.9,5.1,18.5,11.7c0,0,7.7,22.5-6.1,15.1c0,0-9.6-0.4-10.8-12c0,0-1.9,8.5-7.7,8.2c-5.8-0.4-11.1,0.4-19.6-3.5
			c0,0-3.8,5-12.3,2.3c0,0-3.1-0.8-6.9,2.7c0,0-10.8,3.1-15.4-3.1c-1.1-1.4,0.3-5.5,0.8-6.9c1.1-2.9,3.6-7.2,7.2-6.8
			c2.1,0.2,3.9,2,4.2,4.1c1.2-1.2,2.5-2.4,4-3.2c1.5-0.8,3.4-1.1,4.9-0.4c1.4,0.6,2.3,2.2,2.4,3.7c1.4-1.2,3.8-3,5.8-1.9
			c1.3,0.7,2.2,1.9,3.5,2.5c4.1,1.8,7.4-3,10.2-4.9c0.1,0.6-0.3,2.5-0.1,2.9c1.4,2,2.5,1.5,4.2,0.3c1.8-1.3,3.2-2.9,4.4-4.8
			C362.8,375.1,363.6,371.5,364.6,370.8z"/>
		<path id="XMLID_488_" class="st8" d="M514,321c-2.5-21.3-7.9-42.1-14.2-62.5c-5.7-18.7-9.9-40.9-22.8-56.2
			c-18.8-22.3-55.3-29.3-82.8-31.6c-17.4-1.4-36.8,5.1-53.9,8.2c-20.9,3.7-34.7,10.6-48.9,26.3c-12.9,14.3-18.7,31.6-25.7,49.3
			c-8.6,21.6-13.5,42.9-15.9,66.1c-2.2,21.8-5.1,44.1-5.8,66c-0.7,22.7,5,44.9,6.4,67.5c2.4,38.2,8,77.5,37.9,104.7
			c10.6,9.6,23,11.5,35.9,16.4c14.1,5.4,27.6,16,41.8,21.3c11.6,4.4,22.2,12.7,32.6,4c5.2-4.4,10.4-18,15.1-23
			c5.7-6.1,7.2-10.4,9-19.4c2.1-10.3,1.9-18.6,6.7-28.2c5-9.9,10.3-19.5,15.2-29.4c4.3-8.8,8.6-12,17.3-15.9
			c9.9-4.4,13.6-11.3,18.9-20.6c11.9-20.9,23.7-40.5,27.5-64.7C512.2,373.8,517,346.8,514,321z M461,421.8
			c-3.6,8.4-0.8,20.1-7.9,25.4c-2.2,1.6-6.8,1.3-9.3,3.1c-0.2,0.9-0.1,1.9,0.3,2.8c-0.4,2.5-2.1,3.9-5,4.2c-1.9,1.6-5,0-7.2,1.9
			c-4,3.5-3.4,8.7-6.2,12.5c-5.2,7.1-14.7,2.4-18.9,9c-8.2-13.1-17.3,1.6-26.1,4.6c-9.1,3.2-18.6-1.3-28.1-2.4
			c-12.1-1.4-33.1-3.4-21.3,14.3c4.8,7.2,9.2,12.8,17.8,13.4c14,0.9,28-0.6,42,2.5c3.3,1,6.7,2,10.1,2.9c4.2,2.4,6.3,1.4,6.1-3
			c4-1.5,5.2-5.9,10.5-2.7c8.2,5.1-4,22.3-6.7,28.1c-2.7,5.9-5.2,11.2-4.6,17.8c0.3,2.6,3.1,6.9,1.9,9.5
			c-1.6,3.4-13.9,11.3-17.1,13.7c-10.1,7.4-18.6,2.5-29.1-2.5s-20-5.4-30.9-8.8c-6.7-2.1-8.7-5-13.1-10.1
			c-3.7-4.4-9.5-7.2-12.9-11.6c-4.4-5.8-3.6-10-10.3-14.7c-3.1-2.2-9.5-3.9-12.1-6.5c-5.1-5-1.4-4-1.6-11.8c-0.1-5-3.4-6.8-4.2-11.2
			c0.5-2,1-4.1,1.7-6c-0.6-2.9-1.6-5.6-2.9-8.2c4.5,3.7,9.7,6.9,15.6,7.6c-4.3-3.3-10.3-7.8-9.8-14c4.5,2.9,11.7,8.1,17.3,4.7
			c-1.7-1.8-3.4-3.5-5.2-5.2c2.5-0.2,5-0.4,7.5-0.6c-11.2-6.7-17.7-19.4-24.2-30.3c4.3,5.3,10.1,9.3,16.7,11.1
			c-28-24-21.9-65.1-24.2-97.3c-2.1-30,8.8-61.8,42.6-66.4c-3.2-2.5-6.8-4.6-10.4-6.4c5.2-4.6,12.1-3.8,18.4-4.1
			c-3.8-7.6-13.9-4.8-20.3-8.6c-4.9-2.9-13.7-9.8-13.7-16c0-14.6,25.4-8.6,33.7-6.7c10.4,2.4,33,15.8,41.9,8.2
			c11-9.3-30.9-25.3-36.6-26.5c-7.7-1.7-17.9,0.5-17.5-10.7c0.4-10.2,12.4-16.3,20.2-19.9c9.2-4.2,19.4-7.6,29.2-10.3
			c16.3-4.6,31,0.8,47.3,1.1c21.9,0.5,33,6.5,46.5,23.7c7.5,9.6,24.2,32.7,4.4,37.8c-5.6,1.5-28.3-0.8-23.6,12.2
			c2.8,7.7,16,5.5,22,5c5.3-0.4,17.4-3.2,16.1,5.3c-0.7,4.4-8.1,6.7-10.6,9.4c-4.8,5.2-0.6,9-10.6,3.6c6.5-9.4,2.3-9-7.4-7.4
			c-6.5,1.1-16.5,2-16.8,10.9c-0.2,7.4,6.6,8.2,12.8,10.2c8.2,2.7,11.3,3.8,16.6,11.3c-3.8,3.8-13.9-1.2-17.9-2.3
			c13.8,12.7,35.8,15.5,43.5,34.6C490,378,470.4,399.5,461,421.8z"/>
		<path id="XMLID_491_" class="st7" d="M376.8,434.8l-6.1,1.6l-6.1,3.2l-2.3,6l0.4,3.6l5.8,1.2l6.1-0.4l5-1.6l0.2,3.6l-3.3,4.8
			l-6.1,2l2.3,3.2v2.8l-4.2,0.8l-3.1,4.8l-7.7,0.4l0.8-5l-6.6,3.8l-1.5,3.6c0,0-1.2-0.8-2.3-1.6c-1.2-0.8-2.7-3.2-2.7-3.2l-1.9,1.2
			c0,0,0,2-1.5,1.2s-4.6-3.2-4.6-3.2H335l-5-1.2l-2,5.6l-1.5,6.8l0.4,3.6l3.5,8l2.3,5.6l3.5,3.6l5,6l3.5,1.2l6.9,0.4l7.7,2.4h5
			l7.7,0.8l2.3,1.2c0,0,2.3,0.4,3.5,0.4s2.3-0.8,3.5-0.8s4.2-1.6,4.2-1.6s4.2,0,5.4-0.4c1.2-0.4,3.8-1.2,3.8-1.2s1.9-0.8,3.5-0.8
			c1.5,0,4.2,0.8,5.8,0c1.5-0.8,6.1-1.2,6.1-1.2h4.2l3.1-0.4l3.8-1.6l2.7-1.6l6.9-4.8c0,0,2.7-1.6,3.8-3.2c1.2-1.6,2.7-3.6,2.7-5.2
			s2.3-7.2,2.3-7.2s1.9-2.4,2.3-4s1.9-2.4,1.2-4s-2.7-5.2-2.7-5.2l-0.8-5.2l-0.8-6.8l-2.7-1.6l-1.1,2.7l-2.7,1.7
			c0,0,0.5,1.2-1.7,0.8c-2.2-0.4-4.5,0-5.6,0c-1.2,0-5.8-2-5.8-2l-1.5-2c0,0,3.1-6.4,4.6-7.2s4.2-0.8,4.2-0.8s0-0.8-1.5-2.8
			s-3.1-3.6-3.1-3.6l-6.5-6.4l-7.7,0.8l-9.2,0.8h-8.1C390.3,437.2,381.5,438.8,376.8,434.8z"/>
		<path id="XMLID_486_" class="st4" d="M334,259.7c5.6,2.4,21.2,5.1,23.9,11.1c6,13.2-17.5,6.6-23.1,4.5c-10.6-4-31.8-2.3-34.1-15.4
			C300.8,259.9,299.6,245.2,334,259.7z"/>
		<path id="XMLID_485_" class="st9" d="M383.8,441.6c6.6,0,16.6-4.3,22.8-0.9c5.6,3,6.3,8.3-0.9,10.2c2.2,1.7,4.7,2.5,7.5,2.3
			c-1,8.8-4.4,7.2-10.6,5.8c-7.5-1.6-6.8-2.5-14.6-0.3c-21.5,6.3-6.8-10.9,0.4-9.6C386.8,447.4,380.2,444.7,383.8,441.6
			C390.1,441.6,380.2,444.7,383.8,441.6z"/>
		<path id="XMLID_484_" class="st9" d="M329.6,380.5c-4.2,3.3-25,4.9-12.4,9.6C322.7,392.1,338,383.8,329.6,380.5z"/>
		<path id="XMLID_483_" class="st5" d="M294.1,310.9c-20.5,11.6-34.4,54.7-0.9,59.5c23,3.3,42.5-24.3,64.6-25.5
			c-21,17.5,0.7,25.9,12,16.1c6.4-5.6,24.9,15.2,39.7,2c11.4-10.2,0.1-24.8-2.5-35.4c-1.8-7.7-0.5-15.8-1-23.7
			c-0.4-7.1,0.1-17.6-7.9-20.2c-12.1-3.9-16.8,11.5-23.7,17.5c-9.4,8.1-26.9,9.3-38.5,12.3C335.9,313.6,309.1,317.3,294.1,310.9z"/>
		<path id="XMLID_482_" class="st10" d="M393.7,295.7c2.1,0.7,5.1,3.9,5.8,6.1c1.6,4.5,1.6,9.4,2.3,14.1c0.9,6.4,1.4,12.9,1.5,19.4
			c0.2,11.7-3.3,15.8-14.5,16.8c-8.2,0.7-22.3,4.1-29.9,1.5c3-2,3.9-6.3,7-8.1c1.9-1.1,5.4,0.6,7.4-0.7c5.2-3.4,5.6-7.4,8.1-12.5
			c3.1-6.6,6.5-10.2,6.8-17.8c0.2-4.2-0.6-8.3-0.1-12.4"/>
		<path id="XMLID_481_" class="st11" d="M315.7,320.6c-9.5-0.4-18.6-2.1-26,5c-6.3,6-10.2,16.5-1.5,22.1c6.3,4.1,16.2-1,20.1,7.7
			c4.9-4.1,9.7-8.6,15.4-11.6c4.8-2.6,10.9-2.9,15.4-5.7c8.3-5,5.7-8.5-0.2-15.9C334.2,319.3,315.7,320.6,315.7,320.6z"/>
		<path id="XMLID_480_" class="st10" d="M337.1,455.6c10.5,0,19.5,6.7,30,7C368.2,474.8,328.4,459.1,337.1,455.6
			C347.9,455.6,326.7,459.8,337.1,455.6z"/>
		<path id="XMLID_479_" class="st6" d="M324.2,400.3c0,0,43-1.7,50.3,1.4s17.7,1.7,22.3,0.2s18.8,2.3,42.3-1.9
			c0,0-16.5,29.9-30.4,34.9c-13.8,5-21.9,1.6-30.4,3.5C369.9,440.3,355.3,435.2,324.2,400.3z"/>
		<path id="XMLID_478_" class="st4" d="M337.9,405.5c-0.5,1-3.8,4.6-2.6,1.8c-0.5,1.1-1.1,2.1-1.7,3.2c10,10.4,18,17.3,24.5,21.6
			c7.3-5.5,30.5,5.5,36.8-4.5C403.1,414.7,353.8,409.6,337.9,405.5z"/>
		<path id="XMLID_477_" class="st9" d="M389.4,390.2c0.5-7-4.4-12.9-11.7-14.7c-3.9-0.9-12-0.8-11.3,3.4c0.5,0.7,0.9,1.4,1,2.3
			c0.1,0.6,0,1-0.2,1.4C368,389.3,388.4,403.7,389.4,390.2z"/>
		<path id="XMLID_476_" class="st7" d="M355.3,408c-8.9-4-18.1-10.9-28.4-10.2c-0.3,0-0.8,0-1.4,0.1c-1.1-0.1-1.8,1.1-1.2,2.2
			c1.1,6.4,16.8,13.7,19.4,14.9c12.4,5.5,27.1,7,40.6,6.2C374.6,415.9,365.3,412.5,355.3,408z"/>
		<path id="XMLID_475_" class="st7" d="M456.4,387.4c-3.9-7.7-16.4-1.5-22.8-3c-10.3-2.4-15.2-10.9-26.5-6.7
			c-10,3.7-17.3,12.7-5.1,18.2c11.9,5.3,25.9-2.8,38.3,0.3c-15.7,6.8-28.6,20.9-46.1,23.3c8.7,4.4,18.1,4.1,26.6-0.6
			c6.9-3.8,11.4-12.2,18.3-15.5s10.5,3.7,16.4,0.5C460.8,401,459.9,391.4,456.4,387.4C452.4,379.4,460.7,392.3,456.4,387.4z"/>
		<path id="XMLID_474_" class="st9" d="M327.6,401.8c0,0,5.4-0.8,8.5,0s14.6,4.7,14.6,4.7s45.3,19.5,76.8-3.4c0,0,15.8-7.2,6.1,1.7
			c-9.6,8.9-33.9,25.8-72.8,13.9C321.8,406.9,327.6,401.8,327.6,401.8z"/>
		<path id="XMLID_473_" class="st9" d="M397.6,380.8l-2.3,5c0,0-3.8,7.4-0.4,10.5l6.9,0.4l6.1-0.4l5-0.4l6.5-0.8l2.3,1.9l4.2-0.8
			l2.7-2.3l6.1-0.8l4.2,0.8l4.2,1.2c0,0,3.8,3.9,3.5,9.3c0,0,7.3,8.9,11.5-3.1c0,0,5.8-12-5.4-17.1l-1.2,3.9l-4.2-5l-2.3,2.7
			c0,0-2.7-5.4-8.1-8.2c0,0,5.8,15.5,0.8,12.4s0.4-10.1-10.4-11.6l-5.8-0.8l-5.4-1.2l-5-1.2l-5.4,0.4l-2.3,3.1L397.6,380.8z"/>
		<g id="XMLID_470_">
			<path id="XMLID_472_" class="st11" d="M372.2,411.3c-3.8-2.6-11.2-2-11.2-2c-3.8-3.3-9.6-2.5-9.6-2.5c-2.7-1.8-7.5-1.9-7.5-1.9
				c-2.3,2.2-1.2,7.4-1.2,7.4c2,1.1,4.3,1.5,7,2.4c1.1-0.7,2.1-1.6,2.2-2.7c0,0,0.5,1.9,1.5,3.9c2.3,0.7,4.9,1.4,7.6,2
				c1-0.9,1.9-2.2,2.1-3.7c0,0,0.2,2.2,0.7,4.6c2.1,0.4,4.4,0.9,6.6,1.3c1-1,1.9-2.3,2.1-3.5c0,0,0.3,2.1,0.7,4
				c2.9,0.5,5.9,0.9,9,1.1c2.3,0.2,4.6,0.2,6.9,0.1l0.1-8.1C379,413.5,372.2,411.3,372.2,411.3z"/>
			<path id="XMLID_471_" class="st11" d="M390.7,413.8l-0.1,7.9c4.3-0.3,8.7-0.9,12.5-1.7c0.7-1.3,1.2-2.8,1-3.9
				c0,0,0.4,1.6,1.2,3.5c1.7-0.4,3.2-0.8,4.5-1.1c1.2-1.5,1.4-3.2,1.2-3.7c0,0,0.6,1.5,1.4,2.8c1.6-0.5,2.6-0.9,2.6-0.9l1.1-7.1
				C406.8,412.8,398,413.8,390.7,413.8z"/>
		</g>
		<path id="XMLID_386_" class="st9" d="M496.7,307.7C494.4,295.2,498.6,318.4,496.7,307.7L496.7,307.7z"/>
		<path id="XMLID_463_" class="st9" d="M479.3,418.2c-7,16.9-16.6,34-30.6,46c-6.4,5.5-14.1,8.3-20.3,14.1
			c-6,5.6-10.3,10.3-18.9,11.6c-6.7,1-12.9-2.9-19.2-1.5c-8.6,1.9-5,6.8-9.1,9.8c-5.3,3.9-23.7-4.3-28.6-8.8
			c0.3,10.4-15.3-0.8-19.6-1.2c-0.6,6.1,1.7,9.3,5.5,13.2c1.6,0.6,3.2,1.2,4.8,2c1,1.8,2,3.5,3,5.2c6.6,4.6,20.2,5.4,28.1,5.4
			c10.6,0,22.9-3,33.2-5.9c5.3-1.5,10.4-3.4,15.2-6.1c1.9-1.1,13.3-11.6,14-11.4c12.3,2.8-26.1,61.9-16.7,74.6
			c12.3-43.8,41.1-79.9,55.7-122.7c7.4-21.7,16-43.3,21.3-65.7c1.6-6.7,3.3-13.8,4.4-20.8l-4.4,1.9
			C494.1,379.9,481.6,412.6,479.3,418.2z"/>
		<path id="XMLID_487_" class="st12" d="M496.7,307.7C498.6,318.4,494.4,295.2,496.7,307.7c-4.4-23.7-4.9-55.1-17-76.3
			c-10.4-18.4-30.1-36-47.4-47.9c-19.5-13.4-43.6-16.2-66.5-15.7c-20.8,0.4-43.9,0.9-62.5,11.7c-18.9,11-28.3,31.9-35.9,51.6
			c-9.9,25.8-15.6,53-17.7,80.6c-2,26.7-1,53.6,3,80.1c1.8,12.1,4,46.9,22.1,47.1c-25.2-43.4-4.6-96-4.6-142.6
			c6.1,0.1,7.1,8.5,13.5,8.9c1.3,0.1,15.3-6.7,16-7.5c4.4-5.1-0.2-13.5-6.3-17c-1.4-0.8-6.7-2-8.4-1.8c-1.2,0.1-5.8,2.5-5.7,2.5
			c-1.7-0.2-2.6,2.9-5.1-1.3c-1.6-2.6,0-6.8,0.8-9.5c6.4-21.8,30.5-24.6,48.8-18.6c-4-15.4-27.4-5.9-24.5-24.4
			c2.3-14.5,11.3-25.8,23.8-32.6c12.6-6.8,32.5-13.5,46.8-10.7c7.5,1.5,14.9,6.4,22.2,9c10.1,3.6,20.5,6.3,30.6,9.8
			c15.8,5.4,33.8,12.8,44,26.9c6.6,9.2,12.5,32.7-1.8,35.5c-5.1,1-10.8-6.6-14.7-1.3c-7,9.5,4.3,8.3,9.8,8c20-1,10.1,16,7.3,27
			c0,0-14.1-11.1-11,0c6.1,8.2,2.7,18.8,9.1,27.5c2.1,2.9,10.3,9.3,13.3,11.1c6.2,3.6,10.3-2.2,15.2,0.7c4,2.3,4.5,9.9,3.2,19.6
			l4.4-1.9c0.8-5.1,1.2-10.2,1.1-15.2C502.2,329.6,498.7,318.6,496.7,307.7z"/>
		<path id="XMLID_467_" class="st9" d="M281.9,257.8c0,0,10.4-13.2,29.2-5c18.8,8.2,51.5,15.5,51.5,15.5s11.9-14.4-9.6-19.8
			S286.5,225.1,281.9,257.8z"/>
		<path id="XMLID_465_" class="st9" d="M426.8,276.4c0,0-1.2-18.6,15.8-17.1s15.8,6.2,35.7,1.6l5.4,15.5c0,0-11.9-8.9-27.3-1.2
			C441,283,426.8,276.4,426.8,276.4z"/>
	</g>
	<path id="XMLID_462_" class="st13" d="M501.7,472.2c-13.8-12-22.6-13.1-22.6-13.1l-11.5,5.5l-14.3,32.7l-21.1,30.9
		c-17.9,42.6-48.4,75.5-48.4,75.5l0,0l0,0l0,0l1,14.2c2.1,18.9,11.8,43.1,10.6,62.4c3.3-1.6,6.6-3.3,10-5c2.1-1.1,4.3-2.2,6.4-3.4
		c-8.7-23.7-6.8-46.7-14.7-65.5c3.8-12.2,20.1-27.4,59.8-50c6.7-3.5,16.9-1.5,22.8-4.9c14.9-8.7,24-6.3,25-21.6
		c0,0,29.2,13.2,39.2,6.2C544,536.2,508.9,478.5,501.7,472.2z"/>
	<path id="XMLID_468_" class="st12" d="M292.7,282.3c0,0,7-10.9,27.5-7.9c20.6,3,25.1,6,34.5,16.3c0,0-4.8-14.3-28.9-17.3
		C304.9,270.8,296.7,273,292.7,282.3z"/>
	<path id="XMLID_464_" class="st12" d="M428.7,294.4c0,0,14.8-11.3,33.5-4.8c18.8,6.5,12.8,17.9,12.8,17.9s8.8-11.3-9.4-18.4
		C447.4,282.1,432.3,289.4,428.7,294.4z"/>
	<path id="XMLID_510_" class="st13" d="M378.4,611c3,2.5,5.2,4.8,6.4,6.9l-13.3-23.1l-85.2-52.4l-10-9.3c0,0-24.6-35.7-27.3-89.7
		h0.4L231,422.6c-10.9,14.9-77.5,105.7-84.5,112.1c0,0,54.6-2.3,77.6-21c0,0-0.8,24.1,12.3,31.8l16.1,17.1l51.7,13.7
		c12.3,3.7,24.8,8.3,36.1,13.2c8.9,4.9,32,24.7,35.3,99.8l13.5-6C389.1,683.3,392.8,637.5,378.4,611z"/>
	<g id="XMLID_421_">
		<path id="XMLID_460_" class="st14" d="M235.1,175.8c15.5-27.3,30.7-58.6,53.2-80.8c19.8-19.5,46.5-35.1,72.8-44.1
			c32.4-11.1,49.1,8.4,69.1,31.5c11.3,13.1,22.8,26.1,33.8,39.4c9.4,11.4,23.1,23.4,28.1,37.7C406.6,149.3,318.4,153.4,235.1,175.8
			C247.8,153.4,317.3,153.7,235.1,175.8z"/>
		<path id="XMLID_459_" class="st15" d="M242,172.3c0.8-4.5,3.5-6.1,4.5-8.7c0.5-1.5,0.7-4.9,1.5-7.1c3.1-8.5,10.2-15.8,15.8-22.8
			c9.2-11.5,25-26.2,41.6-23.5c-5.1-11.2,8-15.5,16.5-18.9c10.5-4.2,26.3-1.4,37,1.8c12.1,3.5,21.6,9.7,33.9,7.7
			c5.2-0.9,6.6-2.8,12.1-0.1c3.2,1.5,8.2,10,12.3,5.3c-1.6-1.5-8.8-6.1-7.7-9c2.3-6.1,10.9,0.9,13.7,2.7c11.3,7.2,17.9,18,28,26
			c3.1,2.4,7.5,2,8.3,2.4c3.5,1.7,4.2,4,7.6,7.4c6.7,6.6,20.9,10.9,18.8,22.9c-9.7-5-14.8-8.3-21.9-16.2c-4.7-5.2-3.8-5.5-10.8-7.7
			c-5.1-1.7-9.8-4.5-14.9-6.2c-15.5-5.3-29.1-4.8-44.3-10.7c0.9,4.4,1.7,9.8,5.8,12.4c4-10.8,11.7,2.4,17.3,2.7
			c-1.1-8.5,48.9,6.3,43.3,18.8c-2.4,5.3-49-1.5-54.5-1.6C350.7,149.1,295,156.1,242,172.3C242.3,170.2,306.1,152.8,242,172.3z"/>
		<path id="XMLID_458_" class="st16" d="M252.7,167.7c0-10.6,6.1-11.5,14.6-14.9c8.3-3.3,12.1-10.1,20-13.4
			c6.8-2.8,10.6-5.1,17.3-8.9c2.2-1.6,4.5-2.7,7.1-3.3c2.9,1.5,4.5,0.6,4.6-2.9c3.7-1.6,4.7-1.9,8.9-2.3c5.8-0.6,13.7,1.3,8.7,7.9
			c-2.6,3.5-13,3-16.9,4.4C295,142.3,276.5,165,252.7,167.7C252.7,155.1,267.7,166,252.7,167.7z"/>
		<path id="XMLID_457_" class="st17" d="M277.3,165c20.7-23.8,56.6-29.9,86.2-33.1c35.1-3.8,74,0.2,103.2,21.8
			C403.6,157.5,340.5,161.2,277.3,165C297.7,141.7,340.5,161.2,277.3,165z"/>
		<path id="XMLID_456_" class="st16" d="M277.3,171.9c20.7-23.8,56.6-29.9,86.2-33.1c35.1-3.8,74,0.2,103.2,21.8
			C403.6,164.4,340.5,168.2,277.3,171.9C297.7,148.7,340.5,168.2,277.3,171.9z"/>
		<path id="XMLID_455_" class="st14" d="M275.8,265.1c8.8-33.6,19.7-72.1,52.7-89.3c36.8-19.2,72.7-2.6,106.8,13.2
			c12.9,6,32.2,10.4,41,22.5c3.8,5.2,4.3,12.9,8.7,17.7c6.5,7,11.8,3.4,20.3,1.3c13.4-3.2,26.8-5.2,40.5-7.2
			c14.5-2.1,21.9-2.9,15.5-18.8c-27.9-68.7-141.5-61.3-199.9-56.7c-57.9,4.6-152.1,9.7-186.2,67c-12.1,20.2-20.7,91.1,18.3,81.7
			c22.3-5.4,45-9.1,67.5-13.9c17.5-3.7,12.8-9.3,16.9-24.7C277.3,259.5,275.3,266.9,275.8,265.1C284,234,274.2,271.4,275.8,265.1z"
			/>
		<path id="XMLID_454_" class="st17" d="M559.5,203.2c-2.9-5.7-7.2-11.6-12.8-14.9c-4.1-2.4-9.8-2-9.3-7.8c-4.2,2.5-6.1,0.5-4.6-3.9
			c-2.1,2.9-5.7,4.1-6.1-0.8c-4.5,4.3-9.3-0.7-10.8-5c-2,2.8-4.9,4-5.8-0.4c-3.5,5.1-6.1-0.1-5.8-3.9c-1.9,2.8-7.2,8.3-8.5,1.6
			c-5.1,6.5-6.3-0.9-5-5c-2.2,8.2-2.2,2.7-5.9,3.3c-4.3,0.7-10.6,2-12.5-3.3c-5.4,6.1-8.7,0.5-14.3-0.8c-3.4-0.8-6.5,0.7-9.8,0.3
			c-2.4-0.3-4.1-2.7-6.5-3s-15,0-12.6,0.7c-4-1.1-8.1-7.5-11-0.8c-3.1-9.3-3-1.3-6.9-1.6c-2.7-0.2-2.5-4-5.4-2.4
			c-2.9,1.7,1,6.3-3.7,5.3c-2-0.4-1.4-5.2-2.9-5.7c-2.4-0.8-3.2,1.9-3.8,1.7c1.3,0.3-10.9,0.7-6.2-5.2c-4.4,5.5-12.9,6.3-19.9,5.9
			c1.2-0.4,2.3-1.1,3.1-2.1c0.1-0.5-29.2,5-30.4,5.6c-0.2-1.8-1-3.3-2.3-4.6c-2.5-0.9-12.9,5.8-15.7,6.5c-1.4-2.6-2.6-3.1-3.7-1.7
			c-0.6,0.8-1.4,1.2-2.4,1.5c-3.5,0.7-6.9,1.9-10.5,2.4c-4.6,0.6-10.8-0.2-14.3,1.1c-2.7,1-4.8,4.1-7.7,5c-4.9,1.5-9.2-0.9-14.1-0.3
			c2,6.4-5,7.5-5.4,0.4c-1,2.2-2.6,3.3-5,3.4c-3.3-1-4.2,0.2-2.9,3.7c-1-1.1-2.2-2.1-3.4-3c-1.3,0.8-2.6,1.4-4,2.1
			c-4.5,0.4-11.3,3.2-14.2,4.1c-3.6,1.2-7.3,3.3-10.7,4.3c1.3-0.4-7.1,1.7-5.5,0.5c-0.8,0.6-6.4,4.5-4.1,3.7
			c-4.1,1.3-11.8-1.6-10.6,6.8c-6.1-3.1-3.5,2.8-6.3,4.6c-0.8,0.5-3.9,0.1-3.5-0.5c-1.9,2.1-3.1,5-5,7c-1.1,1.2-3.5,2-5.5,4.4
			c-6.5,7.6-11.3,18.2-13.9,27.6c-1.4,5.2-2.9,10.8-3.4,16.2c-0.3,4,0,8,0.7,12c-0.7,6.1,1.2,7.7,5.6,4.6c-0.1-0.2-1.3,8.5-1.3,9.1
			c0.3,3.6,1.9,7.3,3.6,10.5c5.4,10,11.1,9.6,21.7,8.4c25.4-2.9,51-3.6,76.5-4.9c-5-25.1,7.7-50,19.1-71.5
			c10.8-20.5,23.6-34.2,45.5-42.2c24-8.7,45.8-7.5,68.5,4c12.7,6.4,25.2,13.5,37.7,20.3c8.8,4.7,19.7,8.7,27.1,15.6
			c13.7,12.9,18.7,36.7,23.3,54c2.2,8.2,3.3,9.2,12.1,8.8c6.7-0.3,16.8-0.3,23.4-1.7c12.5-2.8,17.8-27.9,22.4-39.3
			c6.2-15.4,10.5-30,2.7-45.5c1.7,3.3,3.3,6.6,5,10C561.2,206.5,560.4,204.9,559.5,203.2C555.3,194.7,568.2,220.5,559.5,203.2z"/>
		<g id="XMLID_437_">
			<g id="XMLID_438_">
				<path id="XMLID_453_" class="st18" d="M215.3,419.7C215.5,419.7,215.5,419.7,215.3,419.7L215.3,419.7z"/>
				<path id="XMLID_452_" class="st18" d="M214.6,419.8c0.1,0,0.2,0,0.3,0C214.8,419.8,214.7,419.8,214.6,419.8z"/>
				<path id="XMLID_451_" class="st18" d="M214.9,419.7c0.2,0,0.3,0,0.4,0C215.2,419.7,215.1,419.7,214.9,419.7z"/>
				<path id="XMLID_450_" class="st18" d="M197.6,410.9C197.4,410.1,197.5,410.3,197.6,410.9L197.6,410.9z"/>
				<path id="XMLID_449_" class="st18" d="M210.3,443.2c0.2-0.1,0.4-0.2,0.5-0.4C210.1,443.1,205.9,445.4,210.3,443.2z"/>
				<path id="XMLID_439_" class="st18" d="M264.5,454.8c8.5,8.7,20,13.7,28.2,22.7c-1.7-5.3-3.1-11-6.9-15.1
					c2.3,1.6,4.6,3.1,6.9,4.7c-9.7-14.2-24.1-26.9-26.5-44.8c3.4,5.1,7.5,10.7,13.3,13.4c-13.9-15.8-13.6-44.3-12.6-64
					c0.6-12.2,2.5-24.2,5-36.1c2.7-13.1,2.4-19.6,3.9-32.3c2.8-23.1,8.2-44.4,19.9-64.5c10.5-18.1,11.7-35.8,30.6-47.8
					c14.7-9.2,35.2-15.6,52.5-12.2c22.1,4.4,42.6,24.5,62.4,34.9c4.9,2.6,9.5,4.8,15,5.7c4.3,0.8,9.3-0.5,13.4,1.4
					c7.5,3.5,9.7,13.8,13.3,21.1c11.6,23.4,18.8,45.7,24.6,71.2c2.3,10.2,6.1,20.6,3.9,31.1c-2.4,11-9.1,21.4-12.7,32.1
					c-8.9,25.9-11.8,53.2-13.5,80.4c6-5.1,12.1-9.3,19.6-11.6c0.2,11.1-6,21.8-15,28c7.3,6.7,15.7-4.5,18.9-10.3
					c4.5-8.1,4.9-17.3,0.7-25.8c13.7-3.3,42.1-30.3,33.5-47.3l-0.3-0.4c0.2-0.7,0.4-1.4,0.7-2c3.2-14.1-5.7-27.6-1.6-42.9
					c-4.5,1.2-7.3-55.1-6.9-60.6c1-12.5,5-25.3,3.8-37.9c-1.1-11.7-8.9-17-16.6-25.1c-37.6-39.5-83.9-44-135.7-46.6
					c-27.5-1.4-51,3.8-76.2,14.8c-23.4,10.2-48.4,16.7-71.5,27.1c-17.7,8-41.2,23.1-49.9,41.4c-4.1,8.7-7.4,21.8-9.3,31.2
					c-0.8,4-1.2,8.6-1.7,12.5c-0.7,5.4-3.2,6.9,0.3,12.4c-3.7,1.1-7-0.4-6.9-4.7c-10.1,9.1,5.8,8,9.5,11.6c5.2,4.9,1.4,10.3-0.5,17
					c-2.6,9.4-3.6,12.5,2.4,19c2.1,2.2,10.3,7,1.4,5.6c1.5,7.7,1.9,11,1.5,18.7c-0.3,7.1,0,17.9,1.7,24.8
					c3.2,12.6,18.2,23.5,30.5,16.1c-3,7.5-21,5.2-26.4,2.6c3.8,2.8-1.1,18.9-1.9,24.6c-0.2,1.2,0.6,3.7,0.3,4.7
					c-0.1,0.3-2.5,3.4-2.5,3.2c-0.8,4.6-3.4,8.3,4.7,11.7c-1.7-2.9-6.3-7.3-0.7-9.1c1.5,3.4,3.3,6.6,5.3,9.7
					c0.7-4.5-1.3-8.9,0.9-12.9c2.8-5,10.3-6,15.1-8c-5.3,11.6-4.7,22.9,1.8,33.7c4.6,7.7,12.5,19.8,22,20.8
					c-5.2-2.4-10.2-6.7-10.8-12.8c5.7,0.1,9.2,6.7,14.4,1.4c2.1-2.1,2.7-10.1,2.9-12.9c0,0,1.4-28.1,17.7-3.4
					C260.4,474.7,254.5,456.5,264.5,454.8z M213.4,419.9c0.4,0,0.8-0.1,1.2-0.1C214.3,419.8,213.9,419.9,213.4,419.9
					c-7.1,0.8-23.6-9.2-14-17.2c0.6,1.1,21,16.1,18.4,16.9C216.3,419.7,214.8,419.8,213.4,419.9z M212.1,420.1
					C212,420.1,212,420.1,212.1,420.1L212.1,420.1z M212.3,420c0.1,0,0.2,0,0.4,0C212.5,420,212.4,420,212.3,420z M210.8,442.8
					c0.2-0.1,0.1,0-0.5,0.4c-5.7,2.9-11.3,5.7-16.7,9c-0.2-6.3-0.1-10.8,4.9-13.7c-0.2,0.1,3.9,0.9,4.6,0.7
					c3.6-1.1,6.9-3.5,10.7-4.2C214.4,438,213.2,441,210.8,442.8z M214.1,451.3c-0.1-0.1,0.3-1.5,1.9-5.6c7.2,0.9,1.3,12,1.1,17.6
					c-0.3,7.3,0.7,14.7,3,21.6C210.6,476.5,210.8,462.8,214.1,451.3z M236.8,460.1c-5,3.2-3.7,29.3-12.8,24.8
					c-6.2-3.1-5.1-20.6-4.7-26.3c0.5-6,3.3-22.3,13.2-15.2c1.3,0.9,2.4,6.2,2.9,8.2C236.3,456.2,239.2,451.4,236.8,460.1z
					 M496.3,471.3c0,0,8.5-9.7,12.3-20.6C508.6,450.7,511.7,463.9,496.3,471.3z M536.5,366.9c3.6,6.1,5.3,13.2,5.4,20.3
					C535.8,377,536.5,366.9,536.5,366.9z"/>
			</g>
		</g>
		<path id="XMLID_436_" class="st19" d="M385.5,173.5c7.8,7.2,16.9,14.9,26,20.3c9.9,5.9,15.4,0.5,25.5,3.2c11,3,9.1,9.5,12.5,17.9
			c2.8,6.9,10.6,9.9,15.5,14.9c5.6,5.6,9.8,13.8,10.3,21.8c0.6,9.6,0.6,10.5,4.8,19.4c6.9,14.8-9,25.2-5.8,39.9
			c2.1,9.7,10.4,17.2,13.4,26.6c3.8,11.8,1.3,23.2-1.6,34.8c-5.8,22.9-9.2,47.7-22.6,67.6c-4.7,7-11,13-15.4,20.2
			c-3.9,6.4-1.9,6.5-1.3,12.3c0.8,8.4,1,21.9-0.5,30.2c-1.7,9.5-14.3,15.4-14,25.6c4.8-6.4,13.1-12.7,18.4-18.6
			c1,1.7,1.9,3.5,2.9,5.2c6.3-4.5-3-11.7,4.6-16.9c2.8,12.4,24.3,4.1,16.1-8.2c5.7-3.1,7.3,7.1,11.1,9c11.1,5.4-0.1-15.9-0.2-20.6
			c2.2,0.6,4.3,1.4,6.3,2.3c0.1-5.4,6.1-4,3.8-9.5c-0.9-2.2-4.5-2.3-5.1-4.1c-1-3.2,1.9-2.4,3-5.8c2.7-8.1,2.2-15.5,3.1-24.1
			c0.8-8.4,5.1-15.7,6.1-23.5c5.4,6.2-4.9,27.6,1.3,30.2c5.4,2.2,10.7-19.6,11.1-22.1c0.7-4.4-2.9-16.5-1.1-19.6
			c2.4-4,0.6,0.1,4-1.8c4.1-2.3,6.3-0.6,10-5.6c1.2-1.6,0.7-4.8,1.8-6.6c0.8-1.3,3.3,0,3.6-0.9c4.2-9.9-1.6-23.1-3.2-33.5
			c-2.1-13.6,0.5-27.3-4.4-40.4c-4.8-12.9-10-23.7-12.5-37.4c-2.5-13.4-4-27.6-11.7-39.2c-1,2.5-1.9,5-2.9,7.6
			c-9.1-10.1-11.7-24.7-19.2-35.9c-2.5-3.8-4.5-9.1-6.7-12.3c-2.3-3.3-8-6.3-9.3-10.7c18.1,9.8,35.8,22.7,47.7,39.8
			c8.8,12.6,19.1,34.5,18.6,50.4c-1.7-1.6-3.4-3.1-5.2-4.7c-5.8,11.2,21.8,45.8,6.9,53c3.3,4,6.6,8.3,6.3,14c3.2-7-0.4-14-0.2-21.1
			c0.1-4.1,1.6-8.2,2.3-12.2c2.2-11.5,6.5-19.6,12-30c11.7-22.2,18.7-47.1,7.7-71.2c-3.5,2.6-8.2,4.1-9.2-1.7
			c-3.1,10-16.9-5.5-21.5-8c-13.2-7.2-28.5-12.9-43.4-15.3c-15.4-2.5-31.2-3-46.7-5.2C421.1,170.6,402.9,168.6,385.5,173.5
			C392.3,179.8,414.7,165.3,385.5,173.5z"/>
		<path id="XMLID_431_" class="st18" d="M239.3,364.9c3.1,2.2,7.1,24.4,4.2,24.7C237,390.1,237.8,369.2,239.3,364.9z"/>
		<g id="XMLID_497_">
			<path id="XMLID_435_" class="st20" d="M265.6,262.6C260,267.7,273.1,263.7,265.6,262.6c-5,4.5-4,10.4-5.8,16.3
				c-1.4-7.1-6.2-17.5-7.7-4.8s4.1,25.5-1.2,37.7c-5.2,12-5.2,18.6-2,31.1c2.1,8.3-0.8,7.9-2.4,15.2c-1.8,8.3,1.9,17.2,1.7,25.6
				c6.2-2.7,6.2-11.9,5.8-17.5c5.9,8.1-0.5,21.1,0.1,30.5c0.6,9.2,3.9,20.2,12,25.4c-3.8-14.1-7.1-29.3-6.1-44
				c0.4-6.2,4.5-12.3,4.7-17.9c0.4-11.8-3.9-5.2-8.4-1.5c2.3-7,5.2-11.8,5.3-19c0.1-4.3-4.7-9.5,3.9-7.2c-3.1-4.3,2.1-10.5,3.2-14.9
				c1.6-6.4,1.4-14.3,1.5-20.9C270.4,290.8,273.4,263.7,265.6,262.6z"/>
			<path id="XMLID_434_" class="st20" d="M195.3,288.8c11.1,1.6,11.7,8.6,9.6,17.8c-0.4,1.7-1.2,8.5-1.5,9.1c-0.7,1.7,1.4,6-4.2,5.5
				C193.2,320.8,193.4,289.5,195.3,288.8C203.4,290,193.4,289.4,195.3,288.8z"/>
			<path id="XMLID_433_" class="st20" d="M199.9,327.8c8,4.9,1.4,11,0.9,17.8c-0.5,5.7,4.2,13.7-2,17.7
				C193.9,351.1,194,339.7,199.9,327.8C208.7,333.2,193.7,340.4,199.9,327.8z"/>
			<path id="XMLID_432_" class="st20" d="M208.2,347.8c8.5,3.3,4.2,14.4,6.9,21.7C204.6,371.6,206.4,353.7,208.2,347.8z"/>
			<path id="XMLID_430_" class="st20" d="M218.2,423.2c4.2,2.2,12.7,11,5.2,14.4C215.4,441.1,217,423.5,218.2,423.2z"/>
			<path id="XMLID_429_" class="st20" d="M221.2,400.3c6.7,4.4,15.4,17.7,16.8,25.6c0.6,3.6-1.2,6.9,0.5,10.4
				c1.8,3.7,6.7,5.3,6.9-0.3c4.5,1.8,7.5,11.8,10.8,15.9c6.1,7.4,11.7,16.3,3.8,24.9c-3.9-2.9-5.9-9.6-11.5-8.1
				c-2.3,0.6-2.6,10.8-7.3,7.7c-4.4-2.9,1.8-19.4,0.2-24.6c-1.8-6.1-7.4-10.3-9.3-16.2c-1.7-5.2-0.9-8.5-2.7-13.3
				C228.5,419.9,217.3,401.7,221.2,400.3C228.1,404.8,218.1,401.5,221.2,400.3z"/>
			<path id="XMLID_428_" class="st20" d="M247.7,277.6c1.5,4.5,1,11.7-4.6,11.6C243.1,287.4,245.8,273.1,247.7,277.6z"/>
		</g>
		<path id="XMLID_427_" class="st21" d="M454.1,183.2c13.7,10.9,26.1,24.5,33.1,40.8c6.7,15.6,10.1,31.7,18.5,46.6
			c3.7,6.6,7.7,12.7,9.1,20.2c1.7,9.4,0,19.1,1.4,28.5c2.5,17.7,11.3,34.7,1,51.8c16.7-8.7,10.4-33.7,6.4-47.7
			c-5.8-20-2.5-41.3-12.2-59.8C495.6,233.5,494,189.6,454.1,183.2C463.5,190.7,477.5,187,454.1,183.2z"/>
		<path id="XMLID_426_" class="st21" d="M317.8,187.1c-9.2,37.8-18.5,76.2-33,112.4c-6.6,16.4-14.7,32.2-18.1,49.6
			c-3.8,19.7-3.4,40.8-1,60.6c-18.2-33.2-3.7-76.4,8.7-109c7.5-19.7,15.5-39.2,22-59.2C301.8,224.9,303.5,199,317.8,187.1
			C309.3,222.3,309.4,194.1,317.8,187.1z"/>
		<path id="XMLID_425_" class="st19" d="M327.9,182.2c-36.2,2.4-74,14-103.8,35.2c-10.2,7.3-23,15.6-26.5,28.3
			c-0.9,3.2-3,11.6,1.8,13.3c4.6,1.6,7-6.2,10.6-7.2c5.9-1.7,4.4,2,1.2,6.2c-5,6.7-11.4,2.8-17.4,5.3c-5.4,2.3-11.9,12.2-12.4,18.1
			c-0.8,9.8,6.2,24.9,13.8,12c3.1-5.2,4-10.3,7.9-15.4c5.9-7.7,12.1-15.4,18.1-23.1c5.5,7.4-0.9,14.7-1.3,22.6
			c-0.2,4.7,1.7,8.2,0.2,12.9c-0.8,2.3-3.8,3.6-4.6,5.9c-1.8,5.4-0.7,12.9,7.1,8.5c3.3-1.9,7-12.7,7.2-16.4c0.3-6.9-4.9-9.8-2.4-17
			c1-2.9,4.7-5.1,6.1-7.9c1.1-2.2,1-6.2,2.2-7.9c3.5-4.8,6.5-1.3,10.7-3.7c5.1-2.9,1.2-8.8,5.9-9.9c4.4,12.7,6.5,16.3,18.9,11.7
			c3.1-1.2,2.6,2.5,5.8-4.1c3-6.1,1.5-12.7,6.4-18.1c0.6,2.5,1,5,1.2,7.6c5.1-3.1,5.2-9.5,6.9-14.6c5,5.8,10.5-14.4,11.4-16.8
			C307.5,195.7,317.2,189.2,327.9,182.2C307.5,183.6,319.9,187.5,327.9,182.2z"/>
		<path id="XMLID_424_" class="st21" d="M238.1,240.3c0,0-32.3,38.8-13.1,104.8C225.1,345.1,218.2,284.6,238.1,240.3z"/>
		<path id="XMLID_423_" class="st21" d="M238.9,273.7c0,0-16.1,57.1,3.8,125.8C242.7,399.5,233.5,325.7,238.9,273.7z"/>
		<path id="XMLID_422_" class="st15" d="M317.2,86.1c13.5-3.7,23.5-0.5,37.2,1.4c5.9,0.8,11.8,2.2,17.6,3.7
			c11.2,2.8,16.6,1.2,12.9-13.1c-5.3-20.1-21.3-25.7-38.1-14c-6.5,4.6-12.5,10.1-20,13C326.2,77.4,304.2,86.1,317.2,86.1z"/>
	</g>
	<path id="XMLID_420_" class="st3" d="M248.9,461.6c-9.2,0.8-5.9,17.8-5.9,17.8c7.4-9.4,13.9,3.6,4.2,9.7c2,2.5,8.5,4.1,9.4,6.8
		c1.4,4.4-3.8,4.3-3,8.3c1.4,6.9,10,8.2,10.3,15.3c0.4,8.3-3.5,9.4,5.5,15c5.1,3.1,17.4,12,23.7,11.6
		c-10.9-13.4-22.6-27.9-26.6-44.6c-1.7-7.1-5.4-21.3-5.5-32.7C258.1,465.2,253.8,461.2,248.9,461.6z"/>
	<g id="XMLID_419_">
		<path id="XMLID_535_" class="st6" d="M321.1,300.5c-4.8,0-14-1.3-21.2-10.3l-0.1-0.2l0.1-0.2c0.1-0.1,7.4-8.9,19.9-8.9
			c1.1,0,2.2,0.1,3.3,0.2c8,0.9,11.9,4,16,7.1c3.3,2.6,6.7,5.2,12.6,6.9h0.1v0.1c0,0,0.1,0.4-0.1,0.7c-0.2,0.2-0.5,0.3-0.9,0.3
			s-1-0.1-1.6-0.4c-0.9-0.4-2.9-0.7-5.5-0.7c-2.4,0-7.1,0.3-11.5,2.6C329.3,299.6,325.2,300.5,321.1,300.5z"/>
		<g id="XMLID_530_">
			<path id="XMLID_531_" class="st12" d="M319.9,281.3c1,0,2.1,0.1,3.2,0.2c14.5,1.7,15.5,10.4,28.5,14c0,0,0.2,0.8-0.7,0.8
				c-0.3,0-0.8-0.1-1.5-0.4c-1.1-0.4-3.1-0.7-5.6-0.7c-3.4,0-7.7,0.7-11.6,2.7c-2.6,1.4-6.6,2.4-11.1,2.4c-6.8,0-14.8-2.5-21-10.2
				C300.2,290.1,307.4,281.3,319.9,281.3 M319.9,280.8c-12.6,0-20,8.9-20.1,8.9l-0.3,0.3l0.3,0.3c5.4,6.7,13,10.4,21.4,10.4
				c4.1,0,8.2-0.9,11.3-2.5c4.4-2.3,9-2.6,11.4-2.6c2.6,0,4.5,0.4,5.4,0.7c0.7,0.3,1.3,0.4,1.7,0.4c0.6,0,0.9-0.2,1.1-0.4
				c0.3-0.4,0.2-0.9,0.2-1l-0.1-0.3l-0.3-0.1c-5.8-1.6-9.2-4.3-12.5-6.8c-4.1-3.2-8-6.2-16.1-7.2C322.1,280.9,321,280.8,319.9,280.8
				L319.9,280.8z"/>
		</g>
	</g>
	<g id="XMLID_418_">
		<path id="XMLID_536_" class="st6" d="M458.6,311.7c-5.8,0-11.2-1.3-13.2-3c-4.9-4.4-13.3-6.2-16.7-6.2c-0.2,0-0.3,0-0.5,0
			s-0.4,0-0.6,0c-1,0-1.7-0.2-2-0.7c-0.3-0.3-0.2-0.7-0.2-0.9v-0.1h0.1c3.7-1.1,6.3-2.3,8.7-3.5c4.3-2.1,8-3.9,16.5-3.9
			c0.3,0,0.6,0,0.9,0c14.1,0.2,19.5,11.3,19.6,11.4c0.2,1.4-0.1,2.5-0.9,3.5C468.6,310.5,464.3,311.7,458.6,311.7L458.6,311.7z"/>
		<g id="XMLID_527_">
			<path id="XMLID_528_" class="st12" d="M450.9,293.7c0.3,0,0.6,0,0.9,0c14.1,0.2,19.4,11.3,19.4,11.3c0.7,4.7-5.8,6.5-12.6,6.5
				c-5.4,0-11-1.2-13-3c-5-4.5-13.5-6.3-16.8-6.3c-0.2,0-0.4,0-0.5,0c-0.2,0-0.4,0-0.5,0c-2.3,0-2-1.2-2-1.2
				C436.2,298,437.7,293.7,450.9,293.7 M450.9,293.2L450.9,293.2c-8.6,0-12.3,1.8-16.6,3.9c-2.4,1.2-4.9,2.4-8.7,3.5l-0.3,0.1
				l-0.1,0.3c0,0.1-0.2,0.6,0.2,1.1c0.4,0.5,1.1,0.8,2.2,0.8c0.2,0,0.4,0,0.6,0c0.1,0,0.3,0,0.5,0c3.4,0,11.7,1.8,16.5,6.1
				c2,1.8,7.5,3.1,13.3,3.1c2.7,0,9.4-0.3,12-3.4c0.9-1,1.2-2.3,1-3.6V305v-0.1c-0.1-0.1-5.6-11.4-19.8-11.6
				C451.5,293.2,451.2,293.2,450.9,293.2L450.9,293.2z"/>
		</g>
	</g>
	<path id="XMLID_417_" class="st22" d="M466.5,299.2c-3.1-2.7-7.9-5.4-14.7-5.5c-10.4-0.1-13.8,2.2-19.2,4.8
		c-0.3,2.2,0.1,3.7,0.3,4.3c4,0.8,9.2,2.6,12.8,5.8c2.9,2.6,12.9,3.9,19.5,2.3C466.5,306.4,466.6,302.1,466.5,299.2z"/>
	<path id="XMLID_416_" class="st23" d="M458.1,301c0-2.6-0.8-5-2.1-6.9c-1.3-0.2-2.7-0.4-4.1-0.4c-7-0.1-10.8,0.9-14.2,2.4
		c-0.7,1.5-1,3.1-1,4.9c0,1,0.1,1.9,0.3,2.8c3.1,1,6.3,2.5,8.7,4.7c1.3,1.1,3.9,2,7,2.5C455.9,309,458.1,305.3,458.1,301z"/>
	<ellipse id="XMLID_415_" class="st19" cx="446.9" cy="300.4" rx="4.3" ry="4.4"/>
	<path id="XMLID_414_" class="st22" d="M323.1,281.5c-14.5-1.7-22.9,8.6-22.9,8.6c10.3,12.8,25.4,11.2,32,7.8
		c3.6-1.9,7.6-2.6,10.9-2.7c0.2-1.2,0.3-2.3,0.3-3.3C337.1,287.8,333.8,282.8,323.1,281.5z"/>
	<path id="XMLID_413_" class="st24" d="M323.1,283.8c10.6,1.3,14,6.2,20.2,10.3c0.1-0.8,0.1-1.5,0.1-2.2c-6.3-4-9.6-9.1-20.3-10.3
		c-14.5-1.7-22.9,8.6-22.9,8.6c0.3,0.4,0.7,0.8,1,1.2C303.9,288.7,311.6,282.5,323.1,283.8z"/>
	<path id="XMLID_412_" class="st23" d="M328.6,282.6c-1.6-0.5-3.4-0.9-5.5-1.1c-2.7-0.3-5.2-0.2-7.5,0.1c-3,2.1-4.9,5.6-4.9,9.7
		c0,3.1,1.1,5.8,2.9,7.9c6,1.7,11.8,1.1,16-0.3c1.7-2,2.7-4.7,2.7-7.6C332.3,287.9,330.8,284.7,328.6,282.6z"/>
	<ellipse id="XMLID_411_" class="st19" cx="321.9" cy="290.3" rx="4.3" ry="4.4"/>
	<path id="XMLID_398_" class="st19" d="M327.8,282.4c-0.2-0.1-0.5-0.1-0.7-0.2s-0.5-0.1-0.7-0.2c-0.3-0.1-0.6-0.1-0.9-0.2
		c-0.2,0-0.4-0.1-0.6-0.1c-0.6-0.1-1.1-0.2-1.7-0.3c-0.6-0.1-1.2-0.1-1.8-0.1c-0.1,0-0.3,0-0.4,0c-0.6,0-1.1,0-1.7,0l0,0
		c-0.6,0-1.1,0.1-1.6,0.1c-0.1,0-0.2,0-0.4,0c-0.5,0.1-1,0.1-1.6,0.2l0,0c-1.1,0.8-2.1,1.8-2.9,3c3-0.9,6.5-1.3,10.4-0.8
		c3.2,0.4,5.7,1.1,7.9,2c-0.6-1.2-1.4-2.3-2.4-3.2C328.3,282.6,328.1,282.5,327.8,282.4z"/>
	<g id="XMLID_395_">
		<path id="XMLID_397_" class="st25" d="M330.1,289.3c-0.6-2.5-1.4-4-2.2-2.2c-0.5,1,0.5,1.8,0.9,3.5L330.1,289.3z"/>
	</g>
	<g id="XMLID_392_">
		<path id="XMLID_394_" class="st25" d="M455.1,299.1c-0.2-2.5-0.7-4-1.7-2.5c-0.6,0.9,0.2,1.8,0.3,3.5L455.1,299.1z"/>
	</g>
	<path id="XMLID_391_" class="st24" d="M451.8,296c6.9,0.1,11.6,2.8,14.7,5.5c0,0.1,0,0.1,0,0.2c0-0.9,0-1.8,0-2.5
		c-3.1-2.7-7.9-5.4-14.7-5.5c-10.4-0.1-13.8,2.2-19.2,4.8c-0.1,1.1-0.1,2,0,2.7c0-0.1,0-0.2,0-0.4C438,298.3,441.4,295.9,451.8,296z
		"/>
	<path id="XMLID_390_" class="st19" d="M455.9,294.1c-0.6-0.1-1.3-0.2-2-0.3c-0.7-0.1-1.4-0.1-2.2-0.1c-0.6,0-1.1,0-1.7,0
		c-0.1,0-0.3,0-0.4,0c-0.5,0-1,0-1.4,0h-0.1c-0.5,0-0.9,0.1-1.4,0.1c-0.1,0-0.3,0-0.4,0c-0.4,0-0.7,0.1-1.1,0.1c-0.1,0-0.1,0-0.2,0
		c-0.4,0.1-0.8,0.1-1.1,0.2c-0.1,0-0.3,0-0.4,0.1c-0.3,0.1-0.5,0.1-0.8,0.2c-0.1,0-0.2,0-0.3,0.1c-0.3,0.1-0.6,0.1-0.9,0.2
		c-0.1,0-0.3,0.1-0.4,0.1c-0.2,0.1-0.4,0.1-0.6,0.2s-0.4,0.1-0.6,0.2s-0.4,0.1-0.5,0.2c-0.2,0.1-0.3,0.1-0.5,0.2
		c-0.1,0-0.2,0.1-0.3,0.1c-0.4,0.1-0.7,0.3-1.1,0.4l0,0c-0.4,0.8-0.6,1.7-0.8,2.7c3.6-1.6,7.5-2.9,15.1-2.8c2,0,3.8,0.3,5.5,0.7
		C457,295.8,456.5,294.9,455.9,294.1L455.9,294.1z"/>
	<path id="XMLID_389_" class="st8" d="M361.9,342.6c0,0-17.9,10.5-9.2,21.5c8.6,11.1,14.4,2.9,14.4,2.9s10.4-3.5,15,4.7
		c0,0-1.7,1.7-8.6-0.6c-6.9-2.3-16.1,4.1-22.5-4.1C342.6,356.4,352.1,345.5,361.9,342.6z"/>
	<path id="XMLID_387_" class="st6" d="M404.5,372.3c0,0,5.2-7,11.5-1.7c0,0,9.8,3.5,12.1-5.2c2.3-8.7-9.2-16.3-13.3-22.1
		c0,0,6.9,7,9.8,8.7s11.5,15.7,1.2,19.2C415.5,374.6,411.4,372.3,404.5,372.3z"/>
	<path id="XMLID_383_" class="st4" d="M426.3,368.9c-5-3.9-9.2-2.7-13.2,0.1c0.9,0.3,1.9,0.8,2.9,1.6
		C416,370.6,422.7,372.9,426.3,368.9z"/>
	<path id="XMLID_513_" class="st3" d="M384.8,617.9l-1-14.2c-3.8-2.9-7.9-5.8-12.3-8.8l-5.1-3.1l0,0c6.8,16.2,20.4,53.9,19.7,93.1
		c3.1-1.4,6.2-2.9,9.4-4.5C396.6,661,387,636.8,384.8,617.9z"/>
</g>
<g id="XMLID_512_">
	<path id="XMLID_385_" class="st26" d="M360,699.2l-1.2-0.4c-43-15.1-105.5-51.8-155.4-91.3c-35.6-28.1-95.3-82-95.3-127.3V21H612
		v459.2c0,45.3-59.7,99.2-95.3,127.3c-50,39.4-112.4,76.1-155.4,91.3L360,699.2z M115.1,28v452.2c0,31.4,32.9,74.6,92.7,121.8
		c49,38.7,110,74.6,152.3,89.7c42.3-15.2,103.3-51.1,152.3-89.7c59.8-47.2,92.7-90.4,92.7-121.8V28H115.1z"/>
</g>
</svg>
