<?xml version="1.0" encoding="utf-8"?>
<!-- Generator: Adobe Illustrator 20.0.0, SVG Export Plug-In . SVG Version: 6.00 Build 0)  -->
<svg version="1.1" id="Layer_1" xmlns="http://www.w3.org/2000/svg" xmlns:xlink="http://www.w3.org/1999/xlink" x="0px" y="0px" style="enable-background:new 0 0 1920 149.6;" xml:space="preserve">
<style type="text/css">
	.st0{filter:url(#AI_GaussianBlur_4);}
	.st1{fill:#37474F;}
	.st2{fill:#2196F3;}
	.st3{fill:#FF9800;}
	.st4{fill:#808083;}
	.st5{fill:#59595C;}
	.st6{fill:#DEAC9C;}
	.st7{fill:#F3CCC1;}
	.st8{fill:#C39280;}
	.st9{fill:#724D35;}
	.st10{fill:#AB8074;}
	.st11{fill:#56392E;}
	.st12{fill:#FAE2DF;}
	.st13{fill:#FCDACE;}
	.st14{fill:#8B6553;}
	.st15{fill:#BCA4A0;}
	.st16{fill:#3E2B20;}
	.st17{fill:#33221A;}
	.st18{fill:#35241B;}
	.st19{fill:#F0CFC7;}
	.st20{fill:#6D6F70;}
	.st21{fill:#87664E;}
	.st22{fill:#765744;}
	.st23{fill:#5C4536;}
	.st24{fill:#4C382E;}
	.st25{fill:#4A3426;}
	.st26{fill:#745643;}
	.st27{fill:#808184;}
	.st28{fill:#DFAD9D;}
	.st29{fill:#F5CDC1;}
	.st30{fill:#C59381;}
	.st31{fill:#724C35;}
	.st32{fill:#AC8074;}
	.st33{fill:#FCE4E1;}
	.st34{fill:#FCDACF;}
	.st35{fill:#8C6452;}
	.st36{fill:#6D6E70;}
	.st37{fill:#88664D;}
	.st38{fill:#765743;}
	.st39{fill:#4A3326;}
	.st40{fill:#735542;}
	.st41{fill:#ECCCC5;}
	.st42{fill:#51372A;}
	.st43{fill:#F1D0C8;}
</style>
<filter  id="AI_GaussianBlur_4">
	<feGaussianBlur  stdDeviation="4"></feGaussianBlur>
</filter>
<g id="XMLID_2_" class="st0">
	<path class="st1" d="M1920,1.3H0v64c115,0,320,76,320,76s192.3-76,1600-76V1.3z"/>
</g>
<path id="XMLID_43_" class="st2" d="M1920,0.2H0v64c115,0,320,76,320,76s192.3-76,1600-76V0.2z"/>
<g id="XMLID_113_">
	<path id="XMLID_114_" class="st3" d="M356.5,21.5c0,27.6,0,46.7,0,66.9c0,10.8-24.6,27.4-36.5,31.6V21.5H356.5z"/>
</g>
<g id="XMLID_111_">
	<path id="XMLID_112_" class="st2" d="M283.5,21.5c0,27.6,0,46.7,0,66.9c0,10.8,24.6,27.4,36.5,31.6V21.5H283.5z"/>
</g>
<g id="XMLID_377_">
	<path id="XMLID_110_" class="st27" d="M349.2,90.9c-8.1-3.9-11.4-4.8-11.4-4.8l-40-0.2c0,0-9.2,2.2-13.3,6.4
		c4.6,10.5,25.1,24,35.5,27.7l0,0c9.7-3.4,28-15.2,34.3-25.3C353.2,93.4,351.6,92.1,349.2,90.9z"/>
	<path id="XMLID_109_" class="st5" d="M289.9,97c0,0,5.4,0.1,9.1-1.6c0,0-0.1,2.1,1.6,2.9l3.1,3.4l12.9,1.3L296,89.4L289.9,97z"/>
	<path id="XMLID_108_" class="st5" d="M345,95.7l2,2.3c0,0-3.3,0.8-5-0.5c-0.1-0.1-0.2-0.1-0.2-0.2c0,0-0.2,1.4-1.6,1.7
		c-0.7,0.1-2.2,1.5-5.1,1.6c-2.8,0.1-7,2.7-7,2.7L341,92.8L345,95.7z"/>
	<g id="XMLID_72_">
		<path id="XMLID_107_" class="st28" d="M314.1,47.3c-2,1.7-4.1,3.4-6.1,5.2c-1.6,1.4-1.8,2.9-2.2,5c-0.6,2.9-1.1,5.8-1.6,8.7
			c-0.5,2.6-1.2,5.3-0.8,7.9c0.6,4.8,3.2,9.6,6.4,13.2c3.4,3.8,6.7,7.3,12.1,7.5c5.2,0.2,9.8-2.5,13.5-6c3.5-3.3,4.7-8.8,5.7-13.3
			c0.5-2.3,1.4-4.9,1.3-7.3c-0.1-2.7-1-5.4-1.2-8.2c-0.2-2,0-4-0.7-5.9c-0.8-2.1-2.3-4.3-3.7-6.2c-3.2-4.4-7.4-5.3-12.5-6.2
			c-2.1-0.4-4.7-1.5-6.5,0.1C316,43.3,315.2,45.5,314.1,47.3C312.3,48.8,315.2,45.6,314.1,47.3z"/>
		<path id="XMLID_106_" class="st29" d="M319.2,71.3c0,1.1-1.9,1.2-0.4,1.9C320.4,74,321,72.2,319.2,71.3z"/>
		<g id="XMLID_100_">
			<path id="XMLID_105_" class="st30" d="M332.4,44.4c0,0,0.1,0.1,0.2,0.1C332.9,44.6,332.4,44.4,332.4,44.4z"/>
			<path id="XMLID_101_" class="st30" d="M340.8,66.6c-0.2-3.4-0.4-6.8-0.5-10.3c-0.1-3.1-1.1-5.2-3.1-7.5c-3.4-4-8.6-6.9-13.9-7.1
				c-4-0.2-8.7-0.3-12,2.4c-1.7,1.4-1.9,3.1-2.4,5.2c-0.6,2.6-2.6,4.5-3.9,6.9c-2.9,5.5-2.4,11.6-1.5,17.6c0.5,3,1,5.9,1.5,8.8
				c0.5,3,0.4,6.3,1.1,9.3c0.6,2.5,2.5,4.6,4.1,6.4c2,2.2,3.2,3.1,6.1,3.2c2.3,0.1,3.7,1.9,5.9,2.3c2.1,0.3,4.3-0.4,5.6-2.1
				c0.8-1,1.1-2.3,1.5-3.5c0.6-1.5,1.3-3,2-4.5c1.4-3,3.1-5.6,4.9-8.4c1.7-2.7,3.4-5.6,4.2-8.7C341.4,73.4,341,69.9,340.8,66.6z
				 M335,73.1c-0.9,0.4-2.2-1.3-3-0.7c-0.5,0.3,0.4,1.4-0.8,1.5c-0.9,0.1-1.2-1.1-1.7-1.5c-1.8-1.6-2.7,0.5-4.5,0.3
				c-1-0.1-1.3-0.6-2.3-1c-1.1-0.5-3.1-0.8-4.2-0.7c0.3,1,2.3,1.8,1.7,2.9c-0.3,0.6-2.4,1-3,0.7c-1.6-0.7,0.1-2.2-0.8-2.9
				c-0.6-0.5-4,1.9-4.3,2.5c-1.1,1.9,2.8,4.8,3.1,3.5c2.1,1.2,3.4,1.7,5.9,1.9c1.3,0.1,2.6,0.3,3.8,0.7c0.7,0.2,1.6,0.9,2.2,1
				c0.6,0.1,3.3-0.9,1.6,0.3c-1.4,1.1-3.8,0.5-5.4,0.6c-1,0-2.3,0.4-2,1.7c0.3,1.2,1.9,1.1,1.9,2.5c0,1.9-1.9,1.5-3.2,1.7
				c-1.8,0.3-3.3,0.3-4.6-1.3c-0.7,0.8-0.5,1.1-1.5,0.7c-0.6-0.3-1.3-1.3-1.8-1.9c-0.7-0.8-1.5-1.8-1.8-2.9
				c-0.2-0.5-0.2-0.8-0.1-1.3c0-0.2,0.5-0.2,0.5-0.2c-0.2-1.1-2-1.3-2.5-2.5c-0.6-1.3-0.8-2.9-0.5-4.2c0.5-1.9-0.7-3-0.8-4.8
				c-0.1-2.1,1-4,2.5-5.4c0.5-0.5,1.2-1.3,1.8-1.6c0.8-0.4,1.2,0.1,1.7,0c0.7-0.2,0.6-0.8,0.8-1c0.7-0.5,1.8-0.3,2.5,0.5
				c-0.9,0-2,0.3-2.6,0.9c0.5-0.1,1.5-0.3,1.8,0.3c-0.9,0.3-2.1-0.1-2.9,0.6c1.8,0.8,4-0.1,5.8-0.6c1.3-0.3,2.9-1,3.3-2.4
				c0.3-1-0.2-1-0.4-1.8c-0.2-1.1,0-1.1,0.3-2.1c0.5-1.6,0.2-2.1-1.4-3c-1.5-0.9-7.1-2.6-2.7-3.6c3.3-0.8,6.4-2.5,9.8-1.6
				c1.5,0.4,3,1.1,4.2,2c0.7,0.5,3.2,2.7,2.7,3.9c-0.4,0.9-1.7,0.4-2.5,0.5c-1.5,0.3-2,1.2-2.6,2.5c-1.2,2.9-2.1,5.9,1.3,7.7
				c1.9,1,5.5,1.3,6.1,3.9C336.7,69.4,337.3,72,335,73.1z"/>
		</g>
		<path id="XMLID_99_" class="st28" d="M321.1,75.7c-0.5,0-0.8,0-1.3-0.2c-0.4-0.2-0.6-0.6-1.1-0.7c-0.2,0-0.4,0.2-0.6,0.2
			c-0.5,0-1,0-1.5-0.2c0.1,0.2,0.1,0.4,0.2,0.6c0.9,1.3,4.1,1.5,5.2,1.5c2.7,0.2,4.6,1.2,7.1-0.5C326.4,75.8,323.7,75.8,321.1,75.7z
			"/>
		<path id="XMLID_98_" class="st29" d="M316.4,77.7c-0.3,0.8-1.1,1.6-1.4,2.4c-0.2,0.7-0.2,1.6-0.5,2.4c-0.5,1.6,0.2,3.2,1.6,4.4
			c1.2,1,7.3,1.2,5.8-1.3c-0.6-1-3.2-1.6-2.7-3.4c0.5-2.1,3.6-0.6,4.7-1.6C325.7,78.9,318.4,75.9,316.4,77.7
			C316.1,78.3,317.4,76.8,316.4,77.7z"/>
		<path id="XMLID_97_" class="st31" d="M320.7,72.3C320.7,72.3,320.7,72.3,320.7,72.3c0.2-0.1,0.7-0.1,0.9-0.1
			c1,0.2,2.2,0.8,2.7,1.7c0,0,1.1,3.3-0.9,2.2c0,0-1.4-0.1-1.6-1.8c0,0-0.3,1.3-1.1,1.2s-1.6,0.1-2.9-0.5c0,0-0.6,0.7-1.8,0.3
			c0,0-0.5-0.1-1,0.4c0,0-1.6,0.5-2.3-0.5c-0.2-0.2,0-0.8,0.1-1c0.2-0.4,0.5-1.1,1.1-1c0.3,0,0.6,0.3,0.6,0.6
			c0.2-0.2,0.4-0.4,0.6-0.5c0.2-0.1,0.5-0.2,0.7-0.1c0.2,0.1,0.3,0.3,0.4,0.5c0.2-0.2,0.6-0.4,0.9-0.3c0.2,0.1,0.3,0.3,0.5,0.4
			c0.6,0.3,1.1-0.4,1.5-0.7c0,0.1-0.1,0.4,0,0.4c0.2,0.3,0.4,0.2,0.6,0c0.3-0.2,0.5-0.4,0.6-0.7C320.4,73,320.5,72.4,320.7,72.3z"/>
		<path id="XMLID_94_" class="st32" d="M342.6,65c-0.4-3.1-1.2-6.2-2.1-9.2c-0.8-2.8-1.4-6-3.3-8.3c-2.8-3.3-8.1-4.3-12.2-4.6
			c-2.5-0.2-5.4,0.8-7.9,1.2c-3.1,0.5-5.1,1.5-7.2,3.9c-1.9,2.1-2.7,4.6-3.8,7.2c-1.3,3.2-2,6.3-2.3,9.7c-0.3,3.2-0.7,6.5-0.9,9.7
			c-0.1,3.3,0.7,6.6,0.9,9.9c0.3,5.6,1.2,11.4,5.6,15.4c1.6,1.4,3.4,1.7,5.3,2.4c2.1,0.8,4.1,2.3,6.1,3.1c1.7,0.6,3.3,1.9,4.8,0.6
			c0.8-0.6,1.5-2.6,2.2-3.4c0.8-0.9,1-1.5,1.3-2.9c0.3-1.5,0.3-2.7,1-4.1c0.7-1.4,1.5-2.9,2.2-4.3c0.6-1.3,1.3-1.8,2.5-2.3
			c1.4-0.6,2-1.7,2.8-3c1.8-3.1,3.5-6,4-9.5C342.3,72.8,343,68.8,342.6,65z M334.8,79.8c-0.5,1.2-0.1,3-1.2,3.7
			c-0.3,0.2-1,0.2-1.4,0.5c0,0.1,0,0.3,0,0.4c-0.1,0.4-0.3,0.6-0.7,0.6c-0.3,0.2-0.7,0-1.1,0.3c-0.6,0.5-0.5,1.3-0.9,1.8
			c-0.8,1-2.2,0.3-2.8,1.3c-1.2-1.9-2.5,0.2-3.8,0.7c-1.3,0.5-2.7-0.2-4.1-0.3c-1.8-0.2-4.9-0.5-3.1,2.1c0.7,1.1,1.3,1.9,2.6,2
			c2.1,0.1,4.1-0.1,6.2,0.4c0.5,0.2,1,0.3,1.5,0.4c0.6,0.3,0.9,0.2,0.9-0.4c0.6-0.2,0.8-0.9,1.5-0.4c1.2,0.8-0.6,3.3-1,4.1
			c-0.4,0.9-0.8,1.6-0.7,2.6c0,0.4,0.5,1,0.3,1.4c-0.2,0.5-2,1.7-2.5,2c-1.5,1.1-2.7,0.4-4.3-0.4c-1.5-0.7-2.9-0.8-4.5-1.3
			c-1-0.3-1.3-0.7-1.9-1.5c-0.5-0.6-1.4-1.1-1.9-1.7c-0.6-0.9-0.5-1.5-1.5-2.2c-0.5-0.3-1.4-0.6-1.8-1c-0.7-0.7-0.2-0.6-0.2-1.7
			c0-0.7-0.5-1-0.6-1.6c0.1-0.3,0.2-0.6,0.2-0.9c-0.1-0.4-0.2-0.8-0.4-1.2c0.7,0.5,1.4,1,2.3,1.1c-0.6-0.5-1.5-1.1-1.4-2.1
			c0.7,0.4,1.7,1.2,2.5,0.7c-0.2-0.3-0.5-0.5-0.8-0.8c0.4,0,0.7-0.1,1.1-0.1c-1.6-1-2.6-2.9-3.6-4.4c0.6,0.8,1.5,1.4,2.5,1.6
			c-4.1-3.5-3.2-9.6-3.6-14.3c-0.3-4.4,1.3-9.1,6.3-9.7c-0.5-0.4-1-0.7-1.5-0.9c0.8-0.7,1.8-0.6,2.7-0.6c-0.6-1.1-2-0.7-3-1.3
			c-0.7-0.4-2-1.4-2-2.3c0-2.1,3.7-1.3,5-1c1.5,0.3,4.8,2.3,6.2,1.2c1.6-1.4-4.5-3.7-5.4-3.9c-1.1-0.3-2.6,0.1-2.6-1.6
			c0.1-1.5,1.8-2.4,3-2.9c1.4-0.6,2.9-1.1,4.3-1.5c2.4-0.7,4.5,0.1,6.9,0.2c3.2,0.1,4.8,1,6.8,3.5c1.1,1.4,3.6,4.8,0.6,5.6
			c-0.8,0.2-4.2-0.1-3.5,1.8c0.4,1.1,2.3,0.8,3.2,0.7c0.8-0.1,2.6-0.5,2.4,0.8c-0.1,0.7-1.2,1-1.5,1.4c-0.7,0.8-0.1,1.3-1.6,0.5
			c1-1.4,0.3-1.3-1.1-1.1c-1,0.2-2.4,0.3-2.5,1.6c0,1.1,1,1.2,1.9,1.5c1.2,0.4,1.7,0.6,2.4,1.7c-0.6,0.6-2-0.2-2.6-0.3
			c2,1.9,5.3,2.3,6.4,5.1C339.1,73.4,336.2,76.5,334.8,79.8z"/>
		<path id="XMLID_93_" class="st31" d="M322.5,81.7l-0.9,0.2l-0.9,0.5l-0.3,0.9l0.1,0.5l0.8,0.2l0.9-0.1l0.7-0.2l0,0.5l-0.5,0.7
			l-0.9,0.3l0.3,0.5v0.4l-0.6,0.1l-0.5,0.7l-1.1,0.1l0.1-0.7l-1,0.6l-0.2,0.5c0,0-0.2-0.1-0.3-0.2s-0.4-0.5-0.4-0.5l-0.3,0.2
			c0,0,0,0.3-0.2,0.2s-0.7-0.5-0.7-0.5h-0.3l-0.7-0.2l-0.3,0.8l-0.2,1l0.1,0.5l0.5,1.2l0.3,0.8l0.5,0.5l0.7,0.9l0.5,0.2l1,0.1
			l1.1,0.4h0.7l1.1,0.1l0.3,0.2c0,0,0.3,0.1,0.5,0.1s0.3-0.1,0.5-0.1s0.6-0.2,0.6-0.2s0.6,0,0.8-0.1c0.2-0.1,0.6-0.2,0.6-0.2
			s0.3-0.1,0.5-0.1c0.2,0,0.6,0.1,0.8,0c0.2-0.1,0.9-0.2,0.9-0.2h0.6l0.5-0.1l0.6-0.2l0.4-0.2l1-0.7c0,0,0.4-0.2,0.6-0.5
			c0.2-0.2,0.4-0.5,0.4-0.8c0-0.2,0.3-1.1,0.3-1.1s0.3-0.4,0.3-0.6c0.1-0.2,0.3-0.4,0.2-0.6c-0.1-0.2-0.4-0.8-0.4-0.8l-0.1-0.8
			l-0.1-1l-0.4-0.2l-0.2,0.4l-0.4,0.2c0,0,0.1,0.2-0.2,0.1c-0.3-0.1-0.7,0-0.8,0s-0.8-0.3-0.8-0.3l-0.2-0.3c0,0,0.5-0.9,0.7-1.1
			c0.2-0.1,0.6-0.1,0.6-0.1s0-0.1-0.2-0.4s-0.5-0.5-0.5-0.5l-1-0.9L327,82l-1.4,0.1h-1.2C324.4,82.1,323.1,82.3,322.5,81.7z"/>
		<path id="XMLID_92_" class="st28" d="M316.2,56c0.8,0.3,3.1,0.7,3.5,1.6c0.9,1.9-2.6,1-3.4,0.7c-1.6-0.6-4.7-0.3-5-2.3
			C311.3,56,311.1,53.9,316.2,56z"/>
		<path id="XMLID_91_" class="st11" d="M323.5,82.7c1,0,2.4-0.6,3.3-0.1c0.8,0.4,0.9,1.2-0.1,1.5c0.3,0.3,0.7,0.4,1.1,0.3
			c-0.2,1.3-0.6,1.1-1.6,0.9c-1.1-0.2-1-0.4-2.1,0c-3.1,0.9-1-1.6,0.1-1.4C323.9,83.6,323,83.2,323.5,82.7
			C324.4,82.7,323,83.2,323.5,82.7z"/>
		<path id="XMLID_90_" class="st11" d="M315.5,73.7c-0.6,0.5-3.7,0.7-1.8,1.4C314.5,75.5,316.8,74.2,315.5,73.7z"/>
		<path id="XMLID_89_" class="st29" d="M310.3,63.5c-3,1.7-5,8-0.1,8.7c3.4,0.5,6.2-3.6,9.5-3.7c-3.1,2.6,0.1,3.8,1.8,2.4
			c0.9-0.8,3.7,2.2,5.8,0.3c1.7-1.5,0-3.6-0.4-5.2c-0.3-1.1-0.1-2.3-0.1-3.5c-0.1-1,0-2.6-1.2-3c-1.8-0.6-2.5,1.7-3.5,2.6
			c-1.4,1.2-3.9,1.4-5.7,1.8C316.5,63.9,312.5,64.5,310.3,63.5z"/>
		<path id="XMLID_88_" class="st33" d="M325,61.3c0.3,0.1,0.7,0.6,0.9,0.9c0.2,0.7,0.2,1.4,0.3,2.1c0.1,0.9,0.2,1.9,0.2,2.9
			c0,1.7-0.5,2.3-2.1,2.5c-1.2,0.1-3.3,0.6-4.4,0.2c0.4-0.3,0.6-0.9,1-1.2c0.3-0.2,0.8,0.1,1.1-0.1c0.8-0.5,0.8-1.1,1.2-1.8
			c0.5-1,1-1.5,1-2.6c0-0.6-0.1-1.2,0-1.8"/>
		<path id="XMLID_87_" class="st34" d="M313.5,64.9c-1.4-0.1-2.7-0.3-3.8,0.7c-0.9,0.9-1.5,2.4-0.2,3.2c0.9,0.6,2.4-0.1,2.9,1.1
			c0.7-0.6,1.4-1.3,2.3-1.7c0.7-0.4,1.6-0.4,2.3-0.8c1.2-0.7,0.8-1.2,0-2.3C316.2,64.8,313.5,64.9,313.5,64.9z"/>
		<path id="XMLID_86_" class="st33" d="M316.6,84.8c1.5,0,2.9,1,4.4,1C321.2,87.6,315.4,85.3,316.6,84.8
			C318.2,84.8,315.1,85.4,316.6,84.8z"/>
		<path id="XMLID_85_" class="st30" d="M314.7,76.6c0,0,6.3-0.3,7.4,0.2c1.1,0.5,2.6,0.3,3.3,0c0.7-0.2,2.8,0.3,6.2-0.3
			c0,0-2.4,4.4-4.5,5.1s-3.2,0.2-4.5,0.5C321.5,82.5,319.3,81.8,314.7,76.6z"/>
		<path id="XMLID_84_" class="st28" d="M316.8,77.4c-0.1,0.2-0.6,0.7-0.4,0.3c-0.1,0.2-0.2,0.3-0.3,0.5c1.5,1.5,2.6,2.5,3.6,3.2
			c1.1-0.8,4.5,0.8,5.4-0.7C326.3,78.8,319.1,78,316.8,77.4z"/>
		<path id="XMLID_83_" class="st11" d="M324.3,75.2c0.1-1-0.6-1.9-1.7-2.2c-0.6-0.1-1.8-0.1-1.7,0.5c0.1,0.1,0.1,0.2,0.1,0.3
			c0,0.1,0,0.1,0,0.2C321.2,75,324.2,77.2,324.3,75.2z"/>
		<path id="XMLID_82_" class="st31" d="M319.3,77.8c-1.3-0.6-2.7-1.6-4.2-1.5c-0.1,0-0.1,0-0.2,0c-0.2,0-0.3,0.2-0.2,0.3
			c0.2,0.9,2.5,2,2.9,2.2c1.8,0.8,4,1,6,0.9C322.1,78.9,320.8,78.5,319.3,77.8z"/>
		<path id="XMLID_81_" class="st31" d="M334.1,74.8c-0.6-1.1-2.4-0.2-3.4-0.4c-1.5-0.4-2.2-1.6-3.9-1c-1.5,0.5-2.5,1.9-0.7,2.7
			c1.7,0.8,3.8-0.4,5.6,0c-2.3,1-4.2,3.1-6.8,3.4c1.3,0.6,2.7,0.6,3.9-0.1c1-0.6,1.7-1.8,2.7-2.3c1-0.5,1.5,0.5,2.4,0.1
			C334.8,76.7,334.7,75.4,334.1,74.8C333.6,73.6,334.8,75.5,334.1,74.8z"/>
		<path id="XMLID_80_" class="st11" d="M315.2,76.9c0,0,0.8-0.1,1.2,0c0.5,0.1,2.1,0.7,2.1,0.7s6.7,2.9,11.3-0.5
			c0,0,2.3-1.1,0.9,0.2c-1.4,1.3-5,3.8-10.7,2C314.4,77.6,315.2,76.9,315.2,76.9z"/>
		<path id="XMLID_79_" class="st11" d="M325.5,73.8l-0.3,0.7c0,0-0.6,1.1-0.1,1.5l1,0.1l0.9-0.1l0.7-0.1l1-0.1l0.3,0.3l0.6-0.1
			l0.4-0.3l0.9-0.1l0.6,0.1l0.6,0.2c0,0,0.6,0.6,0.5,1.4c0,0,1.1,1.3,1.7-0.5c0,0,0.8-1.8-0.8-2.5l-0.2,0.6l-0.6-0.7l-0.3,0.4
			c0,0-0.4-0.8-1.2-1.2c0,0,0.8,2.3,0.1,1.8c-0.7-0.5,0.1-1.5-1.5-1.7l-0.8-0.1l-0.8-0.2l-0.7-0.2l-0.8,0.1l-0.3,0.5L325.5,73.8z"/>
		<g id="XMLID_76_">
			<path id="XMLID_78_" class="st34" d="M321.8,78.3c-0.6-0.4-1.6-0.3-1.6-0.3c-0.6-0.5-1.4-0.4-1.4-0.4c-0.4-0.3-1.1-0.3-1.1-0.3
				c-0.3,0.3-0.2,1.1-0.2,1.1c0.3,0.2,0.6,0.2,1,0.4c0.2-0.1,0.3-0.2,0.3-0.4c0,0,0.1,0.3,0.2,0.6c0.3,0.1,0.7,0.2,1.1,0.3
				c0.1-0.1,0.3-0.3,0.3-0.5c0,0,0,0.3,0.1,0.7c0.3,0.1,0.6,0.1,1,0.2c0.1-0.1,0.3-0.3,0.3-0.5c0,0,0,0.3,0.1,0.6
				c0.4,0.1,0.9,0.1,1.3,0.2c0.3,0,0.7,0,1,0l0-1.2C322.8,78.6,321.8,78.3,321.8,78.3z"/>
			<path id="XMLID_77_" class="st34" d="M324.5,78.6l0,1.2c0.6,0,1.3-0.1,1.8-0.2c0.1-0.2,0.2-0.4,0.2-0.6c0,0,0.1,0.2,0.2,0.5
				c0.2-0.1,0.5-0.1,0.7-0.2c0.2-0.2,0.2-0.5,0.2-0.5c0,0,0.1,0.2,0.2,0.4c0.2-0.1,0.4-0.1,0.4-0.1l0.2-1
				C326.9,78.5,325.6,78.6,324.5,78.6z"/>
		</g>
		<path id="XMLID_75_" class="st11" d="M340.1,63.1C339.7,61.2,340.3,64.6,340.1,63.1L340.1,63.1z"/>
		<path id="XMLID_74_" class="st11" d="M337.5,79.3c-1,2.5-2.4,5-4.5,6.8c-0.9,0.8-2.1,1.2-3,2.1c-0.9,0.8-1.5,1.5-2.8,1.7
			c-1,0.1-1.9-0.4-2.8-0.2c-1.3,0.3-0.7,1-1.3,1.4c-0.8,0.6-3.5-0.6-4.2-1.3c0.1,1.5-2.2-0.1-2.9-0.2c-0.1,0.9,0.3,1.4,0.8,1.9
			c0.2,0.1,0.5,0.2,0.7,0.3c0.1,0.3,0.3,0.5,0.4,0.8c1,0.7,3,0.8,4.1,0.8c1.6,0,3.4-0.4,4.9-0.9c0.8-0.2,1.9-0.4,2.6-0.8
			c1.3-0.8,1.6-1.8,1.7-1.8c1.8,0.4-3.8,9.1-2.5,10.9c1.8-6.4,6-11.7,8.2-18c1.1-3.2,2.4-6.4,3.1-9.6c0.2-1,0.5-2,0.6-3.1l-0.6,0.3
			C339.7,73.7,337.9,78.5,337.5,79.3z"/>
		<path id="XMLID_73_" class="st35" d="M340.1,63.1C340.3,64.6,339.7,61.2,340.1,63.1c-0.6-3.5-0.7-8.1-2.5-11.2
			c-1.5-2.7-4.4-5.3-7-7c-2.9-2-6.4-2.4-9.8-2.3c-3.1,0.1-6.4,0.1-9.2,1.7c-2.8,1.6-4.2,4.7-5.3,7.6c-1.5,3.8-2.3,7.8-2.6,11.8
			c-0.3,3.9-0.1,7.9,0.4,11.8c0.3,1.8,0.6,6.9,3.2,6.9c-3.7-6.4-0.7-14.1-0.7-20.9c0.9,0,1,1.2,2,1.3c0.2,0,2.2-1,2.3-1.1
			c0.6-0.8,0-2-0.9-2.5c-0.2-0.1-1-0.3-1.2-0.3c-0.2,0-0.8,0.4-0.8,0.4c-0.2,0-0.4,0.4-0.8-0.2c-0.2-0.4,0-1,0.1-1.4
			c0.9-3.2,4.5-3.6,7.2-2.7c-0.6-2.3-4-0.9-3.6-3.6c0.3-2.1,1.7-3.8,3.5-4.8c1.8-1,4.8-2,6.9-1.6c1.1,0.2,2.2,0.9,3.3,1.3
			c1.5,0.5,3,0.9,4.5,1.4c2.3,0.8,5,1.9,6.5,4c1,1.3,1.8,4.8-0.3,5.2c-0.7,0.1-1.6-1-2.2-0.2c-1,1.4,0.6,1.2,1.4,1.2
			c2.9-0.2,1.5,2.3,1.1,4c0,0-2.1-1.6-1.6,0c0.9,1.2,0.4,2.8,1.3,4c0.3,0.4,1.5,1.4,2,1.6c0.9,0.5,1.5-0.3,2.2,0.1
			c0.6,0.3,0.7,1.5,0.5,2.9l0.6-0.3c0.1-0.7,0.2-1.5,0.2-2.2C340.9,66.3,340.4,64.7,340.1,63.1z"/>
		<path id="XMLID_467_" class="st11" d="M308.5,55.7c0,0,1.5-1.9,4.3-0.7c2.8,1.2,7.6,2.3,7.6,2.3s1.7-2.1-1.4-2.9
			S309.2,50.9,308.5,55.7z"/>
		<path id="XMLID_465_" class="st11" d="M329.8,58.5c0,0-0.2-2.7,2.3-2.5c2.5,0.2,2.3,0.9,5.2,0.2l0.8,2.3c0,0-1.7-1.3-4-0.2
			C331.9,59.4,329.8,58.5,329.8,58.5z"/>
	</g>
	<path id="XMLID_71_" class="st36" d="M340.8,87.2c-2-1.8-3.3-1.9-3.3-1.9l-1.7,0.8l-2.1,4.8l-3.1,4.5c-2.6,6.3-7.1,11.1-7.1,11.1
		l0,0c0,0,0,0,0,0l0,0l0.2,2.1c0.3,2.8,1.7,6.3,1.6,9.2c0.5-0.2,1-0.5,1.5-0.7c0.3-0.2,0.6-0.3,0.9-0.5c-1.3-3.5-1-6.9-2.2-9.6
		c0.6-1.8,2.9-4,8.8-7.3c1-0.5,2.5-0.2,3.3-0.7c2.2-1.3,3.5-0.9,3.7-3.2c0,0,4.3,1.9,5.8,0.9C347,96.6,341.9,88.1,340.8,87.2z"/>
	<path id="XMLID_468_" class="st35" d="M310.1,59.3c0,0,1-1.6,4-1.2c3,0.4,3.7,0.9,5.1,2.4c0,0-0.7-2.1-4.2-2.5
		C311.9,57.6,310.7,58,310.1,59.3z"/>
	<path id="XMLID_464_" class="st35" d="M330.1,61.1c0,0,2.2-1.7,4.9-0.7c2.8,0.9,1.9,2.6,1.9,2.6s1.3-1.7-1.4-2.7
		S330.6,60.4,330.1,61.1z"/>
	<path id="XMLID_70_" class="st36" d="M322.7,107.6c0.4,0.4,0.8,0.7,0.9,1l-2-3.4l-12.5-7.7l-1.5-1.4c0,0-3.6-5.2-4-13.2l0.1,0
		l-2.7-3.1c-1.6,2.2-11.4,15.5-12.4,16.5c0,0,8-0.3,11.4-3.1c0,0-0.1,3.5,1.8,4.7l2.4,2.5l7.6,2c1.8,0.5,3.6,1.2,5.3,1.9
		c1.3,0.7,4.7,3.6,5.2,14.6l2-0.9C324.3,118.2,324.8,111.5,322.7,107.6z"/>
	<g id="XMLID_25_">
		<path id="XMLID_69_" class="st37" d="M301.7,43.7c2.3-4,4.5-8.6,7.8-11.9c2.9-2.9,6.8-5.2,10.7-6.5c4.8-1.6,7.2,1.2,10.1,4.6
			c1.7,1.9,3.3,3.8,5,5.8c1.4,1.7,3.4,3.4,4.1,5.5C326.8,39.8,313.9,40.4,301.7,43.7C303.5,40.4,313.7,40.4,301.7,43.7z"/>
		<path id="XMLID_68_" class="st38" d="M302.7,43.2c0.1-0.7,0.5-0.9,0.7-1.3c0.1-0.2,0.1-0.7,0.2-1c0.5-1.2,1.5-2.3,2.3-3.3
			c1.3-1.7,3.7-3.8,6.1-3.5c-0.8-1.6,1.2-2.3,2.4-2.8c1.5-0.6,3.9-0.2,5.4,0.3c1.8,0.5,3.2,1.4,5,1.1c0.8-0.1,1-0.4,1.8,0
			c0.5,0.2,1.2,1.5,1.8,0.8c-0.2-0.2-1.3-0.9-1.1-1.3c0.3-0.9,1.6,0.1,2,0.4c1.7,1.1,2.6,2.6,4.1,3.8c0.5,0.4,1.1,0.3,1.2,0.3
			c0.5,0.2,0.6,0.6,1.1,1.1c1,1,3.1,1.6,2.8,3.4c-1.4-0.7-2.2-1.2-3.2-2.4c-0.7-0.8-0.6-0.8-1.6-1.1c-0.8-0.2-1.4-0.7-2.2-0.9
			c-2.3-0.8-4.3-0.7-6.5-1.6c0.1,0.6,0.2,1.4,0.8,1.8c0.6-1.6,1.7,0.4,2.5,0.4c-0.2-1.3,7.2,0.9,6.4,2.8c-0.3,0.8-7.2-0.2-8-0.2
			C318.6,39.8,310.5,40.8,302.7,43.2C302.7,42.9,312.1,40.3,302.7,43.2z"/>
		<path id="XMLID_67_" class="st23" d="M304.3,42.5c0-1.6,0.9-1.7,2.1-2.2c1.2-0.5,1.8-1.5,2.9-2c1-0.4,1.6-0.8,2.5-1.3
			c0.3-0.2,0.7-0.4,1-0.5c0.4,0.2,0.7,0.1,0.7-0.4c0.5-0.2,0.7-0.3,1.3-0.3c0.9-0.1,2,0.2,1.3,1.2c-0.4,0.5-1.9,0.4-2.5,0.6
			C310.5,38.8,307.7,42.1,304.3,42.5C304.3,40.7,306.5,42.3,304.3,42.5z"/>
		<path id="XMLID_66_" class="st24" d="M307.9,42.1c3-3.5,8.3-4.4,12.7-4.9c5.1-0.6,10.9,0,15.2,3.2C326.4,41,317.1,41.6,307.9,42.1
			C310.9,38.7,317.1,41.6,307.9,42.1z"/>
		<path id="XMLID_65_" class="st23" d="M307.9,43.1c3-3.5,8.3-4.4,12.7-4.9c5.1-0.6,10.9,0,15.2,3.2C326.4,42,317.1,42.6,307.9,43.1
			C310.9,39.7,317.1,42.6,307.9,43.1z"/>
		<path id="XMLID_64_" class="st37" d="M307.6,56.8c1.3-4.9,2.9-10.6,7.7-13.1c5.4-2.8,10.7-0.4,15.7,1.9c1.9,0.9,4.7,1.5,6,3.3
			c0.6,0.8,0.6,1.9,1.3,2.6c1,1,1.7,0.5,3,0.2c2-0.5,3.9-0.8,5.9-1.1c2.1-0.3,3.2-0.4,2.3-2.8c-4.1-10.1-20.8-9-29.3-8.3
			c-8.5,0.7-22.3,1.4-27.3,9.8c-1.8,3-3,13.4,2.7,12c3.3-0.8,6.6-1.3,9.9-2c2.6-0.5,1.9-1.4,2.5-3.6C307.9,56,307.6,57.1,307.6,56.8
			C308.8,52.2,307.4,57.7,307.6,56.8z"/>
		<path id="XMLID_63_" class="st24" d="M349.3,47.7c-0.4-0.8-1.1-1.7-1.9-2.2c-0.6-0.4-1.4-0.3-1.4-1.1c-0.6,0.4-0.9,0.1-0.7-0.6
			c-0.3,0.4-0.8,0.6-0.9-0.1c-0.7,0.6-1.4-0.1-1.6-0.7c-0.3,0.4-0.7,0.6-0.8-0.1c-0.5,0.7-0.9,0-0.8-0.6c-0.3,0.4-1.1,1.2-1.2,0.2
			c-0.8,1-0.9-0.1-0.7-0.7c-0.3,1.2-0.3,0.4-0.9,0.5c-0.6,0.1-1.6,0.3-1.8-0.5c-0.8,0.9-1.3,0.1-2.1-0.1c-0.5-0.1-0.9,0.1-1.4,0
			c-0.3,0-0.6-0.4-1-0.4c-0.4-0.1-2.2,0-1.8,0.1c-0.6-0.2-1.2-1.1-1.6-0.1c-0.5-1.4-0.4-0.2-1-0.2c-0.4,0-0.4-0.6-0.8-0.4
			c-0.4,0.2,0.1,0.9-0.5,0.8c-0.3-0.1-0.2-0.8-0.4-0.8c-0.3-0.1-0.5,0.3-0.6,0.3c0.2,0-1.6,0.1-0.9-0.8c-0.6,0.8-1.9,0.9-2.9,0.9
			c0.2-0.1,0.3-0.2,0.5-0.3c0-0.1-4.3,0.7-4.5,0.8c0-0.3-0.1-0.5-0.3-0.7c-0.4-0.1-1.9,0.8-2.3,0.9c-0.2-0.4-0.4-0.5-0.5-0.3
			c-0.1,0.1-0.2,0.2-0.4,0.2c-0.5,0.1-1,0.3-1.5,0.3c-0.7,0.1-1.6,0-2.1,0.2c-0.4,0.1-0.7,0.6-1.1,0.7c-0.7,0.2-1.3-0.1-2.1-0.1
			c0.3,0.9-0.7,1.1-0.8,0.1c-0.1,0.3-0.4,0.5-0.7,0.5c-0.5-0.1-0.6,0-0.4,0.5c-0.2-0.2-0.3-0.3-0.5-0.4c-0.2,0.1-0.4,0.2-0.6,0.3
			c-0.7,0.1-1.7,0.5-2.1,0.6c-0.5,0.2-1.1,0.5-1.6,0.6c0.2-0.1-1,0.3-0.8,0.1c-0.1,0.1-0.9,0.7-0.6,0.5c-0.6,0.2-1.7-0.2-1.6,1
			c-0.9-0.5-0.5,0.4-0.9,0.7c-0.1,0.1-0.6,0-0.5-0.1c-0.3,0.3-0.5,0.7-0.7,1c-0.2,0.2-0.5,0.3-0.8,0.6c-1,1.1-1.7,2.7-2,4.1
			c-0.2,0.8-0.4,1.6-0.5,2.4c0,0.6,0,1.2,0.1,1.8c-0.1,0.9,0.2,1.1,0.8,0.7c0,0-0.2,1.3-0.2,1.3c0,0.5,0.3,1.1,0.5,1.5
			c0.8,1.5,1.6,1.4,3.2,1.2c3.7-0.4,7.5-0.5,11.2-0.7c-0.7-3.7,1.1-7.3,2.8-10.5c1.6-3,3.5-5,6.7-6.2c3.5-1.3,6.7-1.1,10.1,0.6
			c1.9,0.9,3.7,2,5.5,3c1.3,0.7,2.9,1.3,4,2.3c2,1.9,2.7,5.4,3.4,7.9c0.3,1.2,0.5,1.4,1.8,1.3c1,0,2.5,0,3.4-0.3
			c1.8-0.4,2.6-4.1,3.3-5.8c0.9-2.3,1.5-4.4,0.4-6.7c0.2,0.5,0.5,1,0.7,1.5C349.5,48.2,349.4,48,349.3,47.7
			C348.7,46.5,350.6,50.3,349.3,47.7z"/>
		<g id="XMLID_46_">
			<g id="XMLID_47_">
				<path id="XMLID_62_" class="st16" d="M298.8,79.5C298.8,79.5,298.8,79.5,298.8,79.5L298.8,79.5z"/>
				<path id="XMLID_61_" class="st16" d="M298.7,79.5C298.7,79.5,298.7,79.5,298.7,79.5C298.7,79.5,298.7,79.5,298.7,79.5z"/>
				<path id="XMLID_60_" class="st16" d="M298.7,79.5C298.7,79.5,298.7,79.5,298.7,79.5C298.7,79.5,298.7,79.5,298.7,79.5z"/>
				<path id="XMLID_59_" class="st16" d="M296.2,78.2C296.1,78.1,296.1,78.1,296.2,78.2L296.2,78.2z"/>
				<path id="XMLID_58_" class="st16" d="M298,82.9C298,82.9,298.1,82.9,298,82.9C298,82.9,297.4,83.3,298,82.9z"/>
				<path id="XMLID_48_" class="st16" d="M306,84.7c1.2,1.3,2.9,2,4.1,3.3c-0.2-0.8-0.5-1.6-1-2.2c0.3,0.2,0.7,0.5,1,0.7
					c-1.4-2.1-3.5-3.9-3.9-6.6c0.5,0.8,1.1,1.6,1.9,2c-2-2.3-2-6.5-1.8-9.4c0.1-1.8,0.4-3.6,0.7-5.3c0.4-1.9,0.4-2.9,0.6-4.7
					c0.4-3.4,1.2-6.5,2.9-9.5c1.5-2.7,1.7-5.3,4.5-7c2.2-1.4,5.2-2.3,7.7-1.8c3.3,0.7,6.3,3.6,9.2,5.1c0.7,0.4,1.4,0.7,2.2,0.8
					c0.6,0.1,1.4-0.1,2,0.2c1.1,0.5,1.4,2,2,3.1c1.7,3.4,2.8,6.7,3.6,10.4c0.3,1.5,0.9,3,0.6,4.6c-0.3,1.6-1.3,3.1-1.9,4.7
					c-1.3,3.8-1.7,7.8-2,11.8c0.9-0.7,1.8-1.4,2.9-1.7c0,1.6-0.9,3.2-2.2,4.1c1.1,1,2.3-0.7,2.8-1.5c0.7-1.2,0.7-2.5,0.1-3.8
					c2-0.5,6.2-4.4,4.9-6.9l0-0.1c0-0.1,0.1-0.2,0.1-0.3c0.5-2.1-0.8-4-0.2-6.3c-0.7,0.2-1.1-8.1-1-8.9c0.2-1.8,0.7-3.7,0.6-5.6
					c-0.2-1.7-1.3-2.5-2.4-3.7c-5.5-5.8-12.3-6.5-19.9-6.8c-4-0.2-7.5,0.6-11.2,2.2c-3.4,1.5-7.1,2.4-10.5,4
					c-2.6,1.2-6.1,3.4-7.3,6.1c-0.6,1.3-1.1,3.2-1.4,4.6c-0.1,0.6-0.2,1.3-0.3,1.8c-0.1,0.8-0.5,1,0.1,1.8c-0.5,0.2-1-0.1-1-0.7
					c-1.5,1.3,0.8,1.2,1.4,1.7c0.8,0.7,0.2,1.5-0.1,2.5c-0.4,1.4-0.5,1.8,0.4,2.8c0.3,0.3,1.5,1,0.2,0.8c0.2,1.1,0.3,1.6,0.2,2.7
					c0,1,0,2.6,0.3,3.6c0.5,1.9,2.7,3.4,4.5,2.4c-0.4,1.1-3.1,0.8-3.9,0.4c0.6,0.4-0.2,2.8-0.3,3.6c0,0.2,0.1,0.5,0,0.7
					c0,0.1-0.4,0.5-0.4,0.5c-0.1,0.7-0.5,1.2,0.7,1.7c-0.2-0.4-0.9-1.1-0.1-1.3c0.2,0.5,0.5,1,0.8,1.4c0.1-0.7-0.2-1.3,0.1-1.9
					c0.4-0.7,1.5-0.9,2.2-1.2c-0.8,1.7-0.7,3.4,0.3,4.9c0.7,1.1,1.8,2.9,3.2,3.1c-0.8-0.3-1.5-1-1.6-1.9c0.8,0,1.3,1,2.1,0.2
					c0.3-0.3,0.4-1.5,0.4-1.9c0,0,0.2-4.1,2.6-0.5C305.4,87.6,304.5,84.9,306,84.7z M298.5,79.5c0.1,0,0.1,0,0.2,0
					C298.6,79.5,298.6,79.5,298.5,79.5c-1,0.1-3.5-1.3-2.1-2.5c0.1,0.2,3.1,2.4,2.7,2.5C298.9,79.5,298.7,79.5,298.5,79.5z
					 M298.3,79.6C298.3,79.6,298.3,79.6,298.3,79.6L298.3,79.6z M298.3,79.6C298.3,79.5,298.4,79.5,298.3,79.6
					C298.4,79.5,298.3,79.5,298.3,79.6z M298.1,82.9C298.1,82.9,298.1,82.9,298.1,82.9c-0.9,0.5-1.7,0.9-2.5,1.4c0-0.9,0-1.6,0.7-2
					c0,0,0.6,0.1,0.7,0.1c0.5-0.2,1-0.5,1.6-0.6C298.6,82.2,298.5,82.6,298.1,82.9z M298.6,84.1c0,0,0-0.2,0.3-0.8
					c1.1,0.1,0.2,1.8,0.2,2.6c0,1.1,0.1,2.2,0.4,3.2C298.1,87.8,298.1,85.8,298.6,84.1z M301.9,85.4c-0.7,0.5-0.5,4.3-1.9,3.6
					c-0.9-0.5-0.8-3-0.7-3.9c0.1-0.9,0.5-3.3,1.9-2.2c0.2,0.1,0.4,0.9,0.4,1.2C301.8,84.9,302.3,84.2,301.9,85.4z M340,87.1
					c0,0,1.2-1.4,1.8-3C341.8,84.1,342.3,86,340,87.1z M345.9,71.8c0.5,0.9,0.8,1.9,0.8,3C345.8,73.2,345.9,71.8,345.9,71.8z"/>
			</g>
		</g>
		<path id="XMLID_45_" class="st18" d="M323.7,43.4c1.1,1.1,2.5,2.2,3.8,3c1.5,0.9,2.3,0.1,3.7,0.5c1.6,0.4,1.3,1.4,1.8,2.6
			c0.4,1,1.6,1.5,2.3,2.2c0.8,0.8,1.4,2,1.5,3.2c0.1,1.4,0.1,1.5,0.7,2.9c1,2.2-1.3,3.7-0.9,5.9c0.3,1.4,1.5,2.5,2,3.9
			c0.6,1.7,0.2,3.4-0.2,5.1c-0.8,3.4-1.4,7-3.3,9.9c-0.7,1-1.6,1.9-2.3,3c-0.6,0.9-0.3,0.9-0.2,1.8c0.1,1.2,0.1,3.2-0.1,4.4
			c-0.3,1.4-2.1,2.3-2,3.8c0.7-0.9,1.9-1.9,2.7-2.7c0.1,0.3,0.3,0.5,0.4,0.8c0.9-0.7-0.4-1.7,0.7-2.5c0.4,1.8,3.6,0.6,2.4-1.2
			c0.8-0.5,1.1,1,1.6,1.3c1.6,0.8,0-2.3,0-3c0.3,0.1,0.6,0.2,0.9,0.3c0-0.8,0.9-0.6,0.6-1.4c-0.1-0.3-0.7-0.3-0.7-0.6
			c-0.1-0.5,0.3-0.4,0.4-0.9c0.4-1.2,0.3-2.3,0.4-3.5c0.1-1.2,0.7-2.3,0.9-3.4c0.8,0.9-0.7,4.1,0.2,4.4c0.8,0.3,1.6-2.9,1.6-3.2
			c0.1-0.6-0.4-2.4-0.2-2.9c0.4-0.6,0.1,0,0.6-0.3c0.6-0.3,0.9-0.1,1.5-0.8c0.2-0.2,0.1-0.7,0.3-1c0.1-0.2,0.5,0,0.5-0.1
			c0.6-1.5-0.2-3.4-0.5-4.9c-0.3-2,0.1-4-0.6-5.9c-0.7-1.9-1.5-3.5-1.8-5.5c-0.4-2-0.6-4.1-1.7-5.8c-0.1,0.4-0.3,0.7-0.4,1.1
			c-1.3-1.5-1.7-3.6-2.8-5.3c-0.4-0.6-0.7-1.3-1-1.8c-0.3-0.5-1.2-0.9-1.4-1.6c2.7,1.4,5.3,3.3,7,5.8c1.3,1.9,2.8,5.1,2.7,7.4
			c-0.2-0.2-0.5-0.5-0.8-0.7c-0.9,1.7,3.2,6.7,1,7.8c0.5,0.6,1,1.2,0.9,2.1c0.5-1-0.1-2.1,0-3.1c0-0.6,0.2-1.2,0.3-1.8
			c0.3-1.7,1-2.9,1.8-4.4c1.7-3.3,2.7-6.9,1.1-10.5c-0.5,0.4-1.2,0.6-1.4-0.3c-0.5,1.5-2.5-0.8-3.2-1.2c-1.9-1.1-4.2-1.9-6.4-2.2
			c-2.3-0.4-4.6-0.4-6.9-0.8C329,42.9,326.3,42.6,323.7,43.4C324.7,44.3,328,42.2,323.7,43.4z"/>
		<path id="XMLID_44_" class="st16" d="M302.3,71.5c0.5,0.3,1,3.6,0.6,3.6C302,75.2,302.1,72.1,302.3,71.5z"/>
		<g id="XMLID_32_">
			<path id="XMLID_39_" class="st39" d="M306.1,56.4C305.3,57.2,307.2,56.6,306.1,56.4c-0.7,0.7-0.6,1.5-0.8,2.4
				c-0.2-1-0.9-2.6-1.1-0.7c-0.2,1.9,0.6,3.7-0.2,5.5c-0.8,1.8-0.8,2.7-0.3,4.6c0.3,1.2-0.1,1.2-0.3,2.2c-0.3,1.2,0.3,2.5,0.3,3.8
				c0.9-0.4,0.9-1.7,0.8-2.6c0.9,1.2-0.1,3.1,0,4.5c0.1,1.3,0.6,3,1.8,3.7c-0.6-2.1-1-4.3-0.9-6.5c0.1-0.9,0.7-1.8,0.7-2.6
				c0.1-1.7-0.6-0.8-1.2-0.2c0.3-1,0.8-1.7,0.8-2.8c0-0.6-0.7-1.4,0.6-1.1c-0.5-0.6,0.3-1.5,0.5-2.2c0.2-0.9,0.2-2.1,0.2-3.1
				C306.8,60.6,307.3,56.6,306.1,56.4z"/>
			<path id="XMLID_38_" class="st39" d="M295.8,60.3c1.6,0.2,1.7,1.3,1.4,2.6c-0.1,0.2-0.2,1.3-0.2,1.3c-0.1,0.3,0.2,0.9-0.6,0.8
				C295.5,65,295.5,60.4,295.8,60.3C297,60.5,295.5,60.4,295.8,60.3z"/>
			<path id="XMLID_37_" class="st39" d="M296.5,66c1.2,0.7,0.2,1.6,0.1,2.6c-0.1,0.8,0.6,2-0.3,2.6C295.6,69.4,295.6,67.8,296.5,66
				C297.8,66.8,295.6,67.9,296.5,66z"/>
			<path id="XMLID_36_" class="st39" d="M297.7,69c1.2,0.5,0.6,2.1,1,3.2C297.2,72.4,297.4,69.8,297.7,69z"/>
			<path id="XMLID_35_" class="st39" d="M299.2,80c0.6,0.3,1.9,1.6,0.8,2.1C298.8,82.6,299,80.1,299.2,80z"/>
			<path id="XMLID_34_" class="st39" d="M299.6,76.6c1,0.6,2.3,2.6,2.5,3.8c0.1,0.5-0.2,1,0.1,1.5c0.3,0.5,1,0.8,1,0
				c0.7,0.3,1.1,1.7,1.6,2.3c0.9,1.1,1.7,2.4,0.6,3.7c-0.6-0.4-0.9-1.4-1.7-1.2c-0.3,0.1-0.4,1.6-1.1,1.1c-0.6-0.4,0.3-2.8,0-3.6
				c-0.3-0.9-1.1-1.5-1.4-2.4c-0.2-0.8-0.1-1.3-0.4-2C300.7,79.5,299.1,76.9,299.6,76.6C300.6,77.3,299.2,76.8,299.6,76.6z"/>
			<path id="XMLID_33_" class="st39" d="M303.5,58.6c0.2,0.7,0.1,1.7-0.7,1.7C302.8,60.1,303.2,58,303.5,58.6z"/>
		</g>
		<path id="XMLID_31_" class="st40" d="M333.8,44.8c2,1.6,3.8,3.6,4.9,6c1,2.3,1.5,4.7,2.7,6.8c0.5,1,1.1,1.9,1.3,3
			c0.3,1.4,0,2.8,0.2,4.2c0.4,2.6,1.7,5.1,0.1,7.6c2.5-1.3,1.5-5,0.9-7c-0.9-2.9-0.4-6.1-1.8-8.8C339.9,52.2,339.7,45.7,333.8,44.8
			C335.2,45.9,337.3,45.3,333.8,44.8z"/>
		<path id="XMLID_30_" class="st40" d="M313.8,45.4c-1.3,5.6-2.7,11.2-4.8,16.5c-1,2.4-2.2,4.7-2.7,7.3c-0.6,2.9-0.5,6-0.1,8.9
			c-2.7-4.9-0.5-11.2,1.3-16c1.1-2.9,2.3-5.8,3.2-8.7C311.5,50.9,311.7,47.1,313.8,45.4C312.6,50.5,312.6,46.4,313.8,45.4z"/>
		<path id="XMLID_29_" class="st18" d="M315.3,44.6c-5.3,0.4-10.9,2.1-15.2,5.2c-1.5,1.1-3.4,2.3-3.9,4.2c-0.1,0.5-0.4,1.7,0.3,1.9
			c0.7,0.2,1-0.9,1.6-1.1c0.9-0.2,0.6,0.3,0.2,0.9c-0.7,1-1.7,0.4-2.5,0.8c-0.8,0.3-1.8,1.8-1.8,2.7c-0.1,1.4,0.9,3.6,2,1.8
			c0.5-0.8,0.6-1.5,1.2-2.3c0.9-1.1,1.8-2.3,2.7-3.4c0.8,1.1-0.1,2.2-0.2,3.3c0,0.7,0.2,1.2,0,1.9c-0.1,0.3-0.6,0.5-0.7,0.9
			c-0.3,0.8-0.1,1.9,1,1.3c0.5-0.3,1-1.9,1.1-2.4c0-1-0.7-1.4-0.3-2.5c0.1-0.4,0.7-0.7,0.9-1.2c0.2-0.3,0.1-0.9,0.3-1.2
			c0.5-0.7,1-0.2,1.6-0.5c0.7-0.4,0.2-1.3,0.9-1.5c0.7,1.9,1,2.4,2.8,1.7c0.5-0.2,0.4,0.4,0.9-0.6c0.4-0.9,0.2-1.9,0.9-2.7
			c0.1,0.4,0.1,0.7,0.2,1.1c0.8-0.5,0.8-1.4,1-2.1c0.7,0.9,1.5-2.1,1.7-2.5C312.3,46.6,313.7,45.7,315.3,44.6
			C312.3,44.8,314.1,45.4,315.3,44.6z"/>
		<path id="XMLID_28_" class="st40" d="M302.1,53.2c0,0-4.7,5.7-1.9,15.4C300.2,68.6,299.2,59.7,302.1,53.2z"/>
		<path id="XMLID_27_" class="st40" d="M302.2,58.1c0,0-2.4,8.4,0.6,18.5C302.8,76.5,301.4,65.7,302.2,58.1z"/>
		<path id="XMLID_26_" class="st38" d="M313.7,30.5c2-0.5,3.5-0.1,5.5,0.2c0.9,0.1,1.7,0.3,2.6,0.5c1.6,0.4,2.4,0.2,1.9-1.9
			c-0.8-2.9-3.1-3.8-5.6-2c-1,0.7-1.8,1.5-2.9,1.9C315,29.3,311.8,30.5,313.7,30.5z"/>
	</g>
	<path id="XMLID_24_" class="st5" d="M303.7,85.7c-1.4,0.1-0.9,2.6-0.9,2.6c1.1-1.4,2,0.5,0.6,1.4c0.3,0.4,1.2,0.6,1.4,1
		c0.2,0.6-0.6,0.6-0.4,1.2c0.2,1,1.5,1.2,1.5,2.2c0.1,1.2-0.5,1.4,0.8,2.2c0.7,0.5,2.6,1.8,3.5,1.7c-1.6-2-3.3-4.1-3.9-6.5
		c-0.3-1-0.8-3.1-0.8-4.8C305,86.2,304.4,85.6,303.7,85.7z"/>
	<g id="XMLID_419_">
		<path class="st30" d="M314.3,62.1c-1.2,0-2.4-0.5-3.2-1.5l-0.1-0.1l0.1-0.1c0-0.1,1.1-1.3,3-1.3c0.2,0,0.3,0,0.5,0
			c1.2,0.1,1.8,0.6,2.4,1.1c0.5,0.4,1,0.8,1.8,1l0.1,0l0,0.1l-0.1,0.1c0,0-0.1,0.1-0.2,0.1c-0.1,0-0.2,0-0.3-0.1
			c-0.1,0-0.4-0.1-0.8-0.1c-0.3,0-1,0-1.6,0.4C315.5,62,314.9,62.1,314.3,62.1z"/>
		<g>
			<path class="st35" d="M314.1,59.2c0.2,0,0.3,0,0.5,0c2.1,0.3,2.3,1.5,4.2,2.1c0,0,0,0.1-0.1,0.1c-0.1,0-0.1,0-0.2-0.1
				c-0.2-0.1-0.5-0.1-0.8-0.1c-0.5,0-1.1,0.1-1.7,0.4c-0.4,0.2-1,0.4-1.6,0.4c-1,0-2.2-0.4-3.1-1.5
				C311.2,60.5,312.3,59.2,314.1,59.2 M314.1,58.9c-1.9,0-3,1.3-3.1,1.4l-0.1,0.2l0.1,0.2c0.8,1,2,1.6,3.3,1.6
				c0.6,0,1.3-0.1,1.7-0.4c0.6-0.3,1.3-0.4,1.6-0.4c0.4,0,0.6,0.1,0.7,0.1c0.1,0,0.2,0.1,0.3,0.1c0.2,0,0.3-0.1,0.3-0.1
				c0.1-0.1,0.1-0.2,0.1-0.3l0-0.1l-0.1,0c-0.8-0.2-1.3-0.6-1.8-1c-0.6-0.5-1.2-0.9-2.4-1.1C314.4,58.9,314.3,58.9,314.1,58.9
				L314.1,58.9z"/>
		</g>
	</g>
	<g id="XMLID_418_">
		<path class="st30" d="M334.5,63.7c-0.7,0-1.6-0.1-2-0.5c-0.7-0.6-1.9-0.9-2.4-0.9l-0.2,0c-0.2,0-0.3,0-0.4-0.1l0,0l0-0.2l0-0.1
			l0.1,0c0.5-0.2,0.9-0.3,1.3-0.5c0.6-0.3,1.2-0.6,2.5-0.6l0.1,0c2.1,0,2.9,1.7,3,1.7c0,0.3,0,0.4-0.2,0.6
			C335.9,63.7,334.9,63.7,334.5,63.7L334.5,63.7z"/>
		<g>
			<path class="st35" d="M333.3,61c0,0,0.1,0,0.1,0c2.1,0,2.8,1.7,2.8,1.7c0.1,0.7-0.9,1-1.8,1c-0.8,0-1.6-0.2-1.9-0.4
				c-0.7-0.7-2-0.9-2.5-0.9c0,0-0.1,0-0.1,0c0,0-0.1,0-0.1,0c-0.3,0-0.3-0.2-0.3-0.2C331.2,61.6,331.4,61,333.3,61 M333.3,60.8
				c-1.3,0-1.9,0.3-2.5,0.6c-0.4,0.2-0.7,0.3-1.2,0.5l-0.1,0l0,0.1c0,0.1,0,0.2,0.1,0.3c0.1,0.1,0.2,0.2,0.5,0.2c0,0,0.1,0,0.1,0
				l0.1,0c0.5,0,1.6,0.3,2.3,0.9c0.4,0.3,1.3,0.5,2.1,0.5c0.5,0,1.5-0.1,1.9-0.6c0.2-0.2,0.2-0.4,0.2-0.7l0,0l0,0
				c0-0.1-0.9-1.8-3.1-1.8L333.3,60.8L333.3,60.8z"/>
		</g>
	</g>
	<path id="XMLID_417_" class="st41" d="M335.6,61.8c-0.5-0.4-1.2-0.8-2.2-0.8c-1.5,0-2,0.3-2.8,0.7c0,0.3,0,0.5,0,0.6
		c0.6,0.1,1.4,0.4,1.9,0.8c0.4,0.4,1.9,0.6,2.9,0.3C335.6,62.9,335.7,62.2,335.6,61.8z"/>
	<path id="XMLID_416_" class="st42" d="M334.4,62.1c0-0.4-0.1-0.7-0.3-1c-0.2,0-0.4-0.1-0.6-0.1c-1,0-1.6,0.1-2.1,0.4
		c-0.1,0.2-0.2,0.5-0.2,0.7c0,0.1,0,0.3,0,0.4c0.5,0.1,0.9,0.4,1.3,0.7c0.2,0.2,0.6,0.3,1,0.4C334.1,63.3,334.4,62.7,334.4,62.1z"/>
	<ellipse id="XMLID_23_" class="st18" cx="332.8" cy="62" rx="0.6" ry="0.6"/>
	<path id="XMLID_414_" class="st41" d="M314.6,59.2c-2.1-0.3-3.4,1.3-3.4,1.3c1.5,1.9,3.7,1.6,4.7,1.1c0.5-0.3,1.1-0.4,1.6-0.4
		c0-0.2,0-0.3,0-0.5C316.6,60.1,316.2,59.4,314.6,59.2z"/>
	<path id="XMLID_413_" class="st15" d="M314.6,59.6c1.6,0.2,2.1,0.9,3,1.5c0-0.1,0-0.2,0-0.3c-0.9-0.6-1.4-1.3-3-1.5
		c-2.1-0.3-3.4,1.3-3.4,1.3c0.1,0.1,0.1,0.1,0.2,0.2C311.8,60.3,312.9,59.4,314.6,59.6z"/>
	<path id="XMLID_22_" class="st42" d="M315.4,59.4c-0.2-0.1-0.5-0.1-0.8-0.2c-0.4,0-0.8,0-1.1,0c-0.4,0.3-0.7,0.8-0.7,1.4
		c0,0.4,0.2,0.9,0.4,1.2c0.9,0.3,1.7,0.2,2.3,0c0.2-0.3,0.4-0.7,0.4-1.1C315.9,60.1,315.7,59.7,315.4,59.4z"/>
	<ellipse id="XMLID_21_" class="st18" cx="314.4" cy="60.5" rx="0.6" ry="0.6"/>
	<path id="XMLID_20_" class="st18" d="M315.3,59.3c0,0-0.1,0-0.1,0c0,0-0.1,0-0.1,0c0,0-0.1,0-0.1,0c0,0-0.1,0-0.1,0
		c-0.1,0-0.2,0-0.3,0c-0.1,0-0.2,0-0.3,0c0,0,0,0-0.1,0c-0.1,0-0.2,0-0.2,0c0,0,0,0,0,0c-0.1,0-0.2,0-0.2,0c0,0,0,0-0.1,0
		c-0.1,0-0.2,0-0.2,0c0,0,0,0,0,0c-0.2,0.1-0.3,0.3-0.4,0.4c0.4-0.1,0.9-0.2,1.5-0.1c0.5,0.1,0.8,0.2,1.2,0.3
		c-0.1-0.2-0.2-0.3-0.4-0.5C315.4,59.4,315.3,59.4,315.3,59.3z"/>
	<g id="XMLID_395_">
		<path id="XMLID_19_" class="st43" d="M315.6,60.4c-0.1-0.4-0.2-0.6-0.3-0.3c-0.1,0.1,0.1,0.3,0.1,0.5L315.6,60.4z"/>
	</g>
	<g id="XMLID_17_">
		<path id="XMLID_18_" class="st43" d="M334,61.8c0-0.4-0.1-0.6-0.3-0.4c-0.1,0.1,0,0.3,0,0.5L334,61.8z"/>
	</g>
	<path id="XMLID_16_" class="st15" d="M333.5,61.3c1,0,1.7,0.4,2.2,0.8c0,0,0,0,0,0c0-0.1,0-0.3,0-0.4c-0.5-0.4-1.2-0.8-2.2-0.8
		c-1.5,0-2,0.3-2.8,0.7c0,0.2,0,0.3,0,0.4c0,0,0,0,0-0.1C331.4,61.7,331.9,61.3,333.5,61.3z"/>
	<path id="XMLID_390_" class="st18" d="M334.1,61.1c-0.1,0-0.2,0-0.3,0c-0.1,0-0.2,0-0.3,0c-0.1,0-0.2,0-0.2,0c0,0,0,0-0.1,0
		c-0.1,0-0.1,0-0.2,0c0,0,0,0,0,0c-0.1,0-0.1,0-0.2,0c0,0,0,0-0.1,0c-0.1,0-0.1,0-0.2,0c0,0,0,0,0,0c-0.1,0-0.1,0-0.2,0
		c0,0,0,0-0.1,0c0,0-0.1,0-0.1,0c0,0,0,0,0,0c0,0-0.1,0-0.1,0c0,0,0,0-0.1,0c0,0-0.1,0-0.1,0c0,0-0.1,0-0.1,0c0,0-0.1,0-0.1,0
		c0,0,0,0-0.1,0c0,0,0,0,0,0c-0.1,0-0.1,0-0.2,0.1c0,0,0,0,0,0c-0.1,0.1-0.1,0.3-0.1,0.4c0.5-0.2,1.1-0.4,2.2-0.4
		c0.3,0,0.6,0,0.8,0.1C334.2,61.3,334.2,61.2,334.1,61.1C334.1,61.1,334.1,61.1,334.1,61.1z"/>
	<path id="XMLID_15_" class="st32" d="M320.3,68.2c0,0-2.6,1.5-1.4,3.2c1.3,1.6,2.1,0.4,2.1,0.4s1.5-0.5,2.2,0.7
		c0,0-0.3,0.3-1.3-0.1c-1-0.3-2.4,0.6-3.3-0.6C317.4,70.2,318.8,68.6,320.3,68.2z"/>
	<path id="XMLID_14_" class="st30" d="M326.5,72.5c0,0,0.8-1,1.7-0.3c0,0,1.4,0.5,1.8-0.8c0.3-1.3-1.4-2.4-1.9-3.2c0,0,1,1,1.4,1.3
		c0.4,0.3,1.7,2.3,0.2,2.8C328.1,72.9,327.5,72.5,326.5,72.5z"/>
	<path id="XMLID_13_" class="st28" d="M329.7,72c-0.7-0.6-1.3-0.4-1.9,0c0.1,0,0.3,0.1,0.4,0.2C328.2,72.3,329.2,72.6,329.7,72z"/>
	<path id="XMLID_12_" class="st5" d="M323.6,108.6l-0.2-2.1c-0.6-0.4-1.2-0.9-1.8-1.3l-0.8-0.5c0,0,0,0,0,0c1,2.4,3,7.9,2.9,13.7
		c0.5-0.2,0.9-0.4,1.4-0.7C325.4,114.9,324,111.4,323.6,108.6z"/>
</g>
<g id="XMLID_5_">
	<path id="XMLID_9_" class="st1" d="M320,120.5l-0.2-0.1c-6.3-2.2-15.5-7.6-22.8-13.4c-5.2-4.1-14-12-14-18.7V21h74v67.4
		c0,6.6-8.8,14.6-14,18.7c-7.3,5.8-16.5,11.2-22.8,13.4L320,120.5z M284,22v66.4c0,4.6,4.8,11,13.6,17.9
		c7.2,5.7,16.1,10.9,22.4,13.2c6.2-2.2,15.2-7.5,22.4-13.2C351.1,99.3,356,93,356,88.4V22H284z"/>
</g>
</svg>
