<?xml version="1.0" encoding="utf-8"?>
<!-- Generator: Adobe Illustrator 20.0.0, SVG Export Plug-In . SVG Version: 6.00 Build 0)  -->
<svg version="1.1" id="Layer_1" xmlns="http://www.w3.org/2000/svg" xmlns:xlink="http://www.w3.org/1999/xlink" x="0px" y="0px"
	 viewBox="0 0 337.1 423" style="enable-background:new 0 0 337.1 423;" xml:space="preserve">
<style type="text/css">
	.st0{fill:#BB8A69;}
	.st1{fill:#E1AC8E;}
	.st2{fill:#9D6B4E;}
	.st3{fill:#714C36;}
	.st4{fill:#492B1C;}
	.st5{fill:#AE8465;}
	.st6{fill:#F2C6AA;}
	.st7{fill:#BC8B69;}
	.st8{fill:#F8981D;}
	.st9{fill:#488FCC;}
	.st10{fill:#776252;}
	.st11{fill:#8D755D;}
	.st12{fill:#3A281E;}
	.st13{fill:#4C3428;}
	.st14{fill:#3E2B20;}
	.st15{fill:#211A16;}
	.st16{fill:#271711;}
	.st17{fill:#594740;}
	.st18{fill:#808285;}
	.st19{fill:#58595B;}
	.st20{fill:#C1A596;}
	.st21{fill:#6D6E71;}
	.st22{fill:#89664D;}
	.st23{fill:#755743;}
	.st24{fill:#735642;}
	.st25{fill:#D0D8DC;}
	.st26{fill:#99827A;}
	.st27{fill:#302118;}
	.st28{fill:#F7941D;}
	.st29{fill:#666666;}
	.st30{fill:#51372A;}
	.st31{fill:#333333;}
	.st32{fill:#DFAE9E;}
	.st33{fill:#F6CDC2;}
	.st34{fill:#C69482;}
	.st35{fill:#AE8174;}
	.st36{fill:#56392E;}
	.st37{fill:#FDE5E1;}
	.st38{fill:#FDDAD0;}
	.st39{fill:#8D6452;}
	.st40{fill:#6D6E70;}
	.st41{fill:#5B4436;}
	.st42{fill:#4C382E;}
	.st43{fill:#35241C;}
	.st44{fill:#493226;}
	.st45{fill:#EDCCC5;}
	.st46{fill:#BDA5A0;}
	.st47{fill:#F2D1C9;}
</style>
<g id="XMLID_548_">
	<g id="XMLID_520_">
		<path id="XMLID_521_" class="st8" d="M301.3,32.1c0,100.5,0,170,0,243.5c0,39.2-89.7,99.8-132.7,115V32.1H301.3z"/>
	</g>
	<g id="XMLID_518_">
		<path id="XMLID_519_" class="st9" d="M35.8,32.1c0,100.5,0,170,0,243.5c0,39.2,89.7,99.8,132.7,115V32.1H35.8z"/>
	</g>
	<g id="XMLID_537_">
		<path id="XMLID_582_" class="st25" d="M167.7,337.1c-18.8,0-34.4-5.4-46.2-16c-2.7-2.4-5-5-7.1-7.8c-18-0.4-32.8-5.7-44.2-16
			C58.3,286.6,52.3,272,52.3,254c0-8.1,2.1-15.3,6.3-21.5c4.3-6.5,10.7-9.8,19-9.8c7.3,0,13.2,2.1,17.7,6.2
			c4.5,4.2,6.8,9.7,6.8,16.5c0,3.9-0.8,7.8-2.4,11.6c-1.5,3.7-3.2,7.1-5.1,10c-1.7,2.6-3.6,5.7-5.7,9.1c-1.8,3-3.2,5.7-4.1,8.2
			c2.2,3.1,5.5,5.9,9.9,8.4c3,1.7,6.8,2.9,11.3,3.5c-1.6-5.6-2.4-11.7-2.4-18.3c0-8.1,2.1-15.3,6.3-21.5c4.3-6.5,10.7-9.8,19-9.8
			c7.3,0,13.2,2.1,17.7,6.2c1.1,1,2,2,2.8,3.1c0,0,0,0,0,0c1.1-8.5,1.6-18.1,1.6-28.6V99.9c0-3.6-0.6-6.7-1.7-9
			c-1.1-2.2-3.5-4.3-7.1-6.1c-3.3-1.7-7.6-3.1-12.6-4c-5.2-0.9-9.4-1.5-12.7-1.8l-1.9-0.1V63H225v16L223,79c-3.1,0.1-7,0.5-11.5,1.2
			c-4.5,0.7-8.5,1.6-11.6,2.7c-2.5,0.9-4.3,2.1-5.5,3.8h81.9v16l-1.9,0.1c-3.1,0.1-7,0.5-11.5,1.2c-4.6,0.7-8.5,1.6-11.6,2.7
			c-3.3,1.2-5.5,3-6.6,5.7c-1.2,2.9-1.9,6.1-1.9,9.6v142.5c0,7.7-1.6,15.9-4.6,24.4c-3.1,8.6-7.6,16.3-13.5,23
			c-6.8,7.9-15,14.1-24.5,18.5C190.7,334.8,179.8,337.1,167.7,337.1z M138.2,310.5c2,2.1,4.7,4.1,7.8,5.9c4.7,2.6,11.2,4,19.3,4
			c7.8,0,14.2-1.8,19.1-5.3c4.9-3.5,8.7-8.4,11.1-14.3c2.4-5.7,4.2-12.8,5.2-21.2c1.1-8.5,1.6-18.1,1.6-28.6V123.7
			c0-3.6-0.6-6.7-1.7-9c-1.1-2.2-3.5-4.3-7.1-6.1c-0.6-0.3-1.3-0.6-2-0.9v133.1c0,7.7-1.6,15.9-4.6,24.4c-3.1,8.6-7.6,16.3-13.5,23
			c-6.8,7.9-15,14.1-24.5,18.5C145.5,308.2,142,309.5,138.2,310.5z"/>
		<path id="XMLID_577_" class="st31" d="M223,65v12c-3.2,0.1-7.1,0.5-11.8,1.3c-4.7,0.7-8.7,1.7-11.9,2.8c-3.8,1.4-6.4,3.6-7.8,6.8
			c-0.1,0.3-0.2,0.6-0.4,0.9h83.2v12c-3.2,0.1-7.1,0.5-11.8,1.3c-4.7,0.7-8.7,1.7-11.9,2.8c-3.8,1.4-6.4,3.6-7.8,6.8
			c-1.4,3.2-2,6.6-2,10.3v142.5c0,7.5-1.5,15.4-4.5,23.7c-3,8.4-7.4,15.8-13.1,22.4c-6.7,7.7-14.6,13.7-23.8,18
			c-9.2,4.3-19.7,6.4-31.6,6.4c-18.4,0-33.4-5.2-44.8-15.5c-2.8-2.6-5.3-5.3-7.4-8.3c-18-0.2-32.6-5.3-43.9-15.5
			c-11.5-10.3-17.2-24.3-17.2-41.8c0-7.7,2-14.5,5.9-20.4c4-5.9,9.7-8.9,17.3-8.9c6.8,0,12.2,1.9,16.4,5.7c4.1,3.8,6.2,8.8,6.2,15
			c0,3.6-0.7,7.2-2.2,10.8c-1.5,3.6-3.1,6.8-4.9,9.7c-1.7,2.6-3.6,5.7-5.8,9.2c-2.1,3.5-3.7,6.7-4.6,9.5c2.4,3.7,6.1,7,11.1,9.8
			c4,2.2,9,3.6,15.1,4c-2.1-6.2-3.2-13.1-3.2-20.6c0-7.7,2-14.5,5.9-20.4c4-5.9,9.7-8.9,17.3-8.9c6.8,0,12.2,1.9,16.4,5.7
			c2.5,2.3,4.2,5,5.2,8.1c0.4-2,0.7-4.1,1-6.3c1.1-8.6,1.6-18.2,1.6-28.8V99.9c0-4-0.7-7.3-1.9-9.9c-1.3-2.7-4-5-8.1-7
			c-3.5-1.8-7.9-3.2-13.1-4.2c-5.3-1-9.6-1.6-13-1.8V65H223 M165.3,322.3c8.2,0,15-1.9,20.3-5.7c5.3-3.8,9.2-8.8,11.8-15.2
			c2.5-5.9,4.3-13.1,5.3-21.7c1.1-8.6,1.6-18.2,1.6-28.8V123.7c0-4-0.7-7.3-1.9-9.9c-1.3-2.7-4-5-8.1-7c-1.5-0.8-3.1-1.4-4.9-2v136
			c0,7.5-1.5,15.4-4.5,23.7c-3,8.4-7.4,15.8-13.1,22.4c-6.7,7.7-14.6,13.7-23.8,18c-4.2,1.9-8.6,3.4-13.3,4.5
			c2.4,3.3,5.8,6.2,10.4,8.8C150.1,320.9,156.8,322.3,165.3,322.3 M227,61h-4H116.9h-4v4v12v3.7l3.7,0.3c3.2,0.2,7.4,0.8,12.5,1.7
			c4.8,0.9,8.9,2.2,12,3.8c3.2,1.6,5.4,3.4,6.3,5.2c1,2.1,1.5,4.8,1.5,8.2v127.3c0,8.6-0.4,16.7-1.1,23.9c-4.9-4.4-11.3-6.7-19-6.7
			c-9,0-15.9,3.6-20.6,10.7c-4.4,6.6-6.6,14.2-6.6,22.6c0,5.6,0.6,10.8,1.7,15.8c-3-0.6-5.5-1.5-7.6-2.7c-3.7-2.1-6.6-4.4-8.6-7
			c0.8-2.1,2-4.3,3.5-6.8c2.1-3.4,4-6.5,5.7-9.1c1.9-3,3.7-6.5,5.3-10.3c1.7-4.1,2.5-8.2,2.5-12.4c0-7.3-2.5-13.4-7.5-17.9
			c-4.9-4.5-11.3-6.7-19.1-6.7c-9,0-15.9,3.6-20.6,10.7c-4.4,6.6-6.6,14.2-6.6,22.6c0,18.6,6.2,33.7,18.5,44.8
			c11.5,10.4,26.5,15.9,44.5,16.5c2,2.6,4.3,5.1,6.8,7.3c12.2,11,28.2,16.5,47.5,16.5c12.4,0,23.6-2.3,33.3-6.8
			c9.7-4.5,18.1-10.9,25.1-19c6.1-6.9,10.7-14.8,13.9-23.6c3.1-8.8,4.7-17.2,4.7-25.1V122c0-3.2,0.6-6.1,1.7-8.8
			c0.9-2.1,2.7-3.6,5.5-4.6c3-1,6.8-1.9,11.2-2.6c4.5-0.7,8.3-1.1,11.3-1.2l3.9-0.1v-3.9v-12v-4h-4h-73.5c3-1,6.7-1.9,11-2.5
			c4.5-0.7,8.3-1.1,11.3-1.2l3.9-0.1V77V65V61L227,61z M142.2,311.4c2.6-0.8,5.1-1.8,7.5-2.9c9.7-4.5,18.1-10.9,25.1-19
			c6.1-6.9,10.7-14.8,13.9-23.6c3.1-8.8,4.7-17.2,4.7-25.1V110.8c2.7,1.5,4.5,3.1,5.3,4.7c1,2.1,1.5,4.8,1.5,8.2V251
			c0,10.4-0.5,19.9-1.6,28.3c-1,8.2-2.7,15.1-5.1,20.6c-2.3,5.7-5.8,10.1-10.4,13.5c-4.5,3.3-10.6,4.9-17.9,4.9
			c-7.7,0-13.9-1.3-18.3-3.7C145.2,313.6,143.6,312.5,142.2,311.4L142.2,311.4z"/>
	</g>
	<g id="XMLID_517_">
		<path id="XMLID_511_" class="st31" d="M168.6,394.3l-1.2-0.4c-23.1-8.1-56.7-27.8-83.5-49c-19.3-15.2-51.6-44.4-51.6-69.3v-247
			h272.5v247c0,24.9-32.3,54.1-51.6,69.3c-26.8,21.2-60.4,40.9-83.5,49L168.6,394.3z M39.3,35.6v240c0,35.7,84.8,95.1,129.2,111.3
			c44.4-16.1,129.2-75.6,129.2-111.3v-240H39.3z"/>
	</g>
</g>
</svg>
